<?xml version="1.0" encoding="UTF-8" standalone="no"?>
<!-- Generated by Microsoft Visio 11.0, SVG Export, v1.0 struct scheme.svg !B@C:BC@=0O AE5<0 -->

<svg
   xmlns:v="http://schemas.microsoft.com/visio/2003/SVGExtensions/"
   xmlns:dc="http://purl.org/dc/elements/1.1/"
   xmlns:cc="http://creativecommons.org/ns#"
   xmlns:rdf="http://www.w3.org/1999/02/22-rdf-syntax-ns#"
   xmlns:svg="http://www.w3.org/2000/svg"
   xmlns="http://www.w3.org/2000/svg"
   xmlns:sodipodi="http://sodipodi.sourceforge.net/DTD/sodipodi-0.dtd"
   xmlns:inkscape="http://www.inkscape.org/namespaces/inkscape"
   width="33.1102in"
   height="23.3858in"
   viewBox="0 0 2383.94 1683.78"
   xml:space="preserve"
   color-interpolation-filters="sRGB"
   class="st18"
   id="svg2"
   sodipodi:version="0.32"
   inkscape:version="0.47 r22583"
   sodipodi:docname="plakat-1-ramka.svg"
   inkscape:output_extension="org.inkscape.output.svg.inkscape"
   version="1.1"><metadata
   id="metadata643"><rdf:RDF><cc:Work
       rdf:about=""><dc:format>image/svg+xml</dc:format><dc:type
         rdf:resource="http://purl.org/dc/dcmitype/StillImage" /><dc:title /></cc:Work></rdf:RDF></metadata><sodipodi:namedview
   inkscape:window-height="835"
   inkscape:window-width="1383"
   inkscape:pageshadow="2"
   inkscape:pageopacity="0.0"
   guidetolerance="10.0"
   gridtolerance="10.0"
   objecttolerance="10.0"
   borderopacity="1.0"
   bordercolor="#666666"
   pagecolor="#ffffff"
   id="base"
   showgrid="false"
   inkscape:zoom="0.3718223"
   inkscape:cx="1774.6721"
   inkscape:cy="2121.4576"
   inkscape:window-x="131"
   inkscape:window-y="69"
   inkscape:current-layer="svg2"
   inkscape:window-maximized="0" />
	<v:documentProperties
   v:langID="1049"
   v:metric="true"
   v:viewMarkup="false" />

	<style
   type="text/css"
   id="style4">
	
		.st1 {fill:#ffffff;stroke:#000000;stroke-linecap:butt;stroke-width:2.16}
		.st2 {fill:#000000;font-family:Arial;font-size:2.50001em}
		.st3 {font-size:1em}
		.st4 {fill:none;stroke:#000000;stroke-linecap:butt;stroke-width:2.16}
		.st5 {stroke:#000000;stroke-linecap:butt;stroke-width:2.16}
		.st6 {stroke:#000000;stroke-linecap:round;stroke-linejoin:round;stroke-width:2.16}
		.st7 {stroke:#000000;stroke-linecap:round;stroke-linejoin:round;stroke-width:0.72}
		.st8 {fill:none;stroke:none;stroke-linecap:round;stroke-linejoin:round;stroke-width:0.72}
		.st9 {fill:#000000;font-family:Arial;font-size:0.833336em}
		.st10 {fill:#000000;font-family:Arial;font-size:0.75em}
		.st11 {fill:#000000;font-family:Arial;font-size:1.99999em}
		.st12 {fill:#000000;font-family:Arial;font-size:1.16666em}
		.st13 {fill:#000000;font-family:Arial;font-size:1.91666em}
		.st14 {marker-end:url(#mrkr12-192);marker-start:url(#mrkr12-190);stroke:#000000;stroke-linecap:round;stroke-linejoin:round;stroke-width:1.2}
		.st15 {fill:#000000;fill-opacity:1;stroke:#000000;stroke-opacity:1;stroke-width:0.32258064516129}
		.st16 {marker-end:url(#mrkr12-192);stroke:#000000;stroke-linecap:round;stroke-linejoin:round;stroke-width:1.2}
		.st17 {marker-start:url(#mrkr12-190);stroke:#000000;stroke-linecap:round;stroke-linejoin:round;stroke-width:1.2}
		.st18 {fill:none;fill-rule:evenodd;font-size:12;overflow:visible;stroke-linecap:square;stroke-miterlimit:3}
	
	</style>

	<defs
   id="Markers"><inkscape:perspective
   sodipodi:type="inkscape:persp3d"
   inkscape:vp_x="0 : 1052.361 : 1"
   inkscape:vp_y="0 : 1000 : 0"
   inkscape:vp_z="2979.918 : 1052.361 : 1"
   inkscape:persp3d-origin="1489.959 : 701.57397 : 1"
   id="perspective645" />
		<g
   id="lend12">
			<path
   d="M 3 1 L 0 0 L 3 -1 "
   style="stroke-linecap:round;stroke-linejoin:round;fill:none"
   id="path8" />
		</g>
		<marker
   id="mrkr12-190"
   class="st15"
   v:arrowType="12"
   v:arrowSize="2"
   orient="auto"
   markerUnits="strokeWidth">
			<use
   href="#lend12"
   transform="scale(3.1) "
   id="use11" />
		</marker>
		<marker
   id="mrkr12-192"
   class="st15"
   v:arrowType="12"
   v:arrowSize="2"
   orient="auto"
   markerUnits="strokeWidth">
			<use
   href="#lend12"
   transform="scale(-3.1,-3.1) "
   id="use14" />
		</marker>
	
		<title
   id="title18">Структурная схема</title>
		<v:pageProperties
   v:shadowOffsetY="-9"
   v:shadowOffsetX="9"
   v:drawingUnits="24"
   v:pageScale="0.0393701"
   v:drawingScale="0.0393701" />
		
		
		
		
		
		
		
		
		
		
		
		
		
		
		
		
		
		
		
		
		
		
		
		
		
		
		
		
		
		
		
		
		
		
		
		
		
		
		
		
		
		
		
		
		
		
		
		
		
		
		
		
		
		
		
		
		
		
		
		
		
		
		
		
		
		
		
		
		
		
		
		
		
		
		
		
		
		
		
		
		
		
		
	
			<title
   id="title399">Sheet.90</title>
			<desc
   id="desc401">Комплекс медицинской диагностики. Структурная схема</desc>
			<v:textBlock
   v:margins="rect(4,4,4,4)"
   v:tabSpace="42.5197" />
			<v:textRect
   cx="99.2126"
   cy="1648.35"
   width="198.43"
   height="70.8661" />
			
					
			<title
   id="title3391">Sheet.78</title>
			<desc
   id="desc3393">№ докум</desc>
			<v:textBlock
   v:margins="rect(0,0,0,0)"
   v:tabSpace="42.5197" />
			<v:textRect
   cx="33.3071"
   cy="1676.69"
   width="66.62"
   height="14.1732" />
			
					
			<title
   id="title3381">Sheet.78</title>
			<desc
   id="desc3383">№ докум</desc>
			<v:textBlock
   v:margins="rect(0,0,0,0)"
   v:tabSpace="42.5197" />
			<v:textRect
   cx="33.3071"
   cy="1676.69"
   width="66.62"
   height="14.1732" />
			
					
			<title
   id="title3401">Sheet.78</title>
			<desc
   id="desc3403">№ докум</desc>
			<v:textBlock
   v:margins="rect(0,0,0,0)"
   v:tabSpace="42.5197" />
			<v:textRect
   cx="33.3071"
   cy="1676.69"
   width="66.62"
   height="14.1732" />
			
					
			<title
   id="title421">Sheet.97</title>
			<desc
   id="desc423">ИИДП 8.70112.01</desc>
			<v:textBlock
   v:margins="rect(4,4,4,4)"
   v:tabSpace="42.5197" />
			<v:textRect
   cx="99.2126"
   cy="1662.52"
   width="198.43"
   height="42.5197" />
			
					<inkscape:perspective
   id="perspective3950"
   inkscape:persp3d-origin="531.49603 : 366.14172 : 1"
   inkscape:vp_z="1062.9921 : 549.21259 : 1"
   inkscape:vp_y="0 : 1000 : 0"
   inkscape:vp_x="0 : 549.21259 : 1"
   sodipodi:type="inkscape:persp3d" /><inkscape:perspective
   id="perspective4385"
   inkscape:persp3d-origin="283.46457 : 649.60628 : 1"
   inkscape:vp_z="566.92914 : 974.40942 : 1"
   inkscape:vp_y="0 : 1000 : 0"
   inkscape:vp_x="0 : 974.40942 : 1"
   sodipodi:type="inkscape:persp3d" /><inkscape:perspective
   id="perspective4768"
   inkscape:persp3d-origin="283.46457 : 484.25195 : 1"
   inkscape:vp_z="566.92914 : 726.37793 : 1"
   inkscape:vp_y="0 : 1000 : 0"
   inkscape:vp_x="0 : 726.37793 : 1"
   sodipodi:type="inkscape:persp3d" /><inkscape:perspective
   id="perspective5143"
   inkscape:persp3d-origin="407.48032 : 519.68506 : 1"
   inkscape:vp_z="814.96063 : 779.52759 : 1"
   inkscape:vp_y="0 : 1000 : 0"
   inkscape:vp_x="0 : 779.52759 : 1"
   sodipodi:type="inkscape:persp3d" /><inkscape:perspective
   id="perspective5540"
   inkscape:persp3d-origin="425.19684 : 661.41732 : 1"
   inkscape:vp_z="850.39368 : 992.12598 : 1"
   inkscape:vp_y="0 : 1000 : 0"
   inkscape:vp_x="0 : 992.12598 : 1"
   sodipodi:type="inkscape:persp3d" /><inkscape:perspective
   id="perspective5906"
   inkscape:persp3d-origin="354.33072 : 531.49605 : 1"
   inkscape:vp_z="708.66144 : 797.24408 : 1"
   inkscape:vp_y="0 : 1000 : 0"
   inkscape:vp_x="0 : 797.24408 : 1"
   sodipodi:type="inkscape:persp3d" /><inkscape:perspective
   id="perspective3523"
   inkscape:persp3d-origin="283.46457 : 649.60628 : 1"
   inkscape:vp_z="566.92914 : 974.40942 : 1"
   inkscape:vp_y="0 : 1000 : 0"
   inkscape:vp_x="0 : 974.40942 : 1"
   sodipodi:type="inkscape:persp3d" /><inkscape:perspective
   id="perspective3906"
   inkscape:persp3d-origin="283.46457 : 484.25195 : 1"
   inkscape:vp_z="566.92914 : 726.37793 : 1"
   inkscape:vp_y="0 : 1000 : 0"
   inkscape:vp_x="0 : 726.37793 : 1"
   sodipodi:type="inkscape:persp3d" /><inkscape:perspective
   id="perspective4281"
   inkscape:persp3d-origin="407.48032 : 519.68506 : 1"
   inkscape:vp_z="814.96063 : 779.52759 : 1"
   inkscape:vp_y="0 : 1000 : 0"
   inkscape:vp_x="0 : 779.52759 : 1"
   sodipodi:type="inkscape:persp3d" /><inkscape:perspective
   id="perspective4678"
   inkscape:persp3d-origin="425.19684 : 661.41732 : 1"
   inkscape:vp_z="850.39368 : 992.12598 : 1"
   inkscape:vp_y="0 : 1000 : 0"
   inkscape:vp_x="0 : 992.12598 : 1"
   sodipodi:type="inkscape:persp3d" /><inkscape:perspective
   id="perspective5044"
   inkscape:persp3d-origin="354.33072 : 531.49605 : 1"
   inkscape:vp_z="708.66144 : 797.24408 : 1"
   inkscape:vp_y="0 : 1000 : 0"
   inkscape:vp_x="0 : 797.24408 : 1"
   sodipodi:type="inkscape:persp3d" /><inkscape:perspective
   id="perspective3466"
   inkscape:persp3d-origin="248.03149 : 649.60628 : 1"
   inkscape:vp_z="496.06299 : 974.40942 : 1"
   inkscape:vp_y="0 : 1000 : 0"
   inkscape:vp_x="0 : 974.40942 : 1"
   sodipodi:type="inkscape:persp3d" /><inkscape:perspective
   id="perspective3788"
   inkscape:persp3d-origin="283.46457 : 484.25195 : 1"
   inkscape:vp_z="566.92914 : 726.37793 : 1"
   inkscape:vp_y="0 : 1000 : 0"
   inkscape:vp_x="0 : 726.37793 : 1"
   sodipodi:type="inkscape:persp3d" /><inkscape:perspective
   id="perspective4106"
   inkscape:persp3d-origin="442.91339 : 519.68506 : 1"
   inkscape:vp_z="885.82678 : 779.52759 : 1"
   inkscape:vp_y="0 : 1000 : 0"
   inkscape:vp_x="0 : 779.52759 : 1"
   sodipodi:type="inkscape:persp3d" /><inkscape:perspective
   id="perspective4440"
   inkscape:persp3d-origin="407.48032 : 661.41732 : 1"
   inkscape:vp_z="814.96063 : 992.12598 : 1"
   inkscape:vp_y="0 : 1000 : 0"
   inkscape:vp_x="0 : 992.12598 : 1"
   sodipodi:type="inkscape:persp3d" /><inkscape:perspective
   id="perspective4741"
   inkscape:persp3d-origin="336.61417 : 531.49605 : 1"
   inkscape:vp_z="673.22833 : 797.24408 : 1"
   inkscape:vp_y="0 : 1000 : 0"
   inkscape:vp_x="0 : 797.24408 : 1"
   sodipodi:type="inkscape:persp3d" /><inkscape:perspective
   id="perspective6912"
   inkscape:persp3d-origin="0.5 : 0.33333333 : 1"
   inkscape:vp_z="1 : 0.5 : 1"
   inkscape:vp_y="0 : 1000 : 0"
   inkscape:vp_x="0 : 0.5 : 1"
   sodipodi:type="inkscape:persp3d" /><inkscape:perspective
   id="perspective20209"
   inkscape:persp3d-origin="0.5 : 0.33333333 : 1"
   inkscape:vp_z="1 : 0.5 : 1"
   inkscape:vp_y="0 : 1000 : 0"
   inkscape:vp_x="0 : 0.5 : 1"
   sodipodi:type="inkscape:persp3d" /><inkscape:perspective
   id="perspective14701"
   inkscape:persp3d-origin="0.5 : 0.33333333 : 1"
   inkscape:vp_z="1 : 0.5 : 1"
   inkscape:vp_y="0 : 1000 : 0"
   inkscape:vp_x="0 : 0.5 : 1"
   sodipodi:type="inkscape:persp3d" /><inkscape:perspective
   id="perspective5159"
   inkscape:persp3d-origin="0.5 : 0.33333333 : 1"
   inkscape:vp_z="1 : 0.5 : 1"
   inkscape:vp_y="0 : 1000 : 0"
   inkscape:vp_x="0 : 0.5 : 1"
   sodipodi:type="inkscape:persp3d" /><inkscape:perspective
   id="perspective20972"
   inkscape:persp3d-origin="0.5 : 0.33333333 : 1"
   inkscape:vp_z="1 : 0.5 : 1"
   inkscape:vp_y="0 : 1000 : 0"
   inkscape:vp_x="0 : 0.5 : 1"
   sodipodi:type="inkscape:persp3d" /><inkscape:perspective
   id="perspective5712"
   inkscape:persp3d-origin="0.5 : 0.33333333 : 1"
   inkscape:vp_z="1 : 0.5 : 1"
   inkscape:vp_y="0 : 1000 : 0"
   inkscape:vp_x="0 : 0.5 : 1"
   sodipodi:type="inkscape:persp3d" /><inkscape:perspective
   id="perspective5745"
   inkscape:persp3d-origin="0.5 : 0.33333333 : 1"
   inkscape:vp_z="1 : 0.5 : 1"
   inkscape:vp_y="0 : 1000 : 0"
   inkscape:vp_x="0 : 0.5 : 1"
   sodipodi:type="inkscape:persp3d" /></defs>
	<g
   v:groupContext="group"
   v:mID="50"
   transform="translate(59.5276,-14.1732)"
   id="group50-74">
			<title
   id="title215">Sheet.50</title>
			<g
   v:groupContext="shape"
   v:mID="1"
   id="shape1-75">
				<title
   id="title218">Box</title>
				<rect
   style="fill:none;stroke:#000000;stroke-width:2.16000009;stroke-linecap:butt"
   id="rect220"
   class="st4"
   height="1651.75"
   width="2310.24"
   y="32.031502"
   x="0" />
			</g>
			
			
		</g>












<rect
   x="-255.118"
   y="-60.939991"
   width="198.425"
   height="42.519699"
   class="st8"
   id="rect425"
   style="fill:none;stroke:none;stroke-width:0.72000003;stroke-linecap:round;stroke-linejoin:round"
   transform="scale(-1,-1)" />


























































































<text
   style="font-size:48.26989365px;font-style:normal;font-weight:normal;text-anchor:start;fill:#000000;font-family:sanserif"
   x="1916.417"
   y="-683.95459"
   id="text4639"><tspan
     x="1916.417"
     y="-683.95459"
     id="tspan4641" /></text>






<text
   style="font-size:48.26989365px;font-style:normal;font-weight:normal;text-anchor:start;fill:#000000;font-family:sanserif"
   x="1916.417"
   y="-683.95459"
   id="text4643"><tspan
     x="1916.417"
     y="-683.95459"
     id="tspan4645" /></text>

































<text
   style="font-size:16.3851223px;font-style:normal;font-weight:normal;text-anchor:start;fill:#000000;font-family:sanserif"
   x="745.37079"
   y="508.50134"
   id="text11981"><tspan
     x="745.37079"
     y="508.50134"
     id="tspan11983" /></text>




<text
   style="font-size:16.3851223px;font-style:normal;font-weight:normal;text-anchor:start;fill:#000000;font-family:sanserif"
   x="1097.2721"
   y="817.89337"
   id="text12093"><tspan
     x="1097.2721"
     y="817.89337"
     id="tspan12095" /></text>


















<g
   id="g3188"
   transform="matrix(1.2965083,0,0,1.2965083,137.56656,49.653602)"><ellipse
   style="fill:#ffffff"
   cx="192.00301"
   cy="459.00101"
   rx="156.00301"
   ry="52.000999"
   id="ellipse3190"
   sodipodi:cx="192.00301"
   sodipodi:cy="459.00101"
   sodipodi:rx="156.00301"
   sodipodi:ry="52.000999"
   d="m 348.00601,459.00101 c 0,28.71936 -69.84492,52.001 -156.003,52.001 C 105.84492,511.00201 36,487.72037 36,459.00101 c 0,-28.71936 69.84492,-52.001 156.00301,-52.001 86.15808,0 156.003,23.28164 156.003,52.001 z" /><ellipse
   style="fill:none;stroke:#000000;stroke-width:2"
   cx="192.00301"
   cy="459.00101"
   rx="156.00301"
   ry="52.000999"
   id="ellipse3192"
   sodipodi:cx="192.00301"
   sodipodi:cy="459.00101"
   sodipodi:rx="156.00301"
   sodipodi:ry="52.000999"
   d="m 348.00601,459.00101 c 0,28.71936 -69.84492,52.001 -156.003,52.001 C 105.84492,511.00201 36,487.72037 36,459.00101 c 0,-28.71936 69.84492,-52.001 156.00301,-52.001 86.15808,0 156.003,23.28164 156.003,52.001 z" /><text
   style="font-size:22.96159935px;font-style:normal;font-weight:normal;text-anchor:middle;fill:#000000;font-family:Bitstream Vera Sans"
   x="192.00301"
   y="466"
   id="text3194"><tspan
     x="192.00301"
     y="466"
     id="tspan3196">Мини-бухгалтерия</tspan></text>

</g><g
   id="g3198"
   transform="matrix(1.2965083,0,0,1.2965083,137.56656,49.653602)"><ellipse
   style="fill:#ffffff"
   cx="626.20599"
   cy="472.802"
   rx="193.806"
   ry="64.601997"
   id="ellipse3200"
   sodipodi:cx="626.20599"
   sodipodi:cy="472.802"
   sodipodi:rx="193.806"
   sodipodi:ry="64.601997"
   d="m 820.01199,472.802 c 0,35.6787 -86.7699,64.602 -193.806,64.602 -107.03609,0 -193.806,-28.9233 -193.806,-64.602 0,-35.6787 86.76991,-64.602 193.806,-64.602 107.0361,0 193.806,28.9233 193.806,64.602 z" /><ellipse
   style="fill:none;stroke:#000000;stroke-width:2"
   cx="626.20599"
   cy="472.802"
   rx="193.806"
   ry="64.601997"
   id="ellipse3202"
   sodipodi:cx="626.20599"
   sodipodi:cy="472.802"
   sodipodi:rx="193.806"
   sodipodi:ry="64.601997"
   d="m 820.01199,472.802 c 0,35.6787 -86.7699,64.602 -193.806,64.602 -107.03609,0 -193.806,-28.9233 -193.806,-64.602 0,-35.6787 86.76991,-64.602 193.806,-64.602 107.0361,0 193.806,28.9233 193.806,64.602 z" /><text
   style="font-size:22.96159935px;font-style:normal;font-weight:normal;text-anchor:middle;fill:#000000;font-family:Bitstream Vera Sans"
   x="626.20599"
   y="465.45001"
   id="text3204"><tspan
     x="626.20599"
     y="465.45001"
     id="tspan3206">Интегрированная</tspan><tspan
     x="626.20599"
     y="494.15201"
     id="tspan3208">система</tspan></text>

</g><g
   id="g3210"
   transform="matrix(1.2965083,0,0,1.2965083,137.56656,49.653602)"><ellipse
   style="fill:#ffffff"
   cx="1060.1801"
   cy="461.45901"
   rx="120.778"
   ry="40.2593"
   id="ellipse3212"
   sodipodi:cx="1060.1801"
   sodipodi:cy="461.45901"
   sodipodi:rx="120.778"
   sodipodi:ry="40.2593"
   d="m 1180.9581,461.45901 c 0,22.2346 -54.0742,40.25931 -120.778,40.25931 -66.70389,0 -120.77805,-18.02471 -120.77805,-40.25931 0,-22.23459 54.07416,-40.2593 120.77805,-40.2593 66.7038,0 120.778,18.02471 120.778,40.2593 z" /><ellipse
   style="fill:none;stroke:#000000;stroke-width:2"
   cx="1060.1801"
   cy="461.45901"
   rx="120.778"
   ry="40.2593"
   id="ellipse3214"
   sodipodi:cx="1060.1801"
   sodipodi:cy="461.45901"
   sodipodi:rx="120.778"
   sodipodi:ry="40.2593"
   d="m 1180.9581,461.45901 c 0,22.2346 -54.0742,40.25931 -120.778,40.25931 -66.70389,0 -120.77805,-18.02471 -120.77805,-40.25931 0,-22.23459 54.07416,-40.2593 120.77805,-40.2593 66.7038,0 120.778,18.02471 120.778,40.2593 z" /><text
   style="font-size:22.96159935px;font-style:normal;font-weight:normal;text-anchor:middle;fill:#000000;font-family:Bitstream Vera Sans"
   x="1060.1801"
   y="468.45801"
   id="text3216"><tspan
     x="1060.1801"
     y="468.45801"
     id="tspan3218">Конструктор</tspan></text>

</g><g
   id="g3220"
   transform="matrix(1.2965083,0,0,1.2965083,137.56656,49.653602)"><polygon
     style="fill:#ffffff"
     points="47.604,641.265 30.104,641.265 30.104,626.515 47.604,626.515 47.604,619.14 65.104,633.89 47.604,648.64 "
     id="polygon3222" /><polygon
     style="fill:none;stroke:#000000;stroke-width:2"
     points="47.604,641.265 30.104,641.265 30.104,626.515 47.604,626.515 47.604,619.14 65.104,633.89 47.604,648.64 "
     id="polygon3224" /><polygon
     style="fill:none;stroke:#000000;stroke-width:2"
     points="47.604,641.265 30.104,641.265 30.104,626.515 47.604,626.515 47.604,619.14 65.104,633.89 47.604,648.64 "
     id="polygon3226" /></g><text
   style="font-size:22.45189285px;font-style:normal;font-weight:normal;text-anchor:start;fill:#000000;font-family:Bitstream Vera Sans"
   x="241.42206"
   y="864.69055"
   id="text3228"><tspan
     x="241.42206"
     y="864.69055"
     id="tspan3230">Отсутствие организации учета</tspan><tspan
     x="241.42206"
     y="892.75482"
     id="tspan3232">по различным классам</tspan></text>

<g
   id="g3234"
   transform="matrix(1.2965083,0,0,1.2965083,137.56656,49.653602)"><polygon
     style="fill:#ffffff"
     points="46.104,697.565 28.604,697.565 28.604,682.815 46.104,682.815 46.104,675.44 63.604,690.19 46.104,704.94 "
     id="polygon3236" /><polygon
     style="fill:none;stroke:#000000;stroke-width:2"
     points="46.104,697.565 28.604,697.565 28.604,682.815 46.104,682.815 46.104,675.44 63.604,690.19 46.104,704.94 "
     id="polygon3238" /><polygon
     style="fill:none;stroke:#000000;stroke-width:2"
     points="46.104,697.565 28.604,697.565 28.604,682.815 46.104,682.815 46.104,675.44 63.604,690.19 46.104,704.94 "
     id="polygon3240" /></g><text
   style="font-size:22.45189285px;font-style:normal;font-weight:normal;text-anchor:start;fill:#000000;font-family:Bitstream Vera Sans"
   x="240.7738"
   y="938.98053"
   id="text3242"><tspan
     x="240.7738"
     y="938.98053"
     id="tspan3244">Небольшой набор учетных</tspan><tspan
     x="240.7738"
     y="967.04468"
     id="tspan3246">операций</tspan></text>

<g
   id="g3248"
   transform="matrix(1.2965083,0,0,1.2965083,137.56656,49.653602)"><polygon
     style="fill:#ffffff"
     points="46.104,749.565 28.604,749.565 28.604,734.815 46.104,734.815 46.104,727.44 63.604,742.19 46.104,756.94 "
     id="polygon3250" /><polygon
     style="fill:none;stroke:#000000;stroke-width:2"
     points="46.104,749.565 28.604,749.565 28.604,734.815 46.104,734.815 46.104,727.44 63.604,742.19 46.104,756.94 "
     id="polygon3252" /><polygon
     style="fill:none;stroke:#000000;stroke-width:2"
     points="46.104,749.565 28.604,749.565 28.604,734.815 46.104,734.815 46.104,727.44 63.604,742.19 46.104,756.94 "
     id="polygon3254" /></g><text
   style="font-size:22.45189285px;font-style:normal;font-weight:normal;text-anchor:start;fill:#000000;font-family:Bitstream Vera Sans"
   x="242.07031"
   y="1008.9919"
   id="text3256"><tspan
     x="242.07031"
     y="1008.9919"
     id="tspan3258">Оформление небольшого набора</tspan><tspan
     x="242.07031"
     y="1037.0562"
     id="tspan3260">первичных документов</tspan></text>

<g
   id="g3262"
   transform="matrix(1.2965083,0,0,1.2965083,137.56656,49.653602)"><polygon
     style="fill:#ffffff"
     points="434.494,639.565 416.994,639.565 416.994,624.815 434.494,624.815 434.494,617.44 451.994,632.19 434.494,646.94 "
     id="polygon3264" /><polygon
     style="fill:none;stroke:#000000;stroke-width:2"
     points="434.494,639.565 416.994,639.565 416.994,624.815 434.494,624.815 434.494,617.44 451.994,632.19 434.494,646.94 "
     id="polygon3266" /><polygon
     style="fill:none;stroke:#000000;stroke-width:2"
     points="434.494,639.565 416.994,639.565 416.994,624.815 434.494,624.815 434.494,617.44 451.994,632.19 434.494,646.94 "
     id="polygon3268" /></g><text
   style="font-size:22.45189285px;font-style:normal;font-weight:normal;text-anchor:start;fill:#000000;font-family:Bitstream Vera Sans"
   x="743.0282"
   y="871.56207"
   id="text3270"><tspan
     x="743.0282"
     y="871.56207"
     id="tspan3272">Огранизация работы в локальной сети</tspan></text>

<g
   id="g3274"
   transform="matrix(1.2965083,0,0,1.2965083,137.56656,49.653602)"><polygon
     style="fill:#ffffff"
     points="434.858,696.115 417.358,696.115 417.358,681.365 434.858,681.365 434.858,673.99 452.358,688.74 434.858,703.49 "
     id="polygon3276" /><polygon
     style="fill:none;stroke:#000000;stroke-width:2"
     points="434.858,696.115 417.358,696.115 417.358,681.365 434.858,681.365 434.858,673.99 452.358,688.74 434.858,703.49 "
     id="polygon3278" /><polygon
     style="fill:none;stroke:#000000;stroke-width:2"
     points="434.858,696.115 417.358,696.115 417.358,681.365 434.858,681.365 434.858,673.99 452.358,688.74 434.858,703.49 "
     id="polygon3280" /></g><text
   style="font-size:22.45189285px;font-style:normal;font-weight:normal;text-anchor:start;fill:#000000;font-family:Bitstream Vera Sans"
   x="742.20355"
   y="937.10052"
   id="text3282"><tspan
     x="742.20355"
     y="937.10052"
     id="tspan3284">Использование централизированного</tspan><tspan
     x="742.20355"
     y="965.16486"
     id="tspan3286">хранилища (СУБД)</tspan></text>

<g
   id="g3288"
   transform="matrix(1.2965083,0,0,1.2965083,137.56656,49.653602)"><polygon
     style="fill:#ffffff"
     points="434.858,747.565 417.358,747.565 417.358,732.815 434.858,732.815 434.858,725.44 452.358,740.19 434.858,754.94 "
     id="polygon3290" /><polygon
     style="fill:none;stroke:#000000;stroke-width:2"
     points="434.858,747.565 417.358,747.565 417.358,732.815 434.858,732.815 434.858,725.44 452.358,740.19 434.858,754.94 "
     id="polygon3292" /><polygon
     style="fill:none;stroke:#000000;stroke-width:2"
     points="434.858,747.565 417.358,747.565 417.358,732.815 434.858,732.815 434.858,725.44 452.358,740.19 434.858,754.94 "
     id="polygon3294" /></g><text
   style="font-size:22.45189285px;font-style:normal;font-weight:normal;text-anchor:start;fill:#000000;font-family:Bitstream Vera Sans"
   x="738.31396"
   y="1007.6955"
   id="text3296"><tspan
     x="738.31396"
     y="1007.6955"
     id="tspan3298">Ведение учета по всем основным</tspan><tspan
     x="738.31396"
     y="1035.7596"
     id="tspan3300">участкам</tspan></text>

<g
   id="g3302"
   transform="matrix(1.2965083,0,0,1.2965083,137.56656,49.653602)"><polygon
     style="fill:#ffffff"
     points="926.068,642.115 908.568,642.115 908.568,627.365 926.068,627.365 926.068,619.99 943.568,634.74 926.068,649.49 "
     id="polygon3304" /><polygon
     style="fill:none;stroke:#000000;stroke-width:2"
     points="926.068,642.115 908.568,642.115 908.568,627.365 926.068,627.365 926.068,619.99 943.568,634.74 926.068,649.49 "
     id="polygon3306" /><polygon
     style="fill:none;stroke:#000000;stroke-width:2"
     points="926.068,642.115 908.568,642.115 908.568,627.365 926.068,627.365 926.068,619.99 943.568,634.74 926.068,649.49 "
     id="polygon3308" /></g><text
   style="font-size:22.45189285px;font-style:normal;font-weight:normal;text-anchor:start;fill:#000000;font-family:Bitstream Vera Sans"
   x="1380.3578"
   y="863.19958"
   id="text3310"><tspan
     x="1380.3578"
     y="863.19958"
     id="tspan3312">Наличие встроенного</tspan><tspan
     x="1380.3578"
     y="891.26379"
     id="tspan3314">языка программирования</tspan></text>

<g
   id="g3316"
   transform="matrix(1.2965083,0,0,1.2965083,137.56656,49.653602)"><polygon
     style="fill:#ffffff"
     points="924.17,699.115 906.67,699.115 906.67,684.365 924.17,684.365 924.17,676.99 941.67,691.74 924.17,706.49 "
     id="polygon3318" /><polygon
     style="fill:none;stroke:#000000;stroke-width:2"
     points="924.17,699.115 906.67,699.115 906.67,684.365 924.17,684.365 924.17,676.99 941.67,691.74 924.17,706.49 "
     id="polygon3320" /><polygon
     style="fill:none;stroke:#000000;stroke-width:2"
     points="924.17,699.115 906.67,699.115 906.67,684.365 924.17,684.365 924.17,676.99 941.67,691.74 924.17,706.49 "
     id="polygon3322" /></g><text
   style="font-size:22.45189285px;font-style:normal;font-weight:normal;text-anchor:start;fill:#000000;font-family:Bitstream Vera Sans"
   x="1377.8971"
   y="940.99011"
   id="text3324"><tspan
     x="1377.8971"
     y="940.99011"
     id="tspan3326" /></text>

<text
   style="font-size:22.45189285px;font-style:normal;font-weight:normal;text-anchor:start;fill:#000000;font-family:Bitstream Vera Sans"
   x="1383.4954"
   y="944.16656"
   id="text3328"><tspan
     x="1383.4954"
     y="944.16656"
     id="tspan3330">Позволяют изменять методику</tspan><tspan
     x="1383.4954"
     y="972.23077"
     id="tspan3332">учета</tspan></text>

<g
   id="g3334"
   transform="matrix(1.2965083,0,0,1.2965083,137.56656,49.653602)"><polygon
     style="fill:#ffffff"
     points="185.606,814.64 185.606,794.64 165.606,794.64 165.606,814.64 155.606,814.64 175.606,834.64 195.606,814.64 "
     id="polygon3336" /><polygon
     style="fill:none;stroke:#000000;stroke-width:2"
     points="185.606,814.64 185.606,794.64 165.606,794.64 165.606,814.64 155.606,814.64 175.606,834.64 195.606,814.64 "
     id="polygon3338" /><polygon
     style="fill:none;stroke:#000000;stroke-width:2"
     points="185.606,814.64 185.606,794.64 165.606,794.64 165.606,814.64 155.606,814.64 175.606,834.64 195.606,814.64 "
     id="polygon3340" /></g><text
   style="font-size:22.45189285px;font-style:normal;font-weight:normal;text-anchor:start;fill:#000000;font-family:Bitstream Vera Sans"
   x="271.89258"
   y="1175.8528"
   id="text3342"><tspan
     x="271.89258"
     y="1175.8528"
     id="tspan3344">1С</tspan></text>

<text
   style="font-size:22.45189285px;font-style:normal;font-weight:normal;text-anchor:start;fill:#000000;font-family:Bitstream Vera Sans"
   x="273.18909"
   y="1217.7299"
   id="text3346"><tspan
     x="273.18909"
     y="1217.7299"
     id="tspan3348">ИнфоСофт</tspan></text>

<text
   style="font-size:22.45189285px;font-style:normal;font-weight:normal;text-anchor:start;fill:#000000;font-family:Bitstream Vera Sans"
   x="275.7821"
   y="1261.8112"
   id="text3350"><tspan
     x="275.7821"
     y="1261.8112"
     id="tspan3352">Инфофин</tspan></text>

<text
   style="font-size:22.45189285px;font-style:normal;font-weight:normal;text-anchor:start;fill:#000000;font-family:Bitstream Vera Sans"
   x="817.72253"
   y="1186.6135"
   id="text3354"><tspan
     x="817.72253"
     y="1186.6135"
     id="tspan3356">1С</tspan></text>

<g
   id="g3358"
   transform="matrix(1.2965083,0,0,1.2965083,137.56656,49.653602)"><polygon
     style="fill:#ffffff"
     points="587.02,811.84 587.02,791.84 567.02,791.84 567.02,811.84 557.02,811.84 577.02,831.84 597.02,811.84 "
     id="polygon3360" /><polygon
     style="fill:none;stroke:#000000;stroke-width:2"
     points="587.02,811.84 587.02,791.84 567.02,791.84 567.02,811.84 557.02,811.84 577.02,831.84 597.02,811.84 "
     id="polygon3362" /><polygon
     style="fill:none;stroke:#000000;stroke-width:2"
     points="587.02,811.84 587.02,791.84 567.02,791.84 567.02,811.84 557.02,811.84 577.02,831.84 597.02,811.84 "
     id="polygon3364" /></g><text
   style="font-size:22.45189285px;font-style:normal;font-weight:normal;text-anchor:start;fill:#000000;font-family:Bitstream Vera Sans"
   x="819.01904"
   y="1225.1199"
   id="text3366"><tspan
     x="819.01904"
     y="1225.1199"
     id="tspan3368">Галлактика</tspan></text>

<text
   style="font-size:22.45189285px;font-style:normal;font-weight:normal;text-anchor:start;fill:#000000;font-family:Bitstream Vera Sans"
   x="817.72253"
   y="1256.6252"
   id="text3370"><tspan
     x="817.72253"
     y="1256.6252"
     id="tspan3372">Парус</tspan></text>

<g
   id="g3374"
   transform="matrix(1.2965083,0,0,1.2965083,137.56656,49.653602)"><polygon
     style="fill:#ffffff"
     points="1053.02,807.84 1053.02,787.84 1033.02,787.84 1033.02,807.84 1023.02,807.84 1043.02,827.84 1063.02,807.84 "
     id="polygon3376" /><polygon
     style="fill:none;stroke:#000000;stroke-width:2"
     points="1053.02,807.84 1053.02,787.84 1033.02,787.84 1033.02,807.84 1023.02,807.84 1043.02,827.84 1063.02,807.84 "
     id="polygon3378" /><polygon
     style="fill:none;stroke:#000000;stroke-width:2"
     points="1053.02,807.84 1053.02,787.84 1033.02,787.84 1033.02,807.84 1023.02,807.84 1043.02,827.84 1063.02,807.84 "
     id="polygon3380" /></g><text
   style="font-size:22.45189285px;font-style:normal;font-weight:normal;text-anchor:start;fill:#000000;font-family:Bitstream Vera Sans"
   x="1442.6447"
   y="1173.6484"
   id="text3382"><tspan
     x="1442.6447"
     y="1173.6484"
     id="tspan3384">1С</tspan></text>

<g
   id="g3386"
   transform="matrix(1.2965083,0,0,1.2965083,137.56656,49.653602)"><ellipse
   style="fill:#ffffff"
   cx="1480.24"
   cy="465.384"
   rx="184.631"
   ry="61.543701"
   id="ellipse3388"
   sodipodi:cx="1480.24"
   sodipodi:cy="465.384"
   sodipodi:rx="184.631"
   sodipodi:ry="61.543701"
   d="m 1664.871,465.384 c 0,33.98965 -82.6621,61.5437 -184.631,61.5437 -101.9689,0 -184.631,-27.55405 -184.631,-61.5437 0,-33.98964 82.6621,-61.5437 184.631,-61.5437 101.9689,0 184.631,27.55406 184.631,61.5437 z" /><ellipse
   style="fill:none;stroke:#000000;stroke-width:2"
   cx="1480.24"
   cy="465.384"
   rx="184.631"
   ry="61.543701"
   id="ellipse3390"
   sodipodi:cx="1480.24"
   sodipodi:cy="465.384"
   sodipodi:rx="184.631"
   sodipodi:ry="61.543701"
   d="m 1664.871,465.384 c 0,33.98965 -82.6621,61.5437 -184.631,61.5437 -101.9689,0 -184.631,-27.55405 -184.631,-61.5437 0,-33.98964 82.6621,-61.5437 184.631,-61.5437 101.9689,0 184.631,27.55406 184.631,61.5437 z" /><text
   style="font-size:22.96159935px;font-style:normal;font-weight:normal;text-anchor:middle;fill:#000000;font-family:Bitstream Vera Sans"
   x="1480.24"
   y="458.03201"
   id="text3392"><tspan
     x="1480.24"
     y="458.03201"
     id="tspan3394">Управленческая</tspan><tspan
     x="1480.24"
     y="486.73401"
     id="tspan3396">система</tspan></text>

</g><g
   id="g3398"
   transform="matrix(1.2965083,0,0,1.2965083,137.56656,49.653602)"><polygon
     style="fill:#ffffff"
     points="1345.01,639.565 1327.51,639.565 1327.51,624.815 1345.01,624.815 1345.01,617.44 1362.51,632.19 1345.01,646.94 "
     id="polygon3400" /><polygon
     style="fill:none;stroke:#000000;stroke-width:2"
     points="1345.01,639.565 1327.51,639.565 1327.51,624.815 1345.01,624.815 1345.01,617.44 1362.51,632.19 1345.01,646.94 "
     id="polygon3402" /><polygon
     style="fill:none;stroke:#000000;stroke-width:2"
     points="1345.01,639.565 1327.51,639.565 1327.51,624.815 1345.01,624.815 1345.01,617.44 1362.51,632.19 1345.01,646.94 "
     id="polygon3404" /></g><text
   style="font-size:22.45189285px;font-style:normal;font-weight:normal;text-anchor:start;fill:#000000;font-family:Bitstream Vera Sans"
   x="1923.5197"
   y="859.89349"
   id="text3406"><tspan
     x="1923.5197"
     y="859.89349"
     id="tspan3408">Управленческий учет</tspan></text>

<g
   id="g3410"
   transform="matrix(1.2965083,0,0,1.2965083,137.56656,49.653602)"><polygon
     style="fill:#ffffff"
     points="1343.11,696.565 1325.61,696.565 1325.61,681.815 1343.11,681.815 1343.11,674.44 1360.61,689.19 1343.11,703.94 "
     id="polygon3412" /><polygon
     style="fill:none;stroke:#000000;stroke-width:2"
     points="1343.11,696.565 1325.61,696.565 1325.61,681.815 1343.11,681.815 1343.11,674.44 1360.61,689.19 1343.11,703.94 "
     id="polygon3414" /><polygon
     style="fill:none;stroke:#000000;stroke-width:2"
     points="1343.11,696.565 1325.61,696.565 1325.61,681.815 1343.11,681.815 1343.11,674.44 1360.61,689.19 1343.11,703.94 "
     id="polygon3416" /></g><text
   style="font-size:22.45189285px;font-style:normal;font-weight:normal;text-anchor:start;fill:#000000;font-family:Bitstream Vera Sans"
   x="1921.0565"
   y="937.68402"
   id="text3418"><tspan
     x="1921.0565"
     y="937.68402"
     id="tspan3420" /></text>

<text
   style="font-size:22.45189285px;font-style:normal;font-weight:normal;text-anchor:start;fill:#000000;font-family:Bitstream Vera Sans"
   x="1926.6571"
   y="940.85785"
   id="text3422"><tspan
     x="1926.6571"
     y="940.85785"
     id="tspan3424">Планирование и</tspan><tspan
     x="1926.6571"
     y="968.92212"
     id="tspan3426">управление</tspan></text>

<g
   id="g3428"
   transform="matrix(1.2965083,0,0,1.2965083,137.56656,49.653602)"><polygon
     style="fill:#ffffff"
     points="1343.11,760.115 1325.61,760.115 1325.61,745.365 1343.11,745.365 1343.11,737.99 1360.61,752.74 1343.11,767.49 "
     id="polygon3430" /><polygon
     style="fill:none;stroke:#000000;stroke-width:2"
     points="1343.11,760.115 1325.61,760.115 1325.61,745.365 1343.11,745.365 1343.11,737.99 1360.61,752.74 1343.11,767.49 "
     id="polygon3432" /><polygon
     style="fill:none;stroke:#000000;stroke-width:2"
     points="1343.11,760.115 1325.61,760.115 1325.61,745.365 1343.11,745.365 1343.11,737.99 1360.61,752.74 1343.11,767.49 "
     id="polygon3434" /></g><text
   style="font-size:22.45189285px;font-style:normal;font-weight:normal;text-anchor:start;fill:#000000;font-family:Bitstream Vera Sans"
   x="1926.6571"
   y="1033.6256"
   id="text3436"><tspan
     x="1926.6571"
     y="1033.6256"
     id="tspan3438">Открытость архитектуры</tspan></text>

<g
   id="g3440"
   transform="matrix(1.2965083,0,0,1.2965083,137.56656,49.653602)"><polygon
     style="fill:#ffffff"
     points="1425.02,805.84 1425.02,785.84 1405.02,785.84 1405.02,805.84 1395.02,805.84 1415.02,825.84 1435.02,805.84 "
     id="polygon3442" /><polygon
     style="fill:none;stroke:#000000;stroke-width:2"
     points="1425.02,805.84 1425.02,785.84 1405.02,785.84 1405.02,805.84 1395.02,805.84 1415.02,825.84 1435.02,805.84 "
     id="polygon3444" /><polygon
     style="fill:none;stroke:#000000;stroke-width:2"
     points="1425.02,805.84 1425.02,785.84 1405.02,785.84 1405.02,805.84 1395.02,805.84 1415.02,825.84 1435.02,805.84 "
     id="polygon3446" /></g><text
   style="font-size:22.45189285px;font-style:normal;font-weight:normal;text-anchor:start;fill:#000000;font-family:Bitstream Vera Sans"
   x="1924.9459"
   y="1171.0554"
   id="text3448"><tspan
     x="1924.9459"
     y="1171.0554"
     id="tspan3450">Новый Атлант</tspan></text>

<text
   style="font-size:22.45189285px;font-style:normal;font-weight:normal;text-anchor:start;fill:#000000;font-family:Bitstream Vera Sans"
   x="1932.725"
   y="1215.1367"
   id="text3452"><tspan
     x="1932.725"
     y="1215.1367"
     id="tspan3454">SAP</tspan></text>

<text
   style="font-size:22.45189285px;font-style:normal;font-weight:normal;text-anchor:start;fill:#000000;font-family:Bitstream Vera Sans"
   x="1927.5389"
   y="1254.0321"
   id="text3456"><tspan
     x="1927.5389"
     y="1254.0321"
     id="tspan3458">Oracle</tspan></text>

<g
   id="g3460"
   transform="matrix(1.2965083,0,0,1.2965083,137.56656,49.653602)"><rect
     style="fill:#ffffff"
     x="45.608002"
     y="90.639603"
     width="1566"
     height="148"
     id="rect3462" /><rect
     style="fill:none;stroke:#000000;stroke-width:2"
     x="45.608002"
     y="90.639603"
     width="1566"
     height="148"
     id="rect3464" /></g><text
   style="font-size:66.36022186px;font-style:normal;font-weight:normal;text-anchor:start;fill:#000000;font-family:Bitstream Vera Sans"
   x="747.71368"
   y="235.88403"
   id="text3466"><tspan
     x="747.71368"
     y="235.88403"
     id="tspan3468">Системы автоматизации</tspan></text>

<g
   id="g3470"
   transform="matrix(1.2965083,0,0,1.2965083,137.56656,49.653602)"><polygon
     style="fill:#ffffff"
     points="223.608,326.64 223.608,266.64 163.608,266.64 163.608,326.64 133.608,326.64 193.608,386.64 253.608,326.64 "
     id="polygon3472" /><polygon
     style="fill:none;stroke:#000000;stroke-width:2"
     points="223.608,326.64 223.608,266.64 163.608,266.64 163.608,326.64 133.608,326.64 193.608,386.64 253.608,326.64 "
     id="polygon3474" /><polygon
     style="fill:none;stroke:#000000;stroke-width:2"
     points="223.608,326.64 223.608,266.64 163.608,266.64 163.608,326.64 133.608,326.64 193.608,386.64 253.608,326.64 "
     id="polygon3476" /></g><g
   id="g3478"
   transform="matrix(1.2965083,0,0,1.2965083,137.56656,49.653602)"><polygon
     style="fill:#ffffff"
     points="645.022,327.84 645.022,267.84 585.022,267.84 585.022,327.84 555.022,327.84 615.022,387.84 675.022,327.84 "
     id="polygon3480" /><polygon
     style="fill:none;stroke:#000000;stroke-width:2"
     points="645.022,327.84 645.022,267.84 585.022,267.84 585.022,327.84 555.022,327.84 615.022,387.84 675.022,327.84 "
     id="polygon3482" /><polygon
     style="fill:none;stroke:#000000;stroke-width:2"
     points="645.022,327.84 645.022,267.84 585.022,267.84 585.022,327.84 555.022,327.84 615.022,387.84 675.022,327.84 "
     id="polygon3484" /></g><g
   id="g3486"
   transform="matrix(1.2965083,0,0,1.2965083,137.56656,49.653602)"><polygon
     style="fill:#ffffff"
     points="1087.02,327.84 1087.02,267.84 1027.02,267.84 1027.02,327.84 997.022,327.84 1057.02,387.84 1117.02,327.84 "
     id="polygon3488" /><polygon
     style="fill:none;stroke:#000000;stroke-width:2"
     points="1087.02,327.84 1087.02,267.84 1027.02,267.84 1027.02,327.84 997.022,327.84 1057.02,387.84 1117.02,327.84 "
     id="polygon3490" /><polygon
     style="fill:none;stroke:#000000;stroke-width:2"
     points="1087.02,327.84 1087.02,267.84 1027.02,267.84 1027.02,327.84 997.022,327.84 1057.02,387.84 1117.02,327.84 "
     id="polygon3492" /></g><g
   id="g3494"
   transform="matrix(1.2965083,0,0,1.2965083,137.56656,49.653602)"><polygon
     style="fill:#ffffff"
     points="1501.02,327.84 1501.02,267.84 1441.02,267.84 1441.02,327.84 1411.02,327.84 1471.02,387.84 1531.02,327.84 "
     id="polygon3496" /><polygon
     style="fill:none;stroke:#000000;stroke-width:2"
     points="1501.02,327.84 1501.02,267.84 1441.02,267.84 1441.02,327.84 1411.02,327.84 1471.02,387.84 1531.02,327.84 "
     id="polygon3498" /><polygon
     style="fill:none;stroke:#000000;stroke-width:2"
     points="1501.02,327.84 1501.02,267.84 1441.02,267.84 1441.02,327.84 1411.02,327.84 1471.02,387.84 1531.02,327.84 "
     id="polygon3500" /></g><text
   style="font-size:66.36022186px;font-style:normal;font-weight:normal;text-anchor:start;fill:#000000;font-family:Bitstream Vera Sans"
   x="883.24615"
   y="305.96094"
   id="text3502"><tspan
     x="883.24615"
     y="305.96094"
     id="tspan3504">налогового учёта</tspan></text>

</svg>