<?xml version="1.0" encoding="UTF-8" standalone="no"?>
<!-- Generated by Microsoft Visio 11.0, SVG Export, v1.0 struct scheme.svg !B@C:BC@=0O AE5<0 -->

<svg
   xmlns:v="http://schemas.microsoft.com/visio/2003/SVGExtensions/"
   xmlns:dc="http://purl.org/dc/elements/1.1/"
   xmlns:cc="http://creativecommons.org/ns#"
   xmlns:rdf="http://www.w3.org/1999/02/22-rdf-syntax-ns#"
   xmlns:svg="http://www.w3.org/2000/svg"
   xmlns="http://www.w3.org/2000/svg"
   xmlns:xlink="http://www.w3.org/1999/xlink"
   xmlns:sodipodi="http://sodipodi.sourceforge.net/DTD/sodipodi-0.dtd"
   xmlns:inkscape="http://www.inkscape.org/namespaces/inkscape"
   width="33.1102in"
   height="23.3858in"
   viewBox="0 0 2383.94 1683.78"
   xml:space="preserve"
   color-interpolation-filters="sRGB"
   class="st18"
   id="svg2"
   sodipodi:version="0.32"
   inkscape:version="0.47 r22583"
   sodipodi:docname="plakat-6-ramka.svg"
   inkscape:output_extension="org.inkscape.output.svg.inkscape"
   version="1.1"><metadata
   id="metadata643"><rdf:RDF><cc:Work
       rdf:about=""><dc:format>image/svg+xml</dc:format><dc:type
         rdf:resource="http://purl.org/dc/dcmitype/StillImage" /><dc:title /></cc:Work></rdf:RDF></metadata><sodipodi:namedview
   inkscape:window-height="835"
   inkscape:window-width="1383"
   inkscape:pageshadow="2"
   inkscape:pageopacity="0.0"
   guidetolerance="10.0"
   gridtolerance="10.0"
   objecttolerance="10.0"
   borderopacity="1.0"
   bordercolor="#666666"
   pagecolor="#ffffff"
   id="base"
   showgrid="false"
   inkscape:zoom="0.26291807"
   inkscape:cx="1840.4139"
   inkscape:cy="1000.4813"
   inkscape:window-x="131"
   inkscape:window-y="69"
   inkscape:current-layer="svg2"
   inkscape:window-maximized="0" />
	<v:documentProperties
   v:langID="1049"
   v:metric="true"
   v:viewMarkup="false" />

	<style
   type="text/css"
   id="style4">
	
		.st1 {fill:#ffffff;stroke:#000000;stroke-linecap:butt;stroke-width:2.16}
		.st2 {fill:#000000;font-family:Arial;font-size:2.50001em}
		.st3 {font-size:1em}
		.st4 {fill:none;stroke:#000000;stroke-linecap:butt;stroke-width:2.16}
		.st5 {stroke:#000000;stroke-linecap:butt;stroke-width:2.16}
		.st6 {stroke:#000000;stroke-linecap:round;stroke-linejoin:round;stroke-width:2.16}
		.st7 {stroke:#000000;stroke-linecap:round;stroke-linejoin:round;stroke-width:0.72}
		.st8 {fill:none;stroke:none;stroke-linecap:round;stroke-linejoin:round;stroke-width:0.72}
		.st9 {fill:#000000;font-family:Arial;font-size:0.833336em}
		.st10 {fill:#000000;font-family:Arial;font-size:0.75em}
		.st11 {fill:#000000;font-family:Arial;font-size:1.99999em}
		.st12 {fill:#000000;font-family:Arial;font-size:1.16666em}
		.st13 {fill:#000000;font-family:Arial;font-size:1.91666em}
		.st14 {marker-end:url(#mrkr12-192);marker-start:url(#mrkr12-190);stroke:#000000;stroke-linecap:round;stroke-linejoin:round;stroke-width:1.2}
		.st15 {fill:#000000;fill-opacity:1;stroke:#000000;stroke-opacity:1;stroke-width:0.32258064516129}
		.st16 {marker-end:url(#mrkr12-192);stroke:#000000;stroke-linecap:round;stroke-linejoin:round;stroke-width:1.2}
		.st17 {marker-start:url(#mrkr12-190);stroke:#000000;stroke-linecap:round;stroke-linejoin:round;stroke-width:1.2}
		.st18 {fill:none;fill-rule:evenodd;font-size:12;overflow:visible;stroke-linecap:square;stroke-miterlimit:3}
	
	</style>

	<defs
   id="Markers"><inkscape:perspective
   sodipodi:type="inkscape:persp3d"
   inkscape:vp_x="0 : 1052.361 : 1"
   inkscape:vp_y="0 : 1000 : 0"
   inkscape:vp_z="2979.918 : 1052.361 : 1"
   inkscape:persp3d-origin="1489.959 : 701.57397 : 1"
   id="perspective645" />
		<g
   id="lend12">
			<path
   d="M 3 1 L 0 0 L 3 -1 "
   style="stroke-linecap:round;stroke-linejoin:round;fill:none"
   id="path8" />
		</g>
		<marker
   id="mrkr12-190"
   class="st15"
   v:arrowType="12"
   v:arrowSize="2"
   orient="auto"
   markerUnits="strokeWidth">
			<use
   href="#lend12"
   transform="scale(3.1) "
   id="use11" />
		</marker>
		<marker
   id="mrkr12-192"
   class="st15"
   v:arrowType="12"
   v:arrowSize="2"
   orient="auto"
   markerUnits="strokeWidth">
			<use
   href="#lend12"
   transform="scale(-3.1,-3.1) "
   id="use14" />
		</marker>
	
		<title
   id="title18">Структурная схема</title>
		<v:pageProperties
   v:shadowOffsetY="-9"
   v:shadowOffsetX="9"
   v:drawingUnits="24"
   v:pageScale="0.0393701"
   v:drawingScale="0.0393701" />
		
		
		
		
		
		
		
		
		
		
		
		
		
		
		
		
		
		
		
		
		
		
		
		
		
		
		
		
		
		
		
		
		
		
		
		
		
		
		
		
		
		
		
		
		
		
		
		
		
		
		
		
		
		
		
		
		
		
		
		
		
		
		
		
		
		
		
		
		
		
		
		
		
		
		
		
		
		
		
		
		
		
		
	
			<title
   id="title399">Sheet.90</title>
			<desc
   id="desc401">Комплекс медицинской диагностики. Структурная схема</desc>
			<v:textBlock
   v:margins="rect(4,4,4,4)"
   v:tabSpace="42.5197" />
			<v:textRect
   cx="99.2126"
   cy="1648.35"
   width="198.43"
   height="70.8661" />
			
					
			<title
   id="title3391">Sheet.78</title>
			<desc
   id="desc3393">№ докум</desc>
			<v:textBlock
   v:margins="rect(0,0,0,0)"
   v:tabSpace="42.5197" />
			<v:textRect
   cx="33.3071"
   cy="1676.69"
   width="66.62"
   height="14.1732" />
			
					
			<title
   id="title3381">Sheet.78</title>
			<desc
   id="desc3383">№ докум</desc>
			<v:textBlock
   v:margins="rect(0,0,0,0)"
   v:tabSpace="42.5197" />
			<v:textRect
   cx="33.3071"
   cy="1676.69"
   width="66.62"
   height="14.1732" />
			
					
			<title
   id="title3401">Sheet.78</title>
			<desc
   id="desc3403">№ докум</desc>
			<v:textBlock
   v:margins="rect(0,0,0,0)"
   v:tabSpace="42.5197" />
			<v:textRect
   cx="33.3071"
   cy="1676.69"
   width="66.62"
   height="14.1732" />
			
					
			<title
   id="title421">Sheet.97</title>
			<desc
   id="desc423">ИИДП 8.70112.01</desc>
			<v:textBlock
   v:margins="rect(4,4,4,4)"
   v:tabSpace="42.5197" />
			<v:textRect
   cx="99.2126"
   cy="1662.52"
   width="198.43"
   height="42.5197" />
			
					<inkscape:perspective
   id="perspective3950"
   inkscape:persp3d-origin="531.49603 : 366.14172 : 1"
   inkscape:vp_z="1062.9921 : 549.21259 : 1"
   inkscape:vp_y="0 : 1000 : 0"
   inkscape:vp_x="0 : 549.21259 : 1"
   sodipodi:type="inkscape:persp3d" /><inkscape:perspective
   id="perspective4385"
   inkscape:persp3d-origin="283.46457 : 649.60628 : 1"
   inkscape:vp_z="566.92914 : 974.40942 : 1"
   inkscape:vp_y="0 : 1000 : 0"
   inkscape:vp_x="0 : 974.40942 : 1"
   sodipodi:type="inkscape:persp3d" /><inkscape:perspective
   id="perspective4768"
   inkscape:persp3d-origin="283.46457 : 484.25195 : 1"
   inkscape:vp_z="566.92914 : 726.37793 : 1"
   inkscape:vp_y="0 : 1000 : 0"
   inkscape:vp_x="0 : 726.37793 : 1"
   sodipodi:type="inkscape:persp3d" /><inkscape:perspective
   id="perspective5143"
   inkscape:persp3d-origin="407.48032 : 519.68506 : 1"
   inkscape:vp_z="814.96063 : 779.52759 : 1"
   inkscape:vp_y="0 : 1000 : 0"
   inkscape:vp_x="0 : 779.52759 : 1"
   sodipodi:type="inkscape:persp3d" /><inkscape:perspective
   id="perspective5540"
   inkscape:persp3d-origin="425.19684 : 661.41732 : 1"
   inkscape:vp_z="850.39368 : 992.12598 : 1"
   inkscape:vp_y="0 : 1000 : 0"
   inkscape:vp_x="0 : 992.12598 : 1"
   sodipodi:type="inkscape:persp3d" /><inkscape:perspective
   id="perspective5906"
   inkscape:persp3d-origin="354.33072 : 531.49605 : 1"
   inkscape:vp_z="708.66144 : 797.24408 : 1"
   inkscape:vp_y="0 : 1000 : 0"
   inkscape:vp_x="0 : 797.24408 : 1"
   sodipodi:type="inkscape:persp3d" /><inkscape:perspective
   id="perspective3523"
   inkscape:persp3d-origin="283.46457 : 649.60628 : 1"
   inkscape:vp_z="566.92914 : 974.40942 : 1"
   inkscape:vp_y="0 : 1000 : 0"
   inkscape:vp_x="0 : 974.40942 : 1"
   sodipodi:type="inkscape:persp3d" /><inkscape:perspective
   id="perspective3906"
   inkscape:persp3d-origin="283.46457 : 484.25195 : 1"
   inkscape:vp_z="566.92914 : 726.37793 : 1"
   inkscape:vp_y="0 : 1000 : 0"
   inkscape:vp_x="0 : 726.37793 : 1"
   sodipodi:type="inkscape:persp3d" /><inkscape:perspective
   id="perspective4281"
   inkscape:persp3d-origin="407.48032 : 519.68506 : 1"
   inkscape:vp_z="814.96063 : 779.52759 : 1"
   inkscape:vp_y="0 : 1000 : 0"
   inkscape:vp_x="0 : 779.52759 : 1"
   sodipodi:type="inkscape:persp3d" /><inkscape:perspective
   id="perspective4678"
   inkscape:persp3d-origin="425.19684 : 661.41732 : 1"
   inkscape:vp_z="850.39368 : 992.12598 : 1"
   inkscape:vp_y="0 : 1000 : 0"
   inkscape:vp_x="0 : 992.12598 : 1"
   sodipodi:type="inkscape:persp3d" /><inkscape:perspective
   id="perspective5044"
   inkscape:persp3d-origin="354.33072 : 531.49605 : 1"
   inkscape:vp_z="708.66144 : 797.24408 : 1"
   inkscape:vp_y="0 : 1000 : 0"
   inkscape:vp_x="0 : 797.24408 : 1"
   sodipodi:type="inkscape:persp3d" /><inkscape:perspective
   id="perspective3466"
   inkscape:persp3d-origin="248.03149 : 649.60628 : 1"
   inkscape:vp_z="496.06299 : 974.40942 : 1"
   inkscape:vp_y="0 : 1000 : 0"
   inkscape:vp_x="0 : 974.40942 : 1"
   sodipodi:type="inkscape:persp3d" /><inkscape:perspective
   id="perspective3788"
   inkscape:persp3d-origin="283.46457 : 484.25195 : 1"
   inkscape:vp_z="566.92914 : 726.37793 : 1"
   inkscape:vp_y="0 : 1000 : 0"
   inkscape:vp_x="0 : 726.37793 : 1"
   sodipodi:type="inkscape:persp3d" /><inkscape:perspective
   id="perspective4106"
   inkscape:persp3d-origin="442.91339 : 519.68506 : 1"
   inkscape:vp_z="885.82678 : 779.52759 : 1"
   inkscape:vp_y="0 : 1000 : 0"
   inkscape:vp_x="0 : 779.52759 : 1"
   sodipodi:type="inkscape:persp3d" /><inkscape:perspective
   id="perspective4440"
   inkscape:persp3d-origin="407.48032 : 661.41732 : 1"
   inkscape:vp_z="814.96063 : 992.12598 : 1"
   inkscape:vp_y="0 : 1000 : 0"
   inkscape:vp_x="0 : 992.12598 : 1"
   sodipodi:type="inkscape:persp3d" /><inkscape:perspective
   id="perspective4741"
   inkscape:persp3d-origin="336.61417 : 531.49605 : 1"
   inkscape:vp_z="673.22833 : 797.24408 : 1"
   inkscape:vp_y="0 : 1000 : 0"
   inkscape:vp_x="0 : 797.24408 : 1"
   sodipodi:type="inkscape:persp3d" /><inkscape:perspective
   id="perspective6912"
   inkscape:persp3d-origin="0.5 : 0.33333333 : 1"
   inkscape:vp_z="1 : 0.5 : 1"
   inkscape:vp_y="0 : 1000 : 0"
   inkscape:vp_x="0 : 0.5 : 1"
   sodipodi:type="inkscape:persp3d" /><inkscape:perspective
   id="perspective20209"
   inkscape:persp3d-origin="0.5 : 0.33333333 : 1"
   inkscape:vp_z="1 : 0.5 : 1"
   inkscape:vp_y="0 : 1000 : 0"
   inkscape:vp_x="0 : 0.5 : 1"
   sodipodi:type="inkscape:persp3d" /><inkscape:perspective
   id="perspective14701"
   inkscape:persp3d-origin="0.5 : 0.33333333 : 1"
   inkscape:vp_z="1 : 0.5 : 1"
   inkscape:vp_y="0 : 1000 : 0"
   inkscape:vp_x="0 : 0.5 : 1"
   sodipodi:type="inkscape:persp3d" /><inkscape:perspective
   id="perspective5159"
   inkscape:persp3d-origin="0.5 : 0.33333333 : 1"
   inkscape:vp_z="1 : 0.5 : 1"
   inkscape:vp_y="0 : 1000 : 0"
   inkscape:vp_x="0 : 0.5 : 1"
   sodipodi:type="inkscape:persp3d" /><inkscape:perspective
   id="perspective54485"
   inkscape:persp3d-origin="0.5 : 0.33333333 : 1"
   inkscape:vp_z="1 : 0.5 : 1"
   inkscape:vp_y="0 : 1000 : 0"
   inkscape:vp_x="0 : 0.5 : 1"
   sodipodi:type="inkscape:persp3d" /><inkscape:perspective
   id="perspective3260"
   inkscape:persp3d-origin="0.5 : 0.33333333 : 1"
   inkscape:vp_z="1 : 0.5 : 1"
   inkscape:vp_y="0 : 1000 : 0"
   inkscape:vp_x="0 : 0.5 : 1"
   sodipodi:type="inkscape:persp3d" /><inkscape:perspective
   id="perspective3260-3"
   inkscape:persp3d-origin="0.5 : 0.33333333 : 1"
   inkscape:vp_z="1 : 0.5 : 1"
   inkscape:vp_y="0 : 1000 : 0"
   inkscape:vp_x="0 : 0.5 : 1"
   sodipodi:type="inkscape:persp3d" /></defs>
	<g
   v:groupContext="group"
   v:mID="50"
   transform="translate(59.5276,-14.1732)"
   id="group50-74">
			<title
   id="title215">Sheet.50</title>
			<g
   v:groupContext="shape"
   v:mID="1"
   id="shape1-75">
				<title
   id="title218">Box</title>
				<rect
   style="fill:none;stroke:#000000;stroke-width:2.16000009;stroke-linecap:butt"
   id="rect220"
   class="st4"
   height="1651.75"
   width="2310.24"
   y="32.031502"
   x="0" />
			</g>
			
			
		</g>







































































































<text
   style="font-size:48.26989365px;font-style:normal;font-weight:normal;text-anchor:start;fill:#000000;font-family:sanserif"
   x="1916.417"
   y="-683.95459"
   id="text4639"><tspan
     x="1916.417"
     y="-683.95459"
     id="tspan4641" /></text>






<text
   style="font-size:48.26989365px;font-style:normal;font-weight:normal;text-anchor:start;fill:#000000;font-family:sanserif"
   x="1916.417"
   y="-683.95459"
   id="text4643"><tspan
     x="1916.417"
     y="-683.95459"
     id="tspan4645" /></text>

































<text
   style="font-size:16.3851223px;font-style:normal;font-weight:normal;text-anchor:start;fill:#000000;font-family:sanserif"
   x="745.37079"
   y="508.50134"
   id="text11981"><tspan
     x="745.37079"
     y="508.50134"
     id="tspan11983" /></text>




<text
   style="font-size:16.3851223px;font-style:normal;font-weight:normal;text-anchor:start;fill:#000000;font-family:sanserif"
   x="1097.2721"
   y="817.89337"
   id="text12093"><tspan
     x="1097.2721"
     y="817.89337"
     id="tspan12095" /></text>









































<rect
   style="fill:none;stroke:#000000;stroke-width:2.15565801;stroke-dasharray:21.5565809"
   x="320.55743"
   y="87.445564"
   width="823.46143"
   height="860.1076"
   id="rect10451" /><g
   id="g10453"
   transform="matrix(1.077829,0,0,1.077829,795.87782,264.20952)"><polygon
   style="fill:#ffffff"
   points="23.5,-149.2 267,-149.2 267,192 257,202 13.5,202 13.5,-139.2 13.5,-139.2 "
   id="polygon10455" /><polygon
   style="fill:none;stroke:#000000;stroke-width:2"
   points="23.5,-149.2 267,-149.2 267,192 257,202 13.5,202 13.5,-139.2 13.5,-139.2 "
   id="polygon10457" /><line
   style="fill:none;stroke:#000000;stroke-width:2"
   x1="13.5"
   y1="-139.2"
   x2="257"
   y2="-139.2"
   id="line10459" /><line
   style="fill:none;stroke:#000000;stroke-width:2"
   x1="257"
   y1="-139.2"
   x2="267"
   y2="-149.2"
   id="line10461" /><line
   style="fill:none;stroke:#000000;stroke-width:2"
   x1="257"
   y1="-139.2"
   x2="257"
   y2="202"
   id="line10463" /><text
   style="font-size:12.80000019px;font-style:normal;font-weight:normal;text-anchor:start;fill:#000000;font-family:sanserif"
   x="23.5"
   y="-117.3"
   id="text10465"><tspan
     x="23.5"
     y="-117.3"
     id="tspan10467">:Рабочая станция пользователя</tspan></text>

<line
   style="fill:none;stroke:#000000;stroke-width:1"
   x1="23.5"
   y1="-114.25"
   x2="238.95"
   y2="-114.25"
   id="line10469" /></g><g
   id="g10471"
   transform="matrix(1.077829,0,0,1.077829,795.87782,264.20952)"><rect
     style="fill:#ffffff"
     x="31"
     y="-102"
     width="189"
     height="288"
     id="rect10473" /><rect
     style="fill:none;stroke:#000000;stroke-width:2"
     x="31"
     y="-102"
     width="189"
     height="288"
     id="rect10475" /></g><image
   x="844.38019"
   y="183.37234"
   width="154.10153"
   height="269.45724"
   xlink:href="file:///home/whiter4bbit/documents/tex/diploma/plakat/src/png/reports_selection.png"
   id="image10477" /><text
   style="font-size:13.7962122px;font-style:normal;font-weight:normal;text-anchor:start;fill:#000000;font-family:sanserif"
   x="844.38019"
   y="170.4384"
   id="text10479"><tspan
     x="844.38019"
     y="170.4384"
     id="tspan10481">Web-Браузер</tspan></text>

<g
   id="g10483"
   transform="matrix(1.077829,0,0,1.077829,795.87782,264.20952)"><polygon
   style="fill:#ffffff"
   points="500.2,-62 1000,-62 1000,896 990,906 490.2,906 490.2,-52 490.2,-52 "
   id="polygon10485" /><polygon
   style="fill:none;stroke:#000000;stroke-width:2"
   points="500.2,-62 1000,-62 1000,896 990,906 490.2,906 490.2,-52 490.2,-52 "
   id="polygon10487" /><line
   style="fill:none;stroke:#000000;stroke-width:2"
   x1="490.20001"
   y1="-52"
   x2="990"
   y2="-52"
   id="line10489" /><line
   style="fill:none;stroke:#000000;stroke-width:2"
   x1="990"
   y1="-52"
   x2="1000"
   y2="-62"
   id="line10491" /><line
   style="fill:none;stroke:#000000;stroke-width:2"
   x1="990"
   y1="-52"
   x2="990"
   y2="906"
   id="line10493" /><text
   style="font-size:12.80000019px;font-style:normal;font-weight:normal;text-anchor:start;fill:#000000;font-family:sanserif"
   x="500.20001"
   y="-30.1"
   id="text10495"><tspan
     x="500.20001"
     y="-30.1"
     id="tspan10497">:Сервер приложений</tspan></text>

<line
   style="fill:none;stroke:#000000;stroke-width:1"
   x1="500.20001"
   y1="-27.049999"
   x2="642.40002"
   y2="-27.049999"
   id="line10499" /></g><g
   id="g10501"
   transform="matrix(1.077829,0,0,1.077829,795.87782,264.20952)"><rect
   style="fill:#ffffff"
   x="540"
   y="17.799999"
   width="395"
   height="28"
   id="rect10503" /><rect
   style="fill:none;stroke:#000000;stroke-width:2"
   x="540"
   y="17.799999"
   width="395"
   height="28"
   id="rect10505" /><text
   style="font-size:16px;font-style:normal;font-weight:700;text-anchor:middle;fill:#000000;font-family:sanserif"
   x="737.5"
   y="36.799999"
   id="text10507">ReportController</text>

<rect
   style="fill:#ffffff"
   x="540"
   y="45.799999"
   width="395"
   height="8"
   id="rect10509" /><rect
   style="fill:none;stroke:#000000;stroke-width:2"
   x="540"
   y="45.799999"
   width="395"
   height="8"
   id="rect10511" /><rect
   style="fill:#ffffff"
   x="540"
   y="53.799999"
   width="395"
   height="20"
   id="rect10513" /><rect
   style="fill:none;stroke:#000000;stroke-width:2"
   x="540"
   y="53.799999"
   width="395"
   height="20"
   id="rect10515" /><text
   style="font-size:12.80000019px;font-style:normal;font-weight:normal;text-anchor:start;fill:#000000;font-family:monospace"
   x="543"
   y="67.800003"
   id="text10517">+showReport(reportType:Long,taxKitId:Long): String</text>

</g><g
   id="g10519"
   transform="matrix(1.077829,0,0,1.077829,795.87782,264.20952)"><line
     style="fill:none;stroke:#000000;stroke-width:2"
     x1="257"
     y1="31.4"
     x2="530.26398"
     y2="31.7862"
     id="line10521" /><polygon
     style="fill:#000000"
     points="527.771,26.7827 537.764,31.7968 527.757,36.7827 530.264,31.7862 "
     id="polygon10523" /><polygon
     style="fill:none;stroke:#000000;stroke-width:2"
     points="527.771,26.7827 537.764,31.7968 527.757,36.7827 530.264,31.7862 "
     id="polygon10525" /></g><g
   id="g10527"
   transform="matrix(1.077829,0,0,1.077829,795.87782,264.20952)"><rect
   style="fill:#ffffff"
   x="530"
   y="176"
   width="210.2"
   height="28"
   id="rect10529" /><rect
   style="fill:none;stroke:#000000;stroke-width:2"
   x="530"
   y="176"
   width="210.2"
   height="28"
   id="rect10531" /><text
   style="font-size:16px;font-style:normal;font-weight:700;text-anchor:middle;fill:#000000;font-family:sanserif"
   x="635.09998"
   y="195"
   id="text10533">ReportLoader</text>

<rect
   style="fill:#ffffff"
   x="530"
   y="204"
   width="210.2"
   height="8"
   id="rect10535" /><rect
   style="fill:none;stroke:#000000;stroke-width:2"
   x="530"
   y="204"
   width="210.2"
   height="8"
   id="rect10537" /><rect
   style="fill:#ffffff"
   x="530"
   y="212"
   width="210.2"
   height="20"
   id="rect10539" /><rect
   style="fill:none;stroke:#000000;stroke-width:2"
   x="530"
   y="212"
   width="210.2"
   height="20"
   id="rect10541" /><text
   style="font-size:12.80000019px;font-style:normal;font-weight:normal;text-anchor:start;fill:#000000;font-family:monospace"
   x="533"
   y="226"
   id="text10543">+load(name:String): Report</text>

</g><g
   id="g10545"
   transform="matrix(1.077829,0,0,1.077829,795.87782,264.20952)"><polyline
   style="fill:none;stroke:#000000;stroke-width:2;stroke-dasharray:8"
   points="737.5,73.8 737.5,124.9 635.1,124.9 635.1,169.295 "
   id="polyline10547" /><polyline
   style="fill:none;stroke:#000000;stroke-width:2"
   points="630.1,156.647 635.1,172.647 640.1,156.647 "
   id="polyline10549" /><text
   style="font-size:12.79979992px;font-style:normal;font-weight:normal;text-anchor:middle;fill:#000000;font-family:monospace"
   x="686.29999"
   y="120.9"
   id="text10551">&lt;&lt;использует&gt;&gt;</text>

</g><g
   id="g10553"
   transform="matrix(1.077829,0,0,1.077829,795.87782,264.20952)"><rect
   style="fill:#ffffff"
   x="660"
   y="267"
   width="310.29999"
   height="28"
   id="rect10555" /><rect
   style="fill:none;stroke:#000000;stroke-width:2"
   x="660"
   y="267"
   width="310.29999"
   height="28"
   id="rect10557" /><text
   style="font-size:16px;font-style:normal;font-weight:700;text-anchor:middle;fill:#000000;font-family:sanserif"
   x="815.15002"
   y="286"
   id="text10559">ReportViewResolver</text>

<rect
   style="fill:#ffffff"
   x="660"
   y="295"
   width="310.29999"
   height="8"
   id="rect10561" /><rect
   style="fill:none;stroke:#000000;stroke-width:2"
   x="660"
   y="295"
   width="310.29999"
   height="8"
   id="rect10563" /><rect
   style="fill:#ffffff"
   x="660"
   y="303"
   width="310.29999"
   height="20"
   id="rect10565" /><rect
   style="fill:none;stroke:#000000;stroke-width:2"
   x="660"
   y="303"
   width="310.29999"
   height="20"
   id="rect10567" /><text
   style="font-size:12.80000019px;font-style:normal;font-weight:normal;text-anchor:start;fill:#000000;font-family:monospace"
   x="663"
   y="317"
   id="text10569">+resolve(reportName:String): ReportView</text>

</g><g
   id="g10571"
   transform="matrix(1.077829,0,0,1.077829,795.87782,264.20952)"><polyline
   style="fill:none;stroke:#000000;stroke-width:2;stroke-dasharray:8"
   points="935,63.8 955,63.8 955,165.4 815.15,165.4 815.15,260.295 "
   id="polyline10573" /><polyline
   style="fill:none;stroke:#000000;stroke-width:2"
   points="810.15,247.647 815.15,263.647 820.15,247.647 "
   id="polyline10575" /><text
   style="font-size:12.79979992px;font-style:normal;font-weight:normal;text-anchor:middle;fill:#000000;font-family:monospace"
   x="885.07501"
   y="161.39999"
   id="text10577">&lt;&lt;использует&gt;&gt;</text>

</g><g
   id="g10579"
   transform="matrix(1.077829,0,0,1.077829,795.87782,264.20952)"><path
   style="fill:#ffffff"
   d="m 540.676,392.2 124.65,0 0,64.8 c -24.93,-10.8 -37.395,-10.8 -62.325,0 -24.93,10.8 -37.395,10.8 -62.325,0 l 0,-64.8 z"
   id="path10581" /><path
   style="fill:none;stroke:#000000;stroke-width:2"
   d="m 540.676,392.2 124.65,0 0,64.8 c -24.93,-10.8 -37.395,-10.8 -62.325,0 -24.93,10.8 -37.395,10.8 -62.325,0 l 0,-64.8"
   id="path10583" /><text
   style="font-size:12.80000019px;font-style:normal;font-weight:normal;text-anchor:middle;fill:#000000;font-family:sanserif"
   x="603.00098"
   y="407.20001"
   id="text10585"><tspan
     x="603.00098"
     y="407.20001"
     id="tspan10587">XML Документ</tspan><tspan
     x="603.00098"
     y="423.20001"
     id="tspan10589">(структура</tspan><tspan
     x="603.00098"
     y="439.20001"
     id="tspan10591">декларации)</tspan></text>

</g><g
   id="g10593"
   transform="matrix(1.077829,0,0,1.077829,795.87782,264.20952)"><path
   style="fill:#ffffff"
   d="m 753.2,393.8 124.65,0 0,64.8 c -24.93,-10.8 -37.395,-10.8 -62.325,0 -24.93,10.8 -37.395,10.8 -62.325,0 l 0,-64.8 z"
   id="path10595" /><path
   style="fill:none;stroke:#000000;stroke-width:2"
   d="m 753.2,393.8 124.65,0 0,64.8 c -24.93,-10.8 -37.395,-10.8 -62.325,0 -24.93,10.8 -37.395,10.8 -62.325,0 l 0,-64.8"
   id="path10597" /><text
   style="font-size:12.80000019px;font-style:normal;font-weight:normal;text-anchor:middle;fill:#000000;font-family:sanserif"
   x="815.52502"
   y="408.79999"
   id="text10599"><tspan
     x="815.52502"
     y="408.79999"
     id="tspan10601">XSLT Документ</tspan><tspan
     x="815.52502"
     y="424.79999"
     id="tspan10603">(внешний</tspan><tspan
     x="815.52502"
     y="440.79999"
     id="tspan10605">вид декларации)</tspan></text>

</g><g
   id="g10607"
   transform="matrix(1.077829,0,0,1.077829,795.87782,264.20952)"><polyline
     style="fill:none;stroke:#000000;stroke-width:2;stroke-dasharray:8"
     points="815.15,323 815.15,358.4 815.525,358.4 815.525,387.095 "
     id="polyline10609" /><polyline
     style="fill:none;stroke:#000000;stroke-width:2"
     points="810.525,374.447 815.525,390.447 820.525,374.447 "
     id="polyline10611" /></g><g
   id="g10613"
   transform="matrix(1.077829,0,0,1.077829,795.87782,264.20952)"><polygon
   style="fill:#ffffff"
   points="-373.598,221.6 281.002,221.6 281.002,601 271.002,611 -383.598,611 -383.598,231.6 -383.598,231.6 "
   id="polygon10615" /><polygon
   style="fill:none;stroke:#000000;stroke-width:2"
   points="-373.598,221.6 281.002,221.6 281.002,601 271.002,611 -383.598,611 -383.598,231.6 -383.598,231.6 "
   id="polygon10617" /><line
   style="fill:none;stroke:#000000;stroke-width:2"
   x1="-383.59799"
   y1="231.60001"
   x2="271.00201"
   y2="231.60001"
   id="line10619" /><line
   style="fill:none;stroke:#000000;stroke-width:2"
   x1="271.00201"
   y1="231.60001"
   x2="281.00201"
   y2="221.60001"
   id="line10621" /><line
   style="fill:none;stroke:#000000;stroke-width:2"
   x1="271.00201"
   y1="231.60001"
   x2="271.00201"
   y2="611"
   id="line10623" /><text
   style="font-size:12.80000019px;font-style:normal;font-weight:normal;text-anchor:start;fill:#000000;font-family:sanserif"
   x="-373.59799"
   y="253.5"
   id="text10625"><tspan
     x="-373.59799"
     y="253.5"
     id="tspan10627">:Рабочая станция пользователя</tspan></text>

<line
   style="fill:none;stroke:#000000;stroke-width:1"
   x1="-373.59799"
   y1="256.54999"
   x2="-158.14799"
   y2="256.54999"
   id="line10629" /></g><g
   id="g10631"
   transform="matrix(1.077829,0,0,1.077829,795.87782,264.20952)"><rect
     style="fill:#ffffff"
     x="-366.09799"
     y="268.79999"
     width="607.09998"
     height="314.20001"
     id="rect10633" /><rect
     style="fill:none;stroke:#000000;stroke-width:2"
     x="-366.09799"
     y="268.79999"
     width="607.09998"
     height="314.20001"
     id="rect10635" /></g><text
   style="font-size:13.7962122px;font-style:normal;font-weight:normal;text-anchor:start;fill:#000000;font-family:sanserif"
   x="416.3764"
   y="570.09741"
   id="text10637"><tspan
     x="416.3764"
     y="570.09741"
     id="tspan10639">Web-Браузер</tspan></text>

<image
   x="419.71768"
   y="582.16913"
   width="605.73993"
   height="289.82819"
   xlink:href="file:///home/whiter4bbit/documents/tex/diploma/plakat/src/png/show_report_blank.png"
   id="image10641" /><g
   id="g10643"
   transform="matrix(1.077829,0,0,1.077829,795.87782,264.20952)"><line
     style="fill:none;stroke:#000000;stroke-width:2"
     x1="483.00201"
     y1="421"
     x2="280.73801"
     y2="421.28601"
     id="line10645" /><polygon
     style="fill:#000000"
     points="283.245,426.283 273.238,421.297 283.231,416.283 280.738,421.286 "
     id="polygon10647" /><polygon
     style="fill:none;stroke:#000000;stroke-width:2"
     points="283.245,426.283 273.238,421.297 283.231,416.283 280.738,421.286 "
     id="polygon10649" /></g><rect
   style="fill:none;stroke:#000000;stroke-width:2.15565801;stroke-dasharray:21.5565809"
   x="1353.1176"
   y="652.22797"
   width="491.49002"
   height="135.80646"
   id="rect10651" /><g
   id="g10653"
   transform="matrix(1.077829,0,0,1.077829,795.87782,264.20952)"><rect
   style="fill:#ffffff"
   x="536.40198"
   y="650.59998"
   width="402.70001"
   height="28"
   id="rect10655" /><rect
   style="fill:none;stroke:#000000;stroke-width:2"
   x="536.40198"
   y="650.59998"
   width="402.70001"
   height="28"
   id="rect10657" /><text
   style="font-size:16px;font-style:normal;font-weight:700;text-anchor:middle;fill:#000000;font-family:sanserif"
   x="737.75201"
   y="669.59998"
   id="text10659">ReportStateController</text>

<rect
   style="fill:#ffffff"
   x="536.40198"
   y="678.59998"
   width="402.70001"
   height="8"
   id="rect10661" /><rect
   style="fill:none;stroke:#000000;stroke-width:2"
   x="536.40198"
   y="678.59998"
   width="402.70001"
   height="8"
   id="rect10663" /><rect
   style="fill:#ffffff"
   x="536.40198"
   y="686.59998"
   width="402.70001"
   height="20"
   id="rect10665" /><rect
   style="fill:none;stroke:#000000;stroke-width:2"
   x="536.40198"
   y="686.59998"
   width="402.70001"
   height="20"
   id="rect10667" /><text
   style="font-size:12.80000019px;font-style:normal;font-weight:normal;text-anchor:start;fill:#000000;font-family:monospace"
   x="539.40198"
   y="700.59998"
   id="text10669">+states(reportType:Long,taxKitId:Long): ReportState</text>

</g><g
   id="g10671"
   transform="matrix(1.077829,0,0,1.077829,795.87782,264.20952)"><polyline
     style="fill:none;stroke:#000000;stroke-width:2"
     points="-56.298,611 -56.298,664.6 526.666,664.6 "
     id="polyline10673" /><polygon
     style="fill:#000000"
     points="524.166,659.6 534.166,664.6 524.166,669.6 526.666,664.6 "
     id="polygon10675" /><polygon
     style="fill:none;stroke:#000000;stroke-width:2"
     points="524.166,659.6 534.166,664.6 524.166,669.6 526.666,664.6 "
     id="polygon10677" /></g><g
   id="g10679"
   transform="matrix(1.077829,0,0,1.077829,795.87782,264.20952)"><polygon
   style="fill:#ffffff"
   points="1191,668 1401,668 1401,904 1391,914 1181,914 1181,678 1181,678 "
   id="polygon10681" /><polygon
   style="fill:none;stroke:#000000;stroke-width:2"
   points="1191,668 1401,668 1401,904 1391,914 1181,914 1181,678 1181,678 "
   id="polygon10683" /><line
   style="fill:none;stroke:#000000;stroke-width:2"
   x1="1181"
   y1="678"
   x2="1391"
   y2="678"
   id="line10685" /><line
   style="fill:none;stroke:#000000;stroke-width:2"
   x1="1391"
   y1="678"
   x2="1401"
   y2="668"
   id="line10687" /><line
   style="fill:none;stroke:#000000;stroke-width:2"
   x1="1391"
   y1="678"
   x2="1391"
   y2="914"
   id="line10689" /><text
   style="font-size:12.80000019px;font-style:normal;font-weight:normal;text-anchor:start;fill:#000000;font-family:sanserif"
   x="1191"
   y="699.90002"
   id="text10691"><tspan
     x="1191"
     y="699.90002"
     id="tspan10693">:СУБД</tspan></text>

<line
   style="fill:none;stroke:#000000;stroke-width:1"
   x1="1191"
   y1="702.95001"
   x2="1230.85"
   y2="702.95001"
   id="line10695" /></g><line
   style="fill:none;stroke:#000000;stroke-width:2.15565801"
   x1="2120.1741"
   y1="1206.6373"
   x2="2119.8831"
   y2="1057.5305"
   id="line10697" /><path
   style="fill:none;stroke:#000000;stroke-width:2.15565801"
   d="m 2120.8747,1056.1229 a 147.53971,147.53971 0 0 0 131.5275,-1.4055"
   id="path10699" /><path
   style="fill:none;stroke:#000000;stroke-width:2.15565801"
   d="m 2252.4022,1052.607 a 171.88355,171.88355 0 0 0 -131.5275,2.8131"
   id="path10701" /><line
   style="fill:none;stroke:#000000;stroke-width:2.15565801"
   x1="2253.1025"
   y1="1205.2321"
   x2="2253.1025"
   y2="1053.3098"
   id="line10703" /><text
   style="font-size:13.7962122px;font-style:normal;font-weight:normal;text-anchor:start;fill:#000000;font-family:sanserif"
   x="2120.0339"
   y="1132.084"
   id="text10705"><tspan
     x="2120.0339"
     y="1132.084"
     id="tspan10707">СУБД</tspan><tspan
     x="2120.0339"
     y="1149.3292"
     id="tspan10709">&lt;&lt;хранилище&gt;&gt;</tspan></text>

<path
   style="fill:none;stroke:#000000;stroke-width:2.15565801"
   d="m 2121.1225,1206.4606 a 147.5354,147.5354 0 0 0 131.5275,-1.4055"
   id="path10711" /><g
   id="g10713"
   transform="matrix(1.077829,0,0,1.077829,795.87782,264.20952)"><rect
   style="fill:#ffffff"
   x="505.00201"
   y="782"
   width="472"
   height="28"
   id="rect10715" /><rect
   style="fill:none;stroke:#000000;stroke-width:2"
   x="505.00201"
   y="782"
   width="472"
   height="28"
   id="rect10717" /><text
   style="font-size:16px;font-style:normal;font-weight:700;text-anchor:middle;fill:#000000;font-family:sanserif"
   x="741.00201"
   y="801"
   id="text10719">ReportStateService</text>

<rect
   style="fill:#ffffff"
   x="505.00201"
   y="810"
   width="472"
   height="8"
   id="rect10721" /><rect
   style="fill:none;stroke:#000000;stroke-width:2"
   x="505.00201"
   y="810"
   width="472"
   height="8"
   id="rect10723" /><rect
   style="fill:#ffffff"
   x="505.00201"
   y="818"
   width="472"
   height="20"
   id="rect10725" /><rect
   style="fill:none;stroke:#000000;stroke-width:2"
   x="505.00201"
   y="818"
   width="472"
   height="20"
   id="rect10727" /><text
   style="font-size:12.80000019px;font-style:normal;font-weight:normal;text-anchor:start;fill:#000000;font-family:monospace"
   x="508.00201"
   y="832"
   id="text10729">+loadReportState(reportType:Long,taxKitId:Long): ReportState</text>

</g><g
   id="g10731"
   transform="matrix(1.077829,0,0,1.077829,795.87782,264.20952)"><polyline
     style="fill:none;stroke:#000000;stroke-width:2;stroke-dasharray:8"
     points="737.752,706.6 737.752,744.3 741.002,744.3 741.002,775.295 "
     id="polyline10733" /><polyline
     style="fill:none;stroke:#000000;stroke-width:2"
     points="736.002,762.647 741.002,778.647 746.002,762.647 "
     id="polyline10735" /></g><g
   id="g10737"
   transform="matrix(1.077829,0,0,1.077829,795.87782,264.20952)"><polyline
     style="fill:none;stroke:#000000;stroke-width:2"
     points="977.002,796 977.002,796 1171.27,796 "
     id="polyline10739" /><polygon
     style="fill:#000000"
     points="1168.77,791 1178.77,796 1168.77,801 1171.27,796 "
     id="polygon10741" /><polygon
     style="fill:none;stroke:#000000;stroke-width:2"
     points="1168.77,791 1178.77,796 1168.77,801 1171.27,796 "
     id="polygon10743" /></g><g
   id="g10745"
   transform="matrix(1.077829,0,0,1.077829,795.87782,264.20952)"><polygon
   style="fill:#ffffff"
   points="-389.598,688.6 265.002,688.6 265.002,1068 255.002,1078 -399.598,1078 -399.598,698.6 -399.598,698.6 "
   id="polygon10747" /><polygon
   style="fill:none;stroke:#000000;stroke-width:2"
   points="-389.598,688.6 265.002,688.6 265.002,1068 255.002,1078 -399.598,1078 -399.598,698.6 -399.598,698.6 "
   id="polygon10749" /><line
   style="fill:none;stroke:#000000;stroke-width:2"
   x1="-399.59799"
   y1="698.59998"
   x2="255.002"
   y2="698.59998"
   id="line10751" /><line
   style="fill:none;stroke:#000000;stroke-width:2"
   x1="255.002"
   y1="698.59998"
   x2="265.00201"
   y2="688.59998"
   id="line10753" /><line
   style="fill:none;stroke:#000000;stroke-width:2"
   x1="255.002"
   y1="698.59998"
   x2="255.002"
   y2="1078"
   id="line10755" /><text
   style="font-size:12.80000019px;font-style:normal;font-weight:normal;text-anchor:start;fill:#000000;font-family:sanserif"
   x="-389.59799"
   y="720.5"
   id="text10757"><tspan
     x="-389.59799"
     y="720.5"
     id="tspan10759">:Рабочая станция пользователя</tspan></text>

<line
   style="fill:none;stroke:#000000;stroke-width:1"
   x1="-389.59799"
   y1="723.54999"
   x2="-174.14799"
   y2="723.54999"
   id="line10761" /></g><g
   id="g10763"
   transform="matrix(1.077829,0,0,1.077829,795.87782,264.20952)"><rect
     style="fill:#ffffff"
     x="-382.09799"
     y="735.79999"
     width="607.09998"
     height="314.20001"
     id="rect10765" /><rect
     style="fill:none;stroke:#000000;stroke-width:2"
     x="-382.09799"
     y="735.79999"
     width="607.09998"
     height="314.20001"
     id="rect10767" /></g><text
   style="font-size:13.7962122px;font-style:normal;font-weight:normal;text-anchor:start;fill:#000000;font-family:sanserif"
   x="399.13116"
   y="1073.4436"
   id="text10769"><tspan
     x="399.13116"
     y="1073.4436"
     id="tspan10771">Web-Браузер</tspan></text>

<image
   x="402.47241"
   y="1084.4374"
   width="625.14081"
   height="299.1105"
   xlink:href="file:///home/whiter4bbit/documents/tex/diploma/plakat/src/png/show_report.png"
   id="image10773" /><g
   id="g10775"
   transform="matrix(1.077829,0,0,1.077829,795.87782,264.20952)"><polyline
     style="fill:none;stroke:#000000;stroke-width:2"
     points="487.002,829 371.002,829 371.002,888.3 264.738,888.3 "
     id="polyline10777" /><polygon
     style="fill:#000000"
     points="267.238,893.3 257.238,888.3 267.238,883.3 264.738,888.3 "
     id="polygon10779" /><polygon
     style="fill:none;stroke:#000000;stroke-width:2"
     points="267.238,893.3 257.238,888.3 267.238,883.3 264.738,888.3 "
     id="polygon10781" /></g><rect
   style="fill:none;stroke:#000000;stroke-width:2.15565801;stroke-dasharray:21.5565809"
   x="323.39203"
   y="968.03198"
   width="818.47095"
   height="474.24478"
   id="rect10783" /><g
   id="g10785"
   transform="matrix(1.077829,0,0,1.077829,795.87782,264.20952)"><polygon
   style="fill:#ffffff"
   points="-500.396,-29 -488.396,-17 -488.396,37 -644.996,37 -644.996,-29 "
   id="polygon10787" /><polygon
   style="fill:none;stroke:#000000;stroke-width:2"
   points="-500.396,-29 -488.396,-17 -488.396,37 -644.996,37 -644.996,-29 "
   id="polygon10789" /><polyline
   style="fill:none;stroke:#000000;stroke-width:1"
   points="-500.396,-29 -500.396,-17 -488.396,-17 "
   id="polyline10791" /><text
   style="font-size:12.80000019px;font-style:normal;font-weight:normal;text-anchor:start;fill:#000000;font-family:monospace"
   x="-637.99597"
   y="-4.0999999"
   id="text10793"><tspan
     x="-637.99597"
     y="-4.0999999"
     id="tspan10795">Открытие декларции</tspan><tspan
     x="-637.99597"
     y="11.9"
     id="tspan10797">(синхронный HTTP</tspan><tspan
     x="-637.99597"
     y="27.9"
     id="tspan10799">запрос)</tspan></text>

</g><g
   id="g10801"
   transform="matrix(1.077829,0,0,1.077829,795.87782,264.20952)"><polygon
   style="fill:#ffffff"
   points="-647.596,778.6 -495.296,778.6 -483.296,790.6 -483.296,860.6 -647.596,860.6 "
   id="polygon10803" /><polygon
   style="fill:none;stroke:#000000;stroke-width:2"
   points="-647.596,778.6 -495.296,778.6 -483.296,790.6 -483.296,860.6 -647.596,860.6 "
   id="polygon10805" /><polyline
   style="fill:none;stroke:#000000;stroke-width:1"
   points="-495.296,778.6 -495.296,790.6 -483.296,790.6 "
   id="polyline10807" /><text
   style="font-size:12.80000019px;font-style:normal;font-weight:normal;text-anchor:start;fill:#000000;font-family:monospace"
   x="-640.59601"
   y="803.5"
   id="text10809"><tspan
     x="-640.59601"
     y="803.5"
     id="tspan10811">Получение состояния</tspan><tspan
     x="-640.59601"
     y="819.5"
     id="tspan10813">декларации</tspan><tspan
     x="-640.59601"
     y="835.5"
     id="tspan10815">(асинхронный HTTP</tspan><tspan
     x="-640.59601"
     y="851.5"
     id="tspan10817">запрос)</tspan></text>

</g><text
   style="font-size:13.7962122px;font-style:normal;font-weight:normal;text-anchor:start;fill:#000000;font-family:sanserif"
   x="1201.1459"
   y="323.49014"
   id="text10819"><tspan
     x="1201.1459"
     y="323.49014"
     id="tspan10821">HTTP</tspan></text>

<text
   style="font-size:13.7962122px;font-style:normal;font-weight:normal;text-anchor:start;fill:#000000;font-family:sanserif"
   x="1186.4874"
   y="691.56873"
   id="text10823"><tspan
     x="1186.4874"
     y="691.56873"
     id="tspan10825">HTTP</tspan></text>

<text
   style="font-size:13.7962122px;font-style:normal;font-weight:normal;text-anchor:start;fill:#000000;font-family:sanserif"
   x="1188.6431"
   y="1008.4506"
   id="text10827"><tspan
     x="1188.6431"
     y="1008.4506"
     id="tspan10829">HTTP</tspan></text>

<text
   style="font-size:13.7962122px;font-style:normal;font-weight:normal;text-anchor:start;fill:#000000;font-family:sanserif"
   x="1183.9006"
   y="1246.1118"
   id="text10831"><tspan
     x="1183.9006"
     y="1246.1118"
     id="tspan10833">HTTP (JSON)</tspan></text>

<g
   id="g10835"
   transform="matrix(1.077829,0,0,1.077829,795.87782,264.20952)"><polyline
     style="fill:none;stroke:#000000;stroke-width:2;stroke-dasharray:8"
     points="635.1,232 635.1,312.1 603.001,312.1 603.001,385.495 "
     id="polyline10837" /><polyline
     style="fill:none;stroke:#000000;stroke-width:2"
     points="598.001,372.847 603.001,388.847 608.001,372.847 "
     id="polyline10839" /></g><text
   style="font-size:13.79621315px;font-style:normal;font-weight:normal;text-anchor:start;fill:#000000;font-family:sanserif"
   x="1606.7439"
   y="1055.9113"
   id="text10823-2"><tspan
     x="1606.7439"
     y="1055.9113"
     id="tspan10825-0">&lt;&lt;использует&gt;&gt;</tspan></text>
</svg>