<?xml version="1.0" encoding="UTF-8" standalone="no"?>
<svg
   xmlns:dc="http://purl.org/dc/elements/1.1/"
   xmlns:cc="http://creativecommons.org/ns#"
   xmlns:rdf="http://www.w3.org/1999/02/22-rdf-syntax-ns#"
   xmlns:svg="http://www.w3.org/2000/svg"
   xmlns="http://www.w3.org/2000/svg"
   xmlns:sodipodi="http://sodipodi.sourceforge.net/DTD/sodipodi-0.dtd"
   xmlns:inkscape="http://www.inkscape.org/namespaces/inkscape"
   width="1052.3622"
   height="744.09448"
   viewBox="-1653 -236 589.27497 419.54347"
   id="svg3392"
   version="1.1"
   inkscape:version="0.47 r22583"
   sodipodi:docname="plakat-7.svg">
  <metadata
     id="metadata3922">
    <rdf:RDF>
      <cc:Work
         rdf:about="">
        <dc:format>image/svg+xml</dc:format>
        <dc:type
           rdf:resource="http://purl.org/dc/dcmitype/StillImage" />
        <dc:title />
      </cc:Work>
    </rdf:RDF>
  </metadata>
  <defs
     id="defs3920">
    <inkscape:perspective
       sodipodi:type="inkscape:persp3d"
       inkscape:vp_x="0 : 814.96063 : 1"
       inkscape:vp_y="0 : 1000 : 0"
       inkscape:vp_z="3118.1104 : 814.96063 : 1"
       inkscape:persp3d-origin="1559.0552 : 543.30709 : 1"
       id="perspective3924" />
  </defs>
  <sodipodi:namedview
     pagecolor="#ffffff"
     bordercolor="#666666"
     borderopacity="1"
     objecttolerance="10"
     gridtolerance="10"
     guidetolerance="10"
     inkscape:pageopacity="0"
     inkscape:pageshadow="2"
     inkscape:window-width="959"
     inkscape:window-height="625"
     id="namedview3918"
     showgrid="false"
     inkscape:zoom="0.40953438"
     inkscape:cx="690.09696"
     inkscape:cy="405.46108"
     inkscape:window-x="138"
     inkscape:window-y="120"
     inkscape:window-maximized="0"
     inkscape:current-layer="svg3392" />
  <rect
     style="fill:none;stroke:#000000;stroke-width:0.62582523;stroke-dasharray:2.5033008"
     x="-1630.2556"
     y="-174.02953"
     width="544.3396"
     height="124.06985"
     id="rect3394" />
  <rect
     style="fill:none;stroke:#000000;stroke-width:0.62582523;stroke-dasharray:2.5033008"
     x="-1629.9427"
     y="-44.170784"
     width="545.27838"
     height="154.89174"
     id="rect3396" />
  <g
     id="g3398"
     transform="matrix(0.3129126,0,0,0.3129126,-1113.5368,-101.27734)">
    <rect
       style="fill:#ffffff"
       x="-523"
       y="-147"
       width="125"
       height="67.790001"
       id="rect3400" />
    <rect
       style="fill:none;stroke:#000000;stroke-width:2"
       x="-523"
       y="-147"
       width="125"
       height="67.790001"
       id="rect3402" />
    <text
       style="font-size:12.80000019px;font-style:normal;font-weight:normal;text-anchor:start;fill:#000000;font-family:sanserif"
       x="-514"
       y="-117.205"
       id="text3404">
      <tspan
         x="-514"
         y="-117.205"
         id="tspan3406">Главный</tspan>
      <tspan
         x="-514"
         y="-101.205"
         id="tspan3408">контроллер</tspan>
    </text>
  </g>
  <g
     id="g3410"
     transform="matrix(0.3129126,0,0,0.3129126,-1113.5368,-101.27734)">
    <path
       style="fill:#ffffff"
       d="m -523.442,56.436 129.552,0 0,89.626 c -25.911,-14.937 -38.866,-14.937 -64.776,0 -25.91,14.938 -38.866,14.938 -64.776,0 l 0,-89.626 z"
       id="path3412" />
    <path
       style="fill:none;stroke:#000000;stroke-width:2"
       d="m -523.442,56.436 129.552,0 0,89.626 c -25.911,-14.937 -38.866,-14.937 -64.776,0 -25.91,14.938 -38.866,14.938 -64.776,0 l 0,-89.626"
       id="path3414" />
    <text
       style="font-size:12.80000019px;font-style:normal;font-weight:normal;text-anchor:middle;fill:#000000;font-family:sanserif"
       x="-458.66599"
       y="81.780296"
       id="text3416">
      <tspan
         x="-458.66599"
         y="81.780296"
         id="tspan3418">Трансформация</tspan>
      <tspan
         x="-458.66599"
         y="97.780296"
         id="tspan3420">Java-объекта</tspan>
      <tspan
         x="-458.66599"
         y="113.78"
         id="tspan3422">в JSON</tspan>
    </text>
  </g>
  <g
     id="g3424"
     transform="matrix(0.3129126,0,0,0.3129126,-1113.5368,-101.27734)">
    <line
       style="fill:none;stroke:#000000;stroke-width:2"
       x1="-429.25"
       y1="-79.209999"
       x2="-426.49301"
       y2="46.702301"
       id="line3426" />
    <polygon
       style="fill:#000000"
       points="-426.493,46.7023 -421.549,44.0934 -426.329,54.2005 -431.547,44.3123 "
       id="polygon3428" />
    <polygon
       style="fill:none;stroke:#000000;stroke-width:2"
       points="-426.493,46.7023 -421.549,44.0934 -426.329,54.2005 -431.547,44.3123 "
       id="polygon3430" />
  </g>
  <g
     id="g3432"
     transform="matrix(0.3129126,0,0,0.3129126,-1113.5368,-101.27734)">
    <line
       style="fill:none;stroke:#000000;stroke-width:2"
       x1="-491.05399"
       y1="56.436001"
       x2="-491.70001"
       y2="-69.474098"
       id="line3434" />
    <polygon
       style="fill:#000000"
       points="-491.7,-69.4741 -496.687,-66.9484 -491.739,-76.974 -486.687,-66.9997 "
       id="polygon3436" />
    <polygon
       style="fill:none;stroke:#000000;stroke-width:2"
       points="-491.7,-69.4741 -496.687,-66.9484 -491.739,-76.974 -486.687,-66.9997 "
       id="polygon3438" />
  </g>
  <g
     id="g3440"
     transform="matrix(0.3129126,0,0,0.3129126,-1113.5368,-101.27734)">
    <path
       style="fill:#ffffff"
       d="m -470.575,-32.264 87.85,0 17.57,19 -17.57,19 -87.85,0 -17.57,-19 17.57,-19 z"
       id="path3442" />
    <path
       style="fill:none;stroke:#000000;stroke-width:2"
       d="m -470.575,-32.264 87.85,0 17.57,19 -17.57,19 -87.85,0 -17.57,-19 17.57,-19"
       id="path3444" />
    <text
       style="font-size:12.80000019px;font-style:normal;font-weight:normal;text-anchor:middle;fill:#000000;font-family:sanserif"
       x="-426.64999"
       y="-17.264"
       id="text3446">
      <tspan
         x="-426.64999"
         y="-17.264"
         id="tspan3448">Состояние</tspan>
      <tspan
         x="-426.64999"
         y="-1.2640001"
         id="tspan3450">декларации</tspan>
    </text>
  </g>
  <text
     style="font-size:4.00528145px;font-style:normal;font-weight:normal;text-anchor:start;fill:#000000;font-family:sanserif"
     x="-1241.6746"
     y="-92.567108"
     id="text3452">
    <tspan
       x="-1241.6746"
       y="-92.567108"
       id="tspan3454">Отображение</tspan>
    <tspan
       x="-1241.6746"
       y="-87.560486"
       id="tspan3456">ответа</tspan>
  </text>
  <text
     style="font-size:4.00528145px;font-style:normal;font-weight:normal;text-anchor:start;fill:#000000;font-family:sanserif"
     x="-1293.618"
     y="-102.11092"
     id="text3458">
    <tspan
       x="-1293.618"
       y="-102.11092"
       id="tspan3460">Передача</tspan>
    <tspan
       x="-1293.618"
       y="-97.104324"
       id="tspan3462">управления</tspan>
  </text>
  <g
     id="g3464"
     transform="matrix(0.3129126,0,0,0.3129126,-1113.5368,-101.27734)">
    <line
       style="fill:none;stroke:#000000;stroke-width:2"
       x1="-150.36301"
       y1="-96.75"
       x2="-388.26401"
       y2="-96.180702"
       id="line3466" />
    <polygon
       style="fill:#000000"
       points="-388.264,-96.1807 -385.752,-91.1867 -395.764,-96.1628 -385.776,-101.187 "
       id="polygon3468" />
    <polygon
       style="fill:none;stroke:#000000;stroke-width:2"
       points="-388.264,-96.1807 -385.752,-91.1867 -395.764,-96.1628 -385.776,-101.187 "
       id="polygon3470" />
  </g>
  <text
     style="font-size:4.00528145px;font-style:normal;font-weight:normal;text-anchor:start;fill:#000000;font-family:sanserif"
     x="-1229.6017"
     y="-145.31981"
     id="text3472">
    <tspan
       x="-1229.6017"
       y="-145.31981"
       id="tspan3474">Делегация обработки запроса</tspan>
  </text>
  <g
     id="g3476"
     transform="matrix(0.3129126,0,0,0.3129126,-1113.5368,-101.27734)">
    <path
       style="fill:#ffffff"
       d="m -312.918,-117.5 89,0 17.8,19 -17.8,19 -89,0 -17.8,-19 17.8,-19 z"
       id="path3478" />
    <path
       style="fill:none;stroke:#000000;stroke-width:2"
       d="m -312.918,-117.5 89,0 17.8,19 -17.8,19 -89,0 -17.8,-19 17.8,-19"
       id="path3480" />
    <text
       style="font-size:12.80000019px;font-style:normal;font-weight:normal;text-anchor:middle;fill:#000000;font-family:sanserif"
       x="-268.418"
       y="-102.5"
       id="text3482">
      <tspan
         x="-268.418"
         y="-102.5"
         id="tspan3484">Состояние</tspan>
      <tspan
         x="-268.418"
         y="-86.5"
         id="tspan3486">Декларации</tspan>
    </text>
  </g>
  <g
     id="g3488"
     transform="matrix(0.3129126,0,0,0.3129126,-1113.5368,-101.27734)">
    <line
       style="fill:none;stroke:#000000;stroke-width:2"
       x1="-398"
       y1="-130.052"
       x2="-160.099"
       y2="-131.203"
       id="line3490" />
    <polygon
       style="fill:#000000"
       points="-160.099,-131.203 -162.623,-136.191 -152.599,-131.239 -162.575,-126.191 "
       id="polygon3492" />
    <polygon
       style="fill:none;stroke:#000000;stroke-width:2"
       points="-160.099,-131.203 -162.623,-136.191 -152.599,-131.239 -162.575,-126.191 "
       id="polygon3494" />
  </g>
  <g
     id="g3496"
     transform="matrix(0.3129126,0,0,0.3129126,-1113.5368,-101.27734)">
    <line
       style="fill:none;stroke:#000000;stroke-width:2"
       x1="-704.32001"
       y1="-128.75"
       x2="-532.73602"
       y2="-129.98199"
       id="line3498" />
    <polygon
       style="fill:#000000"
       points="-532.736,-129.982 -535.272,-134.964 -525.236,-130.036 -535.2,-124.965 "
       id="polygon3500" />
    <polygon
       style="fill:none;stroke:#000000;stroke-width:2"
       points="-532.736,-129.982 -535.272,-134.964 -525.236,-130.036 -535.2,-124.965 "
       id="polygon3502" />
  </g>
  <g
     id="g3504"
     transform="matrix(0.3129126,0,0,0.3129126,-1113.5368,-101.27734)">
    <line
       style="fill:none;stroke:#000000;stroke-width:2"
       x1="-523"
       y1="-96.157402"
       x2="-691.58398"
       y2="-97.426697"
       id="line3506" />
    <polygon
       style="fill:#000000"
       points="-691.584,-97.4267 -689.122,-92.408 -699.084,-97.4832 -689.047,-102.408 "
       id="polygon3508" />
    <polygon
       style="fill:none;stroke:#000000;stroke-width:2"
       points="-691.584,-97.4267 -689.122,-92.408 -699.084,-97.4832 -689.047,-102.408 "
       id="polygon3510" />
  </g>
  <text
     style="font-size:4.00528145px;font-style:normal;font-weight:normal;text-anchor:start;fill:#000000;font-family:sanserif"
     x="-1328.2593"
     y="-150.93657"
     id="text3512">
    <tspan
       x="-1328.2593"
       y="-150.93657"
       id="tspan3514">Входящий</tspan>
    <tspan
       x="-1328.2593"
       y="-145.92998"
       id="tspan3516">HTTP запрос</tspan>
  </text>
  <text
     style="font-size:4.00528145px;font-style:normal;font-weight:normal;text-anchor:start;fill:#000000;font-family:sanserif"
     x="-1329.5422"
     y="-124.93356"
     id="text3518">
    <tspan
       x="-1329.5422"
       y="-124.93356"
       id="tspan3520">HTTP Ответ</tspan>
  </text>
  <g
     id="g3522"
     transform="matrix(0.3129126,0,0,0.3129126,-1113.5368,-101.27734)">
    <rect
       style="fill:#ffffff"
       x="-533.12799"
       y="214.5"
       width="146.68401"
       height="158"
       id="rect3524" />
    <rect
       style="fill:none;stroke:#000000;stroke-width:2"
       x="-533.12799"
       y="214.5"
       width="146.68401"
       height="158"
       id="rect3526" />
    <text
       style="font-size:12.80000019px;font-style:normal;font-weight:normal;text-anchor:start;fill:#000000;font-family:sanserif"
       x="-524.12799"
       y="289.39999"
       id="text3528">
      <tspan
         x="-524.12799"
         y="289.39999"
         id="tspan3530">Главный</tspan>
      <tspan
         x="-524.12799"
         y="305.39999"
         id="tspan3532">контроллер</tspan>
    </text>
  </g>
  <g
     id="g3534"
     transform="matrix(0.3129126,0,0,0.3129126,-1113.5368,-101.27734)">
    <line
       style="fill:none;stroke:#000000;stroke-width:2"
       x1="-140.127"
       y1="293"
       x2="-376.70599"
       y2="293.48001"
       id="line3536" />
    <polygon
       style="fill:#000000"
       points="-376.706,293.48 -374.196,298.475 -384.206,293.495 -374.216,288.475 "
       id="polygon3538" />
    <polygon
       style="fill:none;stroke:#000000;stroke-width:2"
       points="-376.706,293.48 -374.196,298.475 -384.206,293.495 -374.216,288.475 "
       id="polygon3540" />
  </g>
  <text
     style="font-size:4.00528145px;font-style:normal;font-weight:normal;text-anchor:start;fill:#000000;font-family:sanserif"
     x="-1227.0984"
     y="-25.562504"
     id="text3542">
    <tspan
       x="-1227.0984"
       y="-25.562504"
       id="tspan3544">Делегация обработки запроса</tspan>
  </text>
  <g
     id="g3546"
     transform="matrix(0.3129126,0,0,0.3129126,-1113.5368,-101.27734)">
    <path
       style="fill:#ffffff"
       d="m -300.518,279.718 89.2,0 17.84,12.891 -17.84,12.891 -89.2,0 -17.84,-12.891 17.84,-12.891 z"
       id="path3548" />
    <path
       style="fill:none;stroke:#000000;stroke-width:2"
       d="m -300.518,279.718 89.2,0 17.84,12.891 -17.84,12.891 -89.2,0 -17.84,-12.891 17.84,-12.891"
       id="path3550" />
    <text
       style="font-size:12.80000019px;font-style:normal;font-weight:normal;text-anchor:middle;fill:#000000;font-family:sanserif"
       x="-255.918"
       y="296.60901"
       id="text3552">
      <tspan
         x="-255.918"
         y="296.60901"
         id="tspan3554">Декларация</tspan>
    </text>
  </g>
  <g
     id="g3556"
     transform="matrix(0.3129126,0,0,0.3129126,-1113.5368,-101.27734)">
    <line
       style="fill:none;stroke:#000000;stroke-width:2"
       x1="-386.44199"
       y1="254"
       x2="-149.86301"
       y2="253.28"
       id="line3558" />
    <polygon
       style="fill:#000000"
       points="-149.863,253.28 -152.378,248.287 -142.363,253.257 -152.348,258.287 "
       id="polygon3560" />
    <polygon
       style="fill:none;stroke:#000000;stroke-width:2"
       points="-149.863,253.28 -152.378,248.287 -142.363,253.257 -152.348,258.287 "
       id="polygon3562" />
  </g>
  <g
     id="g3564"
     transform="matrix(0.3129126,0,0,0.3129126,-1113.5368,-101.27734)">
    <line
       style="fill:none;stroke:#000000;stroke-width:2"
       x1="-693.37"
       y1="254.62601"
       x2="-542.86401"
       y2="254.03799"
       id="line3566" />
    <polygon
       style="fill:#000000"
       points="-542.864,254.038 -545.384,249.048 -535.364,254.009 -545.344,259.048 "
       id="polygon3568" />
    <polygon
       style="fill:none;stroke:#000000;stroke-width:2"
       points="-542.864,254.038 -545.384,249.048 -535.364,254.009 -545.344,259.048 "
       id="polygon3570" />
  </g>
  <g
     id="g3572"
     transform="matrix(0.3129126,0,0,0.3129126,-1113.5368,-101.27734)">
    <line
       style="fill:none;stroke:#000000;stroke-width:2"
       x1="-533.12799"
       y1="333"
       x2="-683.63397"
       y2="332.884"
       id="line3574" />
    <polygon
       style="fill:#000000"
       points="-683.634,332.884 -681.138,337.885 -691.134,332.878 -681.13,327.885 "
       id="polygon3576" />
    <polygon
       style="fill:none;stroke:#000000;stroke-width:2"
       points="-683.634,332.884 -681.138,337.885 -691.134,332.878 -681.13,327.885 "
       id="polygon3578" />
  </g>
  <text
     style="font-size:4.00528145px;font-style:normal;font-weight:normal;text-anchor:start;fill:#000000;font-family:sanserif"
     x="-1327.3206"
     y="-29.458256"
     id="text3580">
    <tspan
       x="-1327.3206"
       y="-29.458256"
       id="tspan3582">Входящий</tspan>
    <tspan
       x="-1327.3206"
       y="-24.451664"
       id="tspan3584">HTTP запрос</tspan>
  </text>
  <text
     style="font-size:4.00528145px;font-style:normal;font-weight:normal;text-anchor:start;fill:#000000;font-family:sanserif"
     x="-1327.3519"
     y="9.3741837"
     id="text3586">
    <tspan
       x="-1327.3519"
       y="9.3741837"
       id="tspan3588">HTTP Ответ</tspan>
  </text>
  <g
     id="g3590"
     transform="matrix(0.3129126,0,0,0.3129126,-1113.5368,-101.27734)">
    <rect
       style="fill:#ffffff"
       x="-140.127"
       y="213.5"
       width="197"
       height="159"
       id="rect3592" />
    <rect
       style="fill:none;stroke:#000000;stroke-width:2"
       x="-140.127"
       y="213.5"
       width="197"
       height="159"
       id="rect3594" />
    <text
       style="font-size:12.80000019px;font-style:normal;font-weight:normal;text-anchor:start;fill:#000000;font-family:sanserif"
       x="-131.127"
       y="288.89999"
       id="text3596">
      <tspan
         x="-131.127"
         y="288.89999"
         id="tspan3598">Контроллер</tspan>
      <tspan
         x="-131.127"
         y="304.89999"
         id="tspan3600">декларации</tspan>
    </text>
  </g>
  <g
     id="g3602"
     transform="matrix(0.3129126,0,0,0.3129126,-1113.5368,-101.27734)">
    <line
       style="fill:none;stroke:#000000;stroke-width:2"
       x1="-140.127"
       y1="332.75"
       x2="-376.70599"
       y2="332.98999"
       id="line3604" />
    <polygon
       style="fill:#000000"
       points="-376.706,332.99 -374.201,337.988 -384.206,332.998 -374.211,327.988 "
       id="polygon3606" />
    <polygon
       style="fill:none;stroke:#000000;stroke-width:2"
       points="-376.706,332.99 -374.201,337.988 -384.206,332.998 -374.211,327.988 "
       id="polygon3608" />
  </g>
  <g
     id="g3610"
     transform="matrix(0.3129126,0,0,0.3129126,-1113.5368,-101.27734)">
    <path
       style="fill:#ffffff"
       d="m -305.029,313.392 111.1,0 22.22,19 -22.22,19 -111.1,0 -22.22,-19 22.22,-19 z"
       id="path3612" />
    <path
       style="fill:none;stroke:#000000;stroke-width:2"
       d="m -305.029,313.392 111.1,0 22.22,19 -22.22,19 -111.1,0 -22.22,-19 22.22,-19"
       id="path3614" />
    <text
       style="font-size:12.80000019px;font-style:normal;font-weight:normal;text-anchor:middle;fill:#000000;font-family:sanserif"
       x="-249.479"
       y="328.392"
       id="text3616">
      <tspan
         x="-249.479"
         y="328.392"
         id="tspan3618">Представление</tspan>
      <tspan
         x="-249.479"
         y="344.392"
         id="tspan3620">декларации</tspan>
    </text>
  </g>
  <g
     id="g3622"
     transform="matrix(0.3129126,0,0,0.3129126,-1113.5368,-101.27734)">
    <path
       style="fill:#ffffff"
       d="m -532.128,554.5 145,0 0,84 c -29,-14 -43.5,-14 -72.5,0 -29,14 -43.5,14 -72.5,0 l 0,-84 z"
       id="path3624" />
    <path
       style="fill:none;stroke:#000000;stroke-width:2"
       d="m -532.128,554.5 145,0 0,84 c -29,-14 -43.5,-14 -72.5,0 -29,14 -43.5,14 -72.5,0 l 0,-84"
       id="path3626" />
    <text
       style="font-size:12.80000019px;font-style:normal;font-weight:normal;text-anchor:middle;fill:#000000;font-family:sanserif"
       x="-459.62799"
       y="569.5"
       id="text3628">
      <tspan
         x="-459.62799"
         y="569.5"
         id="tspan3630">Трансформация</tspan>
      <tspan
         x="-459.62799"
         y="585.5"
         id="tspan3632">XML Документа</tspan>
      <tspan
         x="-459.62799"
         y="601.5"
         id="tspan3634">с помощью XSLT</tspan>
      <tspan
         x="-459.62799"
         y="617.5"
         id="tspan3636" />
    </text>
  </g>
  <g
     id="g3638"
     transform="matrix(0.3129126,0,0,0.3129126,-1113.5368,-101.27734)">
    <line
       style="fill:none;stroke:#000000;stroke-width:2"
       x1="-423.11401"
       y1="372.5"
       x2="-423.36401"
       y2="544.76398"
       id="line3640" />
    <polygon
       style="fill:#000000"
       points="-423.364,544.764 -418.36,542.271 -423.375,552.264 -428.36,542.257 "
       id="polygon3642" />
    <polygon
       style="fill:none;stroke:#000000;stroke-width:2"
       points="-423.364,544.764 -418.36,542.271 -423.375,552.264 -428.36,542.257 "
       id="polygon3644" />
  </g>
  <g
     id="g3646"
     transform="matrix(0.3129126,0,0,0.3129126,-1113.5368,-101.27734)">
    <line
       style="fill:none;stroke:#000000;stroke-width:2"
       x1="-495.87799"
       y1="554.5"
       x2="-496.42499"
       y2="382.23599"
       id="line3648" />
    <polygon
       style="fill:#000000"
       points="-496.425,382.236 -501.417,384.752 -496.449,374.736 -491.417,384.72 "
       id="polygon3650" />
    <polygon
       style="fill:none;stroke:#000000;stroke-width:2"
       points="-496.425,382.236 -501.417,384.752 -496.449,374.736 -491.417,384.72 "
       id="polygon3652" />
  </g>
  <g
     id="g3654"
     transform="matrix(0.3129126,0,0,0.3129126,-1113.5368,-101.27734)">
    <path
       style="fill:#ffffff"
       d="m -466.478,397.682 88.4,0 17.68,19 -17.68,19 -88.4,0 -17.68,-19 17.68,-19 z"
       id="path3656" />
    <path
       style="fill:none;stroke:#000000;stroke-width:2"
       d="m -466.478,397.682 88.4,0 17.68,19 -17.68,19 -88.4,0 -17.68,-19 17.68,-19"
       id="path3658" />
    <text
       style="font-size:12.80000019px;font-style:normal;font-weight:normal;text-anchor:middle;fill:#000000;font-family:sanserif"
       x="-422.27802"
       y="420.68201"
       id="text3660">
      <tspan
         x="-422.27802"
         y="420.68201"
         id="tspan3662">Декларация</tspan>
    </text>
  </g>
  <text
     style="font-size:4.00528145px;font-style:normal;font-weight:normal;text-anchor:start;fill:#000000;font-family:sanserif"
     x="-1295.379"
     y="43.68943"
     id="text3664">
    <tspan
       x="-1295.379"
       y="43.68943"
       id="tspan3666">Передача</tspan>
    <tspan
       x="-1295.379"
       y="48.696037"
       id="tspan3668">управления</tspan>
  </text>
  <g
     id="g3670"
     transform="matrix(0.3129126,0,0,0.3129126,-1113.5368,-101.27734)">
    <path
       style="fill:#ffffff"
       d="m -473.924,469.5 103.2,0 20.64,19 -20.64,19 -103.2,0 -20.64,-19 20.64,-19 z"
       id="path3672" />
    <path
       style="fill:none;stroke:#000000;stroke-width:2"
       d="m -473.924,469.5 103.2,0 20.64,19 -20.64,19 -103.2,0 -20.64,-19 20.64,-19"
       id="path3674" />
    <text
       style="font-size:12.80000019px;font-style:normal;font-weight:normal;text-anchor:middle;fill:#000000;font-family:sanserif"
       x="-422.32401"
       y="484.5"
       id="text3676">
      <tspan
         x="-422.32401"
         y="484.5"
         id="tspan3678">Предсталвние</tspan>
      <tspan
         x="-422.32401"
         y="500.5"
         id="tspan3680">декларации</tspan>
    </text>
  </g>
  <g
     id="g3682"
     transform="matrix(0.3129126,0,0,0.3129126,-1113.5368,-101.27734)">
    <rect
       style="fill:#ffffff"
       x="-150.36301"
       y="-148.5"
       width="197"
       height="69"
       id="rect3684" />
    <rect
       style="fill:none;stroke:#000000;stroke-width:2"
       x="-150.36301"
       y="-148.5"
       width="197"
       height="69"
       id="rect3686" />
    <text
       style="font-size:12.80000019px;font-style:normal;font-weight:normal;text-anchor:start;fill:#000000;font-family:sanserif"
       x="-141.36301"
       y="-118.1"
       id="text3688">
      <tspan
         x="-141.36301"
         y="-118.1"
         id="tspan3690">Контроллер</tspan>
      <tspan
         x="-141.36301"
         y="-102.1"
         id="tspan3692">декларации</tspan>
    </text>
  </g>
  <g
     id="g3694"
     transform="matrix(0.3129126,0,0,0.3129126,-1113.5368,-101.27734)">
    <ellipse
       style="fill:#ffffff"
       cx="-1591.74"
       cy="453.25"
       rx="6"
       ry="6"
       id="ellipse3696"
       sodipodi:cx="-1591.74"
       sodipodi:cy="453.25"
       sodipodi:rx="6"
       sodipodi:ry="6"
       d="m -1585.74,453.25 c 0,3.31371 -2.6863,6 -6,6 -3.3137,0 -6,-2.68629 -6,-6 0,-3.31371 2.6863,-6 6,-6 3.3137,0 6,2.68629 6,6 z" />
    <ellipse
       style="fill:none;stroke:#000000;stroke-width:2"
       cx="-1591.74"
       cy="453.25"
       rx="6"
       ry="6"
       id="ellipse3698"
       sodipodi:cx="-1591.74"
       sodipodi:cy="453.25"
       sodipodi:rx="6"
       sodipodi:ry="6"
       d="m -1585.74,453.25 c 0,3.31371 -2.6863,6 -6,6 -3.3137,0 -6,-2.68629 -6,-6 0,-3.31371 2.6863,-6 6,-6 3.3137,0 6,2.68629 6,6 z" />
    <line
       style="fill:none;stroke:#000000;stroke-width:2"
       x1="-1615.74"
       y1="465.25"
       x2="-1567.74"
       y2="465.25"
       id="line3700" />
    <line
       style="fill:none;stroke:#000000;stroke-width:2"
       x1="-1591.74"
       y1="459.25"
       x2="-1591.74"
       y2="489.25"
       id="line3702" />
    <line
       style="fill:none;stroke:#000000;stroke-width:2"
       x1="-1591.74"
       y1="489.25"
       x2="-1615.74"
       y2="515.25"
       id="line3704" />
    <line
       style="fill:none;stroke:#000000;stroke-width:2"
       x1="-1591.74"
       y1="489.25"
       x2="-1567.74"
       y2="515.25"
       id="line3706" />
    <text
       style="font-size:12.80000019px;font-style:normal;font-weight:normal;text-anchor:middle;fill:#000000;font-family:sanserif"
       x="-1591.74"
       y="539.15002"
       id="text3708">
      <tspan
         x="-1591.74"
         y="539.15002"
         id="tspan3710">Пользователь</tspan>
    </text>
  </g>
  <line
     style="fill:none;stroke:#000000;stroke-width:0.62582523"
     x1="-1607.194"
     y1="34.603386"
     x2="-1598.9988"
     y2="2.6609571"
     id="line3712" />
  <g
     id="g3714"
     transform="matrix(0.3129126,0,0,0.3129126,-1113.5368,-101.27734)">
    <line
       style="fill:none;stroke:#000000;stroke-width:2;stroke-dasharray:20"
       x1="-1606.64"
       y1="47.466702"
       x2="-1490.1899"
       y2="277.26099"
       id="line3716" />
    <polyline
       style="fill:none;stroke:#000000;stroke-width:2"
       points="-1498.16,272.596 -1489.17,279.255 -1489.24,268.075 "
       id="polyline3718" />
  </g>
  <g
     id="g3720"
     transform="matrix(0.3129126,0,0,0.3129126,-1113.5368,-101.27734)">
    <ellipse
       style="fill:#ffffff"
       cx="-1477.09"
       cy="314.767"
       rx="100.55"
       ry="33.516701"
       id="ellipse3722"
       sodipodi:cx="-1477.09"
       sodipodi:cy="314.767"
       sodipodi:rx="100.55"
       sodipodi:ry="33.516701"
       d="m -1376.54,314.767 c 0,18.51076 -45.0177,33.5167 -100.55,33.5167 -55.5322,0 -100.55,-15.00594 -100.55,-33.5167 0,-18.51076 45.0178,-33.5167 100.55,-33.5167 55.5323,0 100.55,15.00594 100.55,33.5167 z" />
    <ellipse
       style="fill:none;stroke:#000000;stroke-width:2"
       cx="-1477.09"
       cy="314.767"
       rx="100.55"
       ry="33.516701"
       id="ellipse3724"
       sodipodi:cx="-1477.09"
       sodipodi:cy="314.767"
       sodipodi:rx="100.55"
       sodipodi:ry="33.516701"
       d="m -1376.54,314.767 c 0,18.51076 -45.0177,33.5167 -100.55,33.5167 -55.5322,0 -100.55,-15.00594 -100.55,-33.5167 0,-18.51076 45.0178,-33.5167 100.55,-33.5167 55.5323,0 100.55,15.00594 100.55,33.5167 z" />
    <text
       style="font-size:12.80000019px;font-style:normal;font-weight:normal;text-anchor:middle;fill:#000000;font-family:sanserif"
       x="-1477.09"
       y="318.66699"
       id="text3726">
      <tspan
         x="-1477.09"
         y="318.66699"
         id="tspan3728">Открытие декларации</tspan>
    </text>
  </g>
  <g
     id="g3730"
     transform="matrix(0.3129126,0,0,0.3129126,-1113.5368,-101.27734)">
    <ellipse
       style="fill:#ffffff"
       cx="-1500.99"
       cy="47.466702"
       rx="105.65"
       ry="35.216702"
       id="ellipse3732"
       sodipodi:cx="-1500.99"
       sodipodi:cy="47.466702"
       sodipodi:rx="105.65"
       sodipodi:ry="35.216702"
       d="m -1395.34,47.466702 c 0,19.449647 -47.3011,35.216701 -105.65,35.216701 -58.3489,0 -105.65,-15.767054 -105.65,-35.216701 0,-19.449648 47.3011,-35.216702 105.65,-35.216702 58.3489,0 105.65,15.767054 105.65,35.216702 z" />
    <ellipse
       style="fill:none;stroke:#000000;stroke-width:2"
       cx="-1500.99"
       cy="47.466702"
       rx="105.65"
       ry="35.216702"
       id="ellipse3734"
       sodipodi:cx="-1500.99"
       sodipodi:cy="47.466702"
       sodipodi:rx="105.65"
       sodipodi:ry="35.216702"
       d="m -1395.34,47.466702 c 0,19.449647 -47.3011,35.216701 -105.65,35.216701 -58.3489,0 -105.65,-15.767054 -105.65,-35.216701 0,-19.449648 47.3011,-35.216702 105.65,-35.216702 58.3489,0 105.65,15.767054 105.65,35.216702 z" />
    <text
       style="font-size:12.80000019px;font-style:normal;font-weight:normal;text-anchor:middle;fill:#000000;font-family:sanserif"
       x="-1500.99"
       y="51.366699"
       id="text3736">
      <tspan
         x="-1500.99"
         y="51.366699"
         id="tspan3738">Редактирование ячейки</tspan>
    </text>
  </g>
  <g
     id="g3740"
     transform="matrix(0.3129126,0,0,0.3129126,-1113.5368,-101.27734)">
    <ellipse
       style="fill:#ffffff"
       cx="-1332.99"
       cy="-100.533"
       rx="96.650002"
       ry="32.216702"
       id="ellipse3742"
       sodipodi:cx="-1332.99"
       sodipodi:cy="-100.533"
       sodipodi:rx="96.650002"
       sodipodi:ry="32.216702"
       d="m -1236.34,-100.533 c 0,17.792796 -43.2717,32.216704 -96.65,32.216704 -53.3783,0 -96.65,-14.423908 -96.65,-32.216704 0,-17.79279 43.2717,-32.2167 96.65,-32.2167 53.3783,0 96.65,14.42391 96.65,32.2167 z" />
    <ellipse
       style="fill:none;stroke:#000000;stroke-width:2"
       cx="-1332.99"
       cy="-100.533"
       rx="96.650002"
       ry="32.216702"
       id="ellipse3744"
       sodipodi:cx="-1332.99"
       sodipodi:cy="-100.533"
       sodipodi:rx="96.650002"
       sodipodi:ry="32.216702"
       d="m -1236.34,-100.533 c 0,17.792796 -43.2717,32.216704 -96.65,32.216704 -53.3783,0 -96.65,-14.423908 -96.65,-32.216704 0,-17.79279 43.2717,-32.2167 96.65,-32.2167 53.3783,0 96.65,14.42391 96.65,32.2167 z" />
    <text
       style="font-size:12.80000019px;font-style:normal;font-weight:normal;text-anchor:middle;fill:#000000;font-family:sanserif"
       x="-1332.99"
       y="-96.633301"
       id="text3746">
      <tspan
         x="-1332.99"
         y="-96.633301"
         id="tspan3748">Изменить тип ячейки</tspan>
    </text>
  </g>
  <g
     id="g3750"
     transform="matrix(0.3129126,0,0,0.3129126,-1113.5368,-101.27734)">
    <ellipse
       style="fill:#ffffff"
       cx="-1292.09"
       cy="93.099998"
       rx="107.55"
       ry="35.849998"
       id="ellipse3752"
       sodipodi:cx="-1292.09"
       sodipodi:cy="93.099998"
       sodipodi:rx="107.55"
       sodipodi:ry="35.849998"
       d="m -1184.54,93.099998 c 0,19.799412 -48.1517,35.850002 -107.55,35.850002 -59.3982,0 -107.55,-16.05059 -107.55,-35.850002 0,-19.799407 48.1518,-35.849998 107.55,-35.849998 59.3983,0 107.55,16.050591 107.55,35.849998 z" />
    <ellipse
       style="fill:none;stroke:#000000;stroke-width:2"
       cx="-1292.09"
       cy="93.099998"
       rx="107.55"
       ry="35.849998"
       id="ellipse3754"
       sodipodi:cx="-1292.09"
       sodipodi:cy="93.099998"
       sodipodi:rx="107.55"
       sodipodi:ry="35.849998"
       d="m -1184.54,93.099998 c 0,19.799412 -48.1517,35.850002 -107.55,35.850002 -59.3982,0 -107.55,-16.05059 -107.55,-35.850002 0,-19.799407 48.1518,-35.849998 107.55,-35.849998 59.3983,0 107.55,16.050591 107.55,35.849998 z" />
    <text
       style="font-size:12.80000019px;font-style:normal;font-weight:normal;text-anchor:middle;fill:#000000;font-family:sanserif"
       x="-1292.09"
       y="97"
       id="text3756">
      <tspan
         x="-1292.09"
         y="97"
         id="tspan3758">Сохранение декларации</tspan>
    </text>
  </g>
  <text
     style="font-size:4.00528145px;font-style:normal;font-weight:normal;text-anchor:start;fill:#000000;font-family:sanserif"
     x="-1599.0646"
     y="-60.207561"
     id="text3760">
    <tspan
       x="-1599.0646"
       y="-60.207561"
       id="tspan3762">&lt;&lt;расширяет&gt;&gt;</tspan>
  </text>
  <g
     id="g3764"
     transform="matrix(0.3129126,0,0,0.3129126,-1113.5368,-101.27734)">
    <line
       style="fill:none;stroke:#000000;stroke-width:2;stroke-dasharray:20"
       x1="-1401.33"
       y1="-77.752701"
       x2="-1425.2"
       y2="18.2248"
       id="line3766" />
    <polyline
       style="fill:none;stroke:#000000;stroke-width:2"
       points="-1428.18,9.48357 -1425.74,20.3948 -1418.48,11.8974 "
       id="polyline3768" />
  </g>
  <g
     id="g3770"
     transform="matrix(0.3129126,0,0,0.3129126,-1113.5368,-101.27734)">
    <line
       style="fill:none;stroke:#000000;stroke-width:2;stroke-dasharray:20"
       x1="-1292.09"
       y1="128.95"
       x2="-1439.58"
       y2="277.09698"
       id="line3772" />
    <polyline
       style="fill:none;stroke:#000000;stroke-width:2"
       points="-1437.65,268.067 -1441.16,278.682 -1430.56,275.123 "
       id="polyline3774" />
  </g>
  <text
     style="font-size:4.00528145px;font-style:normal;font-weight:normal;text-anchor:start;fill:#000000;font-family:sanserif"
     x="-1544.2736"
     y="-33.328377"
     id="text3776">
    <tspan
       x="-1544.2736"
       y="-33.328377"
       id="tspan3778">&lt;&lt;расширяет&gt;&gt;</tspan>
  </text>
  <text
     style="font-size:4.00528145px;font-style:normal;font-weight:normal;text-anchor:start;fill:#000000;font-family:sanserif"
     x="-1553.3167"
     y="-110.30488"
     id="text3780">
    <tspan
       x="-1553.3167"
       y="-110.30488"
       id="tspan3782">&lt;&lt;расширяет&gt;&gt;</tspan>
  </text>
  <g
     id="g3784"
     transform="matrix(0.3129126,0,0,0.3129126,-1113.5368,-101.27734)">
    <ellipse
       style="fill:#ffffff"
       cx="-1503.6899"
       cy="-173.433"
       rx="102.95"
       ry="34.3167"
       id="ellipse3786"
       sodipodi:cx="-1503.6899"
       sodipodi:cy="-173.433"
       sodipodi:rx="102.95"
       sodipodi:ry="34.3167"
       d="m -1400.7399,-173.433 c 0,18.95259 -46.0923,34.3167 -102.95,34.3167 -56.8578,0 -102.95,-15.36411 -102.95,-34.3167 0,-18.95259 46.0922,-34.3167 102.95,-34.3167 56.8577,0 102.95,15.36411 102.95,34.3167 z" />
    <ellipse
       style="fill:none;stroke:#000000;stroke-width:2"
       cx="-1503.6899"
       cy="-173.433"
       rx="102.95"
       ry="34.3167"
       id="ellipse3788"
       sodipodi:cx="-1503.6899"
       sodipodi:cy="-173.433"
       sodipodi:rx="102.95"
       sodipodi:ry="34.3167"
       d="m -1400.7399,-173.433 c 0,18.95259 -46.0923,34.3167 -102.95,34.3167 -56.8578,0 -102.95,-15.36411 -102.95,-34.3167 0,-18.95259 46.0922,-34.3167 102.95,-34.3167 56.8577,0 102.95,15.36411 102.95,34.3167 z" />
    <text
       style="font-size:12.80000019px;font-style:normal;font-weight:normal;text-anchor:middle;fill:#000000;font-family:sanserif"
       x="-1503.6899"
       y="-169.533"
       id="text3790">
      <tspan
         x="-1503.6899"
         y="-169.533"
         id="tspan3792">Пересчитать значение</tspan>
    </text>
  </g>
  <g
     id="g3794"
     transform="matrix(0.3129126,0,0,0.3129126,-1113.5368,-101.27734)">
    <line
       style="fill:none;stroke:#000000;stroke-width:2;stroke-dasharray:20"
       x1="-1503.6899"
       y1="-139.117"
       x2="-1501.0699"
       y2="7.7785802"
       id="line3796" />
    <polyline
       style="fill:none;stroke:#000000;stroke-width:2"
       points="-1506.21,0.105051 -1501.03,10.0143 -1496.21,-0.0732951 "
       id="polyline3798" />
  </g>
  <text
     style="font-size:4.00528145px;font-style:normal;font-weight:normal;text-anchor:start;fill:#000000;font-family:sanserif"
     x="-1623.2214"
     y="-122.63365"
     id="text3800">
    <tspan
       x="-1623.2214"
       y="-122.63365"
       id="tspan3802">&lt;&lt;расширяет&gt;&gt;</tspan>
  </text>
  <text
     style="font-size:4.00528145px;font-style:normal;font-weight:normal;text-anchor:start;fill:#000000;font-family:sanserif"
     x="-1584.0603"
     y="-166.28496"
     id="text3804">
    <tspan
       x="-1584.0603"
       y="-166.28496"
       id="tspan3806" />
  </text>
  <g
     id="g3808"
     transform="matrix(0.3129126,0,0,0.3129126,-1113.5368,-101.27734)">
    <ellipse
       style="fill:#ffffff"
       cx="-1083.61"
       cy="-26.725"
       rx="140.325"
       ry="46.775002"
       id="ellipse3810"
       sodipodi:cx="-1083.61"
       sodipodi:cy="-26.725"
       sodipodi:rx="140.325"
       sodipodi:ry="46.775002"
       d="m -943.28499,-26.725 c 0,25.83311963 -62.82561,46.775001 -140.32501,46.775001 -77.4993,0 -140.325,-20.94188137 -140.325,-46.775001 0,-25.83312 62.8257,-46.775002 140.325,-46.775002 77.4994,0 140.32501,20.941882 140.32501,46.775002 z" />
    <ellipse
       style="fill:none;stroke:#000000;stroke-width:2"
       cx="-1083.61"
       cy="-26.725"
       rx="140.325"
       ry="46.775002"
       id="ellipse3812"
       sodipodi:cx="-1083.61"
       sodipodi:cy="-26.725"
       sodipodi:rx="140.325"
       sodipodi:ry="46.775002"
       d="m -943.28499,-26.725 c 0,25.83311963 -62.82561,46.775001 -140.32501,46.775001 -77.4993,0 -140.325,-20.94188137 -140.325,-46.775001 0,-25.83312 62.8257,-46.775002 140.325,-46.775002 77.4994,0 140.32501,20.941882 140.32501,46.775002 z" />
    <text
       style="font-size:12.80000019px;font-style:normal;font-weight:normal;text-anchor:middle;fill:#000000;font-family:sanserif"
       x="-1083.61"
       y="-22.825001"
       id="text3814">
      <tspan
         x="-1083.61"
         y="-22.825001"
         id="tspan3816">Изменить параметры типа ячейки</tspan>
    </text>
  </g>
  <g
     id="g3818"
     transform="matrix(0.3129126,0,0,0.3129126,-1113.5368,-101.27734)">
    <line
       style="fill:none;stroke:#000000;stroke-width:2;stroke-dasharray:20"
       x1="-1223.9399"
       y1="-31.975"
       x2="-1391.28"
       y2="45.586102"
       id="line3820" />
    <polyline
       style="fill:none;stroke:#000000;stroke-width:2"
       points="-1386.34,37.7848 -1393.31,46.5264 -1382.13,46.8576 "
       id="polyline3822" />
  </g>
  <text
     style="font-size:4.00528145px;font-style:normal;font-weight:normal;text-anchor:start;fill:#000000;font-family:sanserif"
     x="-1526.281"
     y="-95.613632"
     id="text3824">
    <tspan
       x="-1526.281"
       y="-95.613632"
       id="tspan3826">&lt;&lt;расширяет&gt;&gt;</tspan>
  </text>
  <g
     id="g3828"
     transform="matrix(0.3129126,0,0,0.3129126,-1113.5368,-101.27734)">
    <ellipse
       style="fill:#ffffff"
       cx="-972.58801"
       cy="381.28299"
       rx="116.35"
       ry="38.783298"
       id="ellipse3830"
       sodipodi:cx="-972.58801"
       sodipodi:cy="381.28299"
       sodipodi:rx="116.35"
       sodipodi:ry="38.783298"
       d="m -856.23801,381.28299 c 0,21.41942 -52.09167,38.7833 -116.35,38.7833 -64.25829,0 -116.34999,-17.36388 -116.34999,-38.7833 0,-21.41942 52.0917,-38.7833 116.34999,-38.7833 64.25833,0 116.35,17.36388 116.35,38.7833 z" />
    <ellipse
       style="fill:none;stroke:#000000;stroke-width:2"
       cx="-972.58801"
       cy="381.28299"
       rx="116.35"
       ry="38.783298"
       id="ellipse3832"
       sodipodi:cx="-972.58801"
       sodipodi:cy="381.28299"
       sodipodi:rx="116.35"
       sodipodi:ry="38.783298"
       d="m -856.23801,381.28299 c 0,21.41942 -52.09167,38.7833 -116.35,38.7833 -64.25829,0 -116.34999,-17.36388 -116.34999,-38.7833 0,-21.41942 52.0917,-38.7833 116.34999,-38.7833 64.25833,0 116.35,17.36388 116.35,38.7833 z" />
    <text
       style="font-size:12.80000019px;font-style:normal;font-weight:normal;text-anchor:middle;fill:#000000;font-family:sanserif"
       x="-972.58801"
       y="377.18301"
       id="text3834">
      <tspan
         x="-972.58801"
         y="377.18301"
         id="tspan3836">Запрос на открытие</tspan>
      <tspan
         x="-972.58801"
         y="393.18301"
         id="tspan3838">декларации</tspan>
    </text>
  </g>
  <g
     id="g3840"
     transform="matrix(0.3129126,0,0,0.3129126,-1113.5368,-101.27734)">
    <ellipse
       style="fill:#ffffff"
       cx="-1018.94"
       cy="-154.16701"
       rx="115"
       ry="38.333302"
       id="ellipse3842"
       sodipodi:cx="-1018.94"
       sodipodi:cy="-154.16701"
       sodipodi:rx="115"
       sodipodi:ry="38.333302"
       d="m -903.94,-154.16701 c 0,21.1709 -51.48726,38.3333 -115,38.3333 -63.5127,0 -115,-17.1624 -115,-38.3333 0,-21.1709 51.4873,-38.3333 115,-38.3333 63.51274,0 115,17.1624 115,38.3333 z" />
    <ellipse
       style="fill:none;stroke:#000000;stroke-width:2"
       cx="-1018.94"
       cy="-154.16701"
       rx="115"
       ry="38.333302"
       id="ellipse3844"
       sodipodi:cx="-1018.94"
       sodipodi:cy="-154.16701"
       sodipodi:rx="115"
       sodipodi:ry="38.333302"
       d="m -903.94,-154.16701 c 0,21.1709 -51.48726,38.3333 -115,38.3333 -63.5127,0 -115,-17.1624 -115,-38.3333 0,-21.1709 51.4873,-38.3333 115,-38.3333 63.51274,0 115,17.1624 115,38.3333 z" />
    <text
       style="font-size:12.80000019px;font-style:normal;font-weight:normal;text-anchor:middle;fill:#000000;font-family:sanserif"
       x="-1018.94"
       y="-158.267"
       id="text3846">
      <tspan
         x="-1018.94"
         y="-158.267"
         id="tspan3848">Запрос на пересчет</tspan>
      <tspan
         x="-1018.94"
         y="-142.267"
         id="tspan3850">ячейки</tspan>
    </text>
  </g>
  <line
     style="fill:none;stroke:#000000;stroke-width:0.62582523"
     x1="-1363.6384"
     y1="-141.56487"
     x2="-1396.3904"
     y2="-149.51814"
     id="line3852" />
  <line
     style="fill:none;stroke:#000000;stroke-width:0.62582523"
     x1="-1553.4888"
     y1="4.6332474"
     x2="-1454.2798"
     y2="17.045555"
     id="line3854" />
  <line
     style="fill:none;stroke:#000000;stroke-width:0.62582523"
     x1="-1551.8459"
     y1="-155.54674"
     x2="-1468.361"
     y2="-149.51814"
     id="line3856" />
  <line
     style="fill:none;stroke:#000000;stroke-width:0.62582523"
     x1="-1509.2617"
     y1="-139.86385"
     x2="-1457.822"
     y2="-141.03633"
     id="line3858" />
  <line
     style="fill:none;stroke:#000000;stroke-width:0.62582523"
     x1="-1421.5642"
     y1="-119.98949"
     x2="-1432.376"
     y2="-137.52296"
     id="line3860" />
  <g
     id="g3862"
     transform="matrix(0.3129126,0,0,0.3129126,-1113.5368,-101.27734)">
    <ellipse
       style="fill:#ffffff"
       cx="-1009.04"
       cy="80.033302"
       rx="130.60001"
       ry="43.533298"
       id="ellipse3864"
       sodipodi:cx="-1009.04"
       sodipodi:cy="80.033302"
       sodipodi:rx="130.60001"
       sodipodi:ry="43.533298"
       d="m -878.43997,80.033302 c 0,24.042778 -58.47162,43.533298 -130.60003,43.533298 -72.1284,0 -130.6,-19.49052 -130.6,-43.533298 0,-24.042777 58.4716,-43.533298 130.6,-43.533298 72.12841,0 130.60003,19.490521 130.60003,43.533298 z" />
    <ellipse
       style="fill:none;stroke:#000000;stroke-width:2"
       cx="-1009.04"
       cy="80.033302"
       rx="130.60001"
       ry="43.533298"
       id="ellipse3866"
       sodipodi:cx="-1009.04"
       sodipodi:cy="80.033302"
       sodipodi:rx="130.60001"
       sodipodi:ry="43.533298"
       d="m -878.43997,80.033302 c 0,24.042778 -58.47162,43.533298 -130.60003,43.533298 -72.1284,0 -130.6,-19.49052 -130.6,-43.533298 0,-24.042777 58.4716,-43.533298 130.6,-43.533298 72.12841,0 130.60003,19.490521 130.60003,43.533298 z" />
    <text
       style="font-size:12.80000019px;font-style:normal;font-weight:normal;text-anchor:middle;fill:#000000;font-family:sanserif"
       x="-1009.04"
       y="75.933296"
       id="text3868">
      <tspan
         x="-1009.04"
         y="75.933296"
         id="tspan3870">Запрос на</tspan>
      <tspan
         x="-1009.04"
         y="91.933296"
         id="tspan3872">сохранение декларации</tspan>
    </text>
  </g>
  <line
     style="fill:none;stroke:#000000;stroke-width:0.62582523"
     x1="-1484.1943"
     y1="-72.14518"
     x2="-1470.1445"
     y2="-76.233925"
     id="line3874" />
  <g
     id="g3876"
     transform="matrix(0.3129126,0,0,0.3129126,-1113.5368,-101.27734)">
    <ellipse
       style="fill:#ffffff"
       cx="-752.31403"
       cy="113.367"
       rx="125.6"
       ry="41.866699"
       id="ellipse3878"
       sodipodi:cx="-752.31403"
       sodipodi:cy="113.367"
       sodipodi:rx="125.6"
       sodipodi:ry="41.866699"
       d="m -626.71403,113.367 c 0,23.12234 -56.23303,41.8667 -125.6,41.8667 -69.36696,0 -125.59999,-18.74436 -125.59999,-41.8667 0,-23.122343 56.23303,-41.866702 125.59999,-41.866702 69.36697,0 125.6,18.744359 125.6,41.866702 z" />
    <ellipse
       style="fill:none;stroke:#000000;stroke-width:2"
       cx="-752.31403"
       cy="113.367"
       rx="125.6"
       ry="41.866699"
       id="ellipse3880"
       sodipodi:cx="-752.31403"
       sodipodi:cy="113.367"
       sodipodi:rx="125.6"
       sodipodi:ry="41.866699"
       d="m -626.71403,113.367 c 0,23.12234 -56.23303,41.8667 -125.6,41.8667 -69.36696,0 -125.59999,-18.74436 -125.59999,-41.8667 0,-23.122343 56.23303,-41.866702 125.59999,-41.866702 69.36697,0 125.6,18.744359 125.6,41.866702 z" />
    <text
       style="font-size:12.80000019px;font-style:normal;font-weight:normal;text-anchor:middle;fill:#000000;font-family:sanserif"
       x="-752.31403"
       y="109.267"
       id="text3882">
      <tspan
         x="-752.31403"
         y="109.267"
         id="tspan3884">Запрос на получение</tspan>
      <tspan
         x="-752.31403"
         y="125.267"
         id="tspan3886">состояния декларации</tspan>
    </text>
  </g>
  <line
     style="fill:none;stroke:#000000;stroke-width:0.62582523"
     x1="-1553.4888"
     y1="-10.198813"
     x2="-1388.2472"
     y2="-66.950851"
     id="line3888" />
  <g
     id="g3890"
     transform="matrix(0.3129126,0,0,0.3129126,-1113.5368,-101.27734)">
    <rect
       style="fill:#ffffff"
       x="-804.57001"
       y="-150.5"
       width="105.55"
       height="87"
       id="rect3892" />
    <rect
       style="fill:none;stroke:#000000;stroke-width:2"
       x="-804.57001"
       y="-150.5"
       width="105.55"
       height="87"
       id="rect3894" />
    <text
       style="font-size:12.80000019px;font-style:normal;font-weight:normal;text-anchor:middle;fill:#000000;font-family:sanserif"
       x="-751.79498"
       y="-103.1"
       id="text3896">
      <tspan
         x="-751.79498"
         y="-103.1"
         id="tspan3898">Веб-браузер</tspan>
    </text>
  </g>
  <line
     style="fill:none;stroke:#000000;stroke-width:0.62582523"
     x1="-1363.6384"
     y1="-121.14732"
     x2="-1400.38"
     y2="-85.866219"
     id="line3900" />
  <line
     style="fill:none;stroke:#000000;stroke-width:0.62582523"
     x1="-1352.3873"
     y1="-78.904091"
     x2="-1348.7826"
     y2="-121.14732"
     id="line3902" />
  <g
     id="g3904"
     transform="matrix(0.3129126,0,0,0.3129126,-1113.5368,-101.27734)">
    <rect
       style="fill:#ffffff"
       x="-793.62"
       y="215.5"
       width="105.55"
       height="156.5"
       id="rect3906" />
    <rect
       style="fill:none;stroke:#000000;stroke-width:2"
       x="-793.62"
       y="215.5"
       width="105.55"
       height="156.5"
       id="rect3908" />
    <text
       style="font-size:12.80000019px;font-style:normal;font-weight:normal;text-anchor:middle;fill:#000000;font-family:sanserif"
       x="-740.84497"
       y="297.64999"
       id="text3910">
      <tspan
         x="-740.84497"
         y="297.64999"
         id="tspan3912">Веб-браузер</tspan>
    </text>
  </g>
  <line
     style="fill:none;stroke:#000000;stroke-width:0.62582523"
     x1="-1392.1279"
     y1="9.4495926"
     x2="-1361.8705"
     y2="-9.3592749"
     id="line3914" />
  <line
     style="fill:none;stroke:#000000;stroke-width:0.62582523;stroke-dasharray:2.5033008"
     x1="-1298.3646"
     y1="-174.57713"
     x2="-1298.2554"
     y2="112.28549"
     id="line3916" />
</svg>
