<?xml version="1.0" encoding="UTF-8" standalone="no"?>
<svg
   xmlns:v="http://schemas.microsoft.com/visio/2003/SVGExtensions/"
   xmlns:dc="http://purl.org/dc/elements/1.1/"
   xmlns:cc="http://creativecommons.org/ns#"
   xmlns:rdf="http://www.w3.org/1999/02/22-rdf-syntax-ns#"
   xmlns:svg="http://www.w3.org/2000/svg"
   xmlns="http://www.w3.org/2000/svg"
   xmlns:sodipodi="http://sodipodi.sourceforge.net/DTD/sodipodi-0.dtd"
   xmlns:inkscape="http://www.inkscape.org/namespaces/inkscape"
   width="1052.3625"
   height="744.09448"
   viewBox="27 89 589.3484 415.60465"
   id="svg2816"
   version="1.1"
   inkscape:version="0.47 r22583"
   sodipodi:docname="plakat-1.svg"
   inkscape:export-filename="/home/whiter4bbit/documents/tex/diploma/plakat/diagrams/svg/plakat-1.pdf.png"
   inkscape:export-xdpi="90"
   inkscape:export-ydpi="90">
  <metadata
     id="metadata3140">
    <rdf:RDF>
      <cc:Work
         rdf:about="">
        <dc:format>image/svg+xml</dc:format>
        <dc:type
           rdf:resource="http://purl.org/dc/dcmitype/StillImage" />
        <dc:title />
      </cc:Work>
    </rdf:RDF>
  </metadata>
  <defs
     id="defs3138">
    <inkscape:perspective
       sodipodi:type="inkscape:persp3d"
       inkscape:vp_x="0 : 761.81104 : 1"
       inkscape:vp_y="0 : 1000 : 0"
       inkscape:vp_z="2940.9448 : 761.81104 : 1"
       inkscape:persp3d-origin="1470.4724 : 507.87402 : 1"
       id="perspective3142" />
    <inkscape:perspective
       id="perspective12898"
       inkscape:persp3d-origin="0.5 : 0.33333333 : 1"
       inkscape:vp_z="1 : 0.5 : 1"
       inkscape:vp_y="0 : 1000 : 0"
       inkscape:vp_x="0 : 0.5 : 1"
       sodipodi:type="inkscape:persp3d" />
    <inkscape:perspective
       id="perspective14281"
       inkscape:persp3d-origin="0.5 : 0.33333333 : 1"
       inkscape:vp_z="1 : 0.5 : 1"
       inkscape:vp_y="0 : 1000 : 0"
       inkscape:vp_x="0 : 0.5 : 1"
       sodipodi:type="inkscape:persp3d" />
    <inkscape:perspective
       id="perspective14303"
       inkscape:persp3d-origin="0.5 : 0.33333333 : 1"
       inkscape:vp_z="1 : 0.5 : 1"
       inkscape:vp_y="0 : 1000 : 0"
       inkscape:vp_x="0 : 0.5 : 1"
       sodipodi:type="inkscape:persp3d" />
    <inkscape:perspective
       id="perspective14325"
       inkscape:persp3d-origin="0.5 : 0.33333333 : 1"
       inkscape:vp_z="1 : 0.5 : 1"
       inkscape:vp_y="0 : 1000 : 0"
       inkscape:vp_x="0 : 0.5 : 1"
       sodipodi:type="inkscape:persp3d" />
    <inkscape:perspective
       id="perspective16117"
       inkscape:persp3d-origin="0.5 : 0.33333333 : 1"
       inkscape:vp_z="1 : 0.5 : 1"
       inkscape:vp_y="0 : 1000 : 0"
       inkscape:vp_x="0 : 0.5 : 1"
       sodipodi:type="inkscape:persp3d" />
    <inkscape:perspective
       id="perspective16621"
       inkscape:persp3d-origin="0.5 : 0.33333333 : 1"
       inkscape:vp_z="1 : 0.5 : 1"
       inkscape:vp_y="0 : 1000 : 0"
       inkscape:vp_x="0 : 0.5 : 1"
       sodipodi:type="inkscape:persp3d" />
  </defs>
  <sodipodi:namedview
     pagecolor="#ffffff"
     bordercolor="#666666"
     borderopacity="1"
     objecttolerance="10"
     gridtolerance="10"
     guidetolerance="10"
     inkscape:pageopacity="0"
     inkscape:pageshadow="2"
     inkscape:window-width="1281"
     inkscape:window-height="846"
     id="namedview3136"
     showgrid="false"
     inkscape:zoom="0.6195762"
     inkscape:cx="640.43701"
     inkscape:cy="428.24899"
     inkscape:window-x="157"
     inkscape:window-y="66"
     inkscape:window-maximized="0"
     inkscape:current-layer="svg2816"
     units="mm"
     inkscape:document-units="pt"
     borderlayer="false" />
  <text
     style="font-size:5.51629543px;font-style:normal;font-weight:normal;text-anchor:start;fill:#000000;font-family:sanserif"
     x="374.86292"
     y="338.85791"
     id="text2958">
    <tspan
       x="374.86292"
       y="338.85791"
       id="tspan2960" />
  </text>
  <text
     style="font-size:5.51629543px;font-style:normal;font-weight:normal;text-anchor:start;fill:#000000;font-family:sanserif"
     x="508.31616"
     y="338.04541"
     id="text3052">
    <tspan
       x="508.31616"
       y="338.04541"
       id="tspan3054" />
  </text>
  <text
     x="560.01331"
     y="453.34387"
     class="st12"
     v:langID="1049"
     id="text405"
     style="font-size:3.19732976px;fill:#000000;font-family:Arial"
     transform="scale(0.94366463,1.0596985)">
    <tspan
       x="563.61035"
       dy="0 0 0 0 0 0 0 0 0 0 0 0 0 0 0 0 0 0 0 0 0 0 0 0 0 0 0 0 0 0 0 0 0 0 0 0 0 0 0 0 0 0 0 0 0 0"
       class="st3"
       id="tspan409"
       style="font-size:3.19732976px" />
  </text>
  <text
     x="532.65985"
     y="461.61829"
     class="st9"
     v:langID="1033"
     id="text3702"
     style="font-size:2.13155317px;text-align:center;text-anchor:middle;fill:#000000;font-family:Arial"
     transform="scale(0.94366463,1.0596985)" />
  <g
     transform="matrix(0.31070075,0,0,0.34947835,69.908486,104.18177)"
     id="g15783">
    <ellipse
       sodipodi:ry="52.000999"
       sodipodi:rx="156.00301"
       sodipodi:cy="459.00101"
       sodipodi:cx="192.00301"
       d="m 348.00601,459.00101 c 0,28.71936 -69.84492,52.001 -156.003,52.001 C 105.84492,511.00201 36,487.72037 36,459.00101 c 0,-28.71936 69.84492,-52.001 156.00301,-52.001 86.15808,0 156.003,23.28164 156.003,52.001 z"
       style="fill:#ffffff"
       cx="192.00301"
       cy="459.00101"
       rx="156.00301"
       ry="52.000999"
       id="ellipse15785" />
    <ellipse
       sodipodi:ry="52.000999"
       sodipodi:rx="156.00301"
       sodipodi:cy="459.00101"
       sodipodi:cx="192.00301"
       d="m 348.00601,459.00101 c 0,28.71936 -69.84492,52.001 -156.003,52.001 C 105.84492,511.00201 36,487.72037 36,459.00101 c 0,-28.71936 69.84492,-52.001 156.00301,-52.001 86.15808,0 156.003,23.28164 156.003,52.001 z"
       style="fill:none;stroke:#000000;stroke-width:2"
       cx="192.00301"
       cy="459.00101"
       rx="156.00301"
       ry="52.000999"
       id="ellipse15787" />
    <text
       style="font-size:22.96159935px;font-style:normal;font-weight:normal;text-anchor:middle;fill:#000000;font-family:Bitstream Vera Sans"
       x="192.00301"
       y="466"
       id="text15789">
      <tspan
         x="192.00301"
         y="466"
         id="tspan15791">Мини-бухгалтерия</tspan>
    </text>
  </g>
  <g
     transform="matrix(0.31070075,0,0,0.34947835,69.908486,104.18177)"
     id="g15793">
    <ellipse
       sodipodi:ry="86.106003"
       sodipodi:rx="215.39999"
       sodipodi:cy="490.306"
       sodipodi:cx="625.79999"
       d="m 841.19998,490.306 c 0,47.55503 -96.43786,86.106 -215.39999,86.106 -118.96213,0 -215.4,-38.55097 -215.4,-86.106 0,-47.55503 96.43787,-86.106 215.4,-86.106 118.96213,0 215.39999,38.55097 215.39999,86.106 z"
       style="fill:#ffffff"
       cx="625.79999"
       cy="490.306"
       rx="215.39999"
       ry="86.106003"
       id="ellipse15795" />
    <ellipse
       sodipodi:ry="86.106003"
       sodipodi:rx="215.39999"
       sodipodi:cy="490.306"
       sodipodi:cx="625.79999"
       d="m 841.19998,490.306 c 0,47.55503 -96.43786,86.106 -215.39999,86.106 -118.96213,0 -215.4,-38.55097 -215.4,-86.106 0,-47.55503 96.43787,-86.106 215.4,-86.106 118.96213,0 215.39999,38.55097 215.39999,86.106 z"
       style="fill:none;stroke:#000000;stroke-width:2"
       cx="625.79999"
       cy="490.306"
       rx="215.39999"
       ry="86.106003"
       id="ellipse15797" />
    <text
       style="font-size:22.96159935px;font-style:normal;font-weight:normal;text-anchor:middle;fill:#000000;font-family:Bitstream Vera Sans"
       x="625.79999"
       y="468.603"
       id="text15799">
      <tspan
         x="625.79999"
         y="468.603"
         id="tspan15801">Интегрированная</tspan>
      <tspan
         x="625.79999"
         y="497.30499"
         id="tspan15803">бухгалтерская</tspan>
      <tspan
         x="625.79999"
         y="526.00702"
         id="tspan15805">система</tspan>
    </text>
  </g>
  <g
     transform="matrix(0.31070075,0,0,0.34947835,69.908486,104.18177)"
     id="g15807">
    <ellipse
       sodipodi:ry="59.060299"
       sodipodi:rx="177.181"
       sodipodi:cy="465.26001"
       sodipodi:cx="1067.58"
       d="m 1244.761,465.26001 c 0,32.6181 -79.3267,59.0603 -177.181,59.0603 -97.85441,0 -177.18104,-26.4422 -177.18104,-59.0603 0,-32.6181 79.32663,-59.0603 177.18104,-59.0603 97.8543,0 177.181,26.4422 177.181,59.0603 z"
       style="fill:#ffffff"
       cx="1067.58"
       cy="465.26001"
       rx="177.181"
       ry="59.060299"
       id="ellipse15809" />
    <ellipse
       sodipodi:ry="59.060299"
       sodipodi:rx="177.181"
       sodipodi:cy="465.26001"
       sodipodi:cx="1067.58"
       d="m 1244.761,465.26001 c 0,32.6181 -79.3267,59.0603 -177.181,59.0603 -97.85441,0 -177.18104,-26.4422 -177.18104,-59.0603 0,-32.6181 79.32663,-59.0603 177.18104,-59.0603 97.8543,0 177.181,26.4422 177.181,59.0603 z"
       style="fill:none;stroke:#000000;stroke-width:2"
       cx="1067.58"
       cy="465.26001"
       rx="177.181"
       ry="59.060299"
       id="ellipse15811" />
    <text
       style="font-size:22.96159935px;font-style:normal;font-weight:normal;text-anchor:middle;fill:#000000;font-family:Bitstream Vera Sans"
       x="1067.58"
       y="457.90799"
       id="text15813">
      <tspan
         x="1067.58"
         y="457.90799"
         id="tspan15815">Бухгалтерский</tspan>
      <tspan
         x="1067.58"
         y="486.60999"
         id="tspan15817">конструктор</tspan>
    </text>
  </g>
  <g
     transform="matrix(0.31070075,0,0,0.34947835,60.960505,104.18177)"
     id="g15819">
    <polygon
       style="fill:#ffffff"
       points="47.604,619.14 65.104,633.89 47.604,648.64 47.604,641.265 30.104,641.265 30.104,626.515 47.604,626.515 "
       id="polygon15821" />
    <polygon
       style="fill:none;stroke:#000000;stroke-width:2"
       points="47.604,619.14 65.104,633.89 47.604,648.64 47.604,641.265 30.104,641.265 30.104,626.515 47.604,626.515 "
       id="polygon15823" />
    <polygon
       style="fill:none;stroke:#000000;stroke-width:2"
       points="47.604,619.14 65.104,633.89 47.604,648.64 47.604,641.265 30.104,641.265 30.104,626.515 47.604,626.515 "
       id="polygon15825" />
  </g>
  <g
     transform="matrix(0.31070075,0,0,0.34947835,60.960505,104.18177)"
     id="g15833">
    <polygon
       style="fill:#ffffff"
       points="46.104,675.44 63.604,690.19 46.104,704.94 46.104,697.565 28.604,697.565 28.604,682.815 46.104,682.815 "
       id="polygon15835" />
    <polygon
       style="fill:none;stroke:#000000;stroke-width:2"
       points="46.104,675.44 63.604,690.19 46.104,704.94 46.104,697.565 28.604,697.565 28.604,682.815 46.104,682.815 "
       id="polygon15837" />
    <polygon
       style="fill:none;stroke:#000000;stroke-width:2"
       points="46.104,675.44 63.604,690.19 46.104,704.94 46.104,697.565 28.604,697.565 28.604,682.815 46.104,682.815 "
       id="polygon15839" />
  </g>
  <text
     style="font-size:6.72028923px;font-style:normal;font-weight:normal;text-anchor:start;fill:#000000;font-family:Bitstream Vera Sans"
     x="90.883911"
     y="324.56458"
     id="text15841"
     transform="scale(0.94288992,1.0605692)">
    <tspan
       x="90.883911"
       y="324.56458"
       id="tspan15843"
       style="font-size:6.72028923px">Небольшой набор учетных</tspan>
    <tspan
       x="90.883911"
       y="331.69739"
       id="tspan15845"
       style="font-size:6.72028923px">операций</tspan>
  </text>
  <g
     transform="matrix(0.31070075,0,0,0.34947835,60.960505,104.18177)"
     id="g15847">
    <polygon
       style="fill:#ffffff"
       points="46.104,727.44 63.604,742.19 46.104,756.94 46.104,749.565 28.604,749.565 28.604,734.815 46.104,734.815 "
       id="polygon15849" />
    <polygon
       style="fill:none;stroke:#000000;stroke-width:2"
       points="46.104,727.44 63.604,742.19 46.104,756.94 46.104,749.565 28.604,749.565 28.604,734.815 46.104,734.815 "
       id="polygon15851" />
    <polygon
       style="fill:none;stroke:#000000;stroke-width:2"
       points="46.104,727.44 63.604,742.19 46.104,756.94 46.104,749.565 28.604,749.565 28.604,734.815 46.104,734.815 "
       id="polygon15853" />
  </g>
  <text
     style="font-size:6.72028923px;font-style:normal;font-weight:normal;text-anchor:start;fill:#000000;font-family:Bitstream Vera Sans"
     x="90.196655"
     y="342.05676"
     id="text15855"
     transform="scale(0.94288992,1.0605692)">
    <tspan
       x="90.196655"
       y="342.05676"
       id="tspan15857"
       style="font-size:6.72028923px">Оформление небольшого набора</tspan>
    <tspan
       x="90.196655"
       y="349.18958"
       id="tspan15859"
       style="font-size:6.72028923px">первичных документов</tspan>
  </text>
  <g
     transform="matrix(0.31070075,0,0,0.34947835,69.908486,104.18177)"
     id="g15861">
    <polygon
       style="fill:#ffffff"
       points="434.494,624.815 434.494,617.44 451.994,632.19 434.494,646.94 434.494,639.565 416.994,639.565 416.994,624.815 "
       id="polygon15863" />
    <polygon
       style="fill:none;stroke:#000000;stroke-width:2"
       points="434.494,624.815 434.494,617.44 451.994,632.19 434.494,646.94 434.494,639.565 416.994,639.565 416.994,624.815 "
       id="polygon15865" />
    <polygon
       style="fill:none;stroke:#000000;stroke-width:2"
       points="434.494,624.815 434.494,617.44 451.994,632.19 434.494,646.94 434.494,639.565 416.994,639.565 416.994,624.815 "
       id="polygon15867" />
  </g>
  <text
     style="font-size:6.72028923px;font-style:normal;font-variant:normal;font-weight:normal;font-stretch:normal;text-anchor:start;fill:#000000;font-family:Arial;-inkscape-font-specification:Arial"
     x="228.3654"
     y="307.12805"
     id="text15869"
     transform="scale(0.94288992,1.0605692)">
    <tspan
       x="228.3654"
       y="307.12805"
       id="tspan15871"
       style="font-size:6.72028923px;font-style:normal;font-variant:normal;font-weight:normal;font-stretch:normal;font-family:Arial;-inkscape-font-specification:Arial">Огранизация работы в локальной сети</tspan>
  </text>
  <g
     transform="matrix(0.31070075,0,0,0.34947835,69.908486,104.18177)"
     id="g15873">
    <polygon
       style="fill:#ffffff"
       points="434.858,681.365 434.858,673.99 452.358,688.74 434.858,703.49 434.858,696.115 417.358,696.115 417.358,681.365 "
       id="polygon15875" />
    <polygon
       style="fill:none;stroke:#000000;stroke-width:2"
       points="434.858,681.365 434.858,673.99 452.358,688.74 434.858,703.49 434.858,696.115 417.358,696.115 417.358,681.365 "
       id="polygon15877" />
    <polygon
       style="fill:none;stroke:#000000;stroke-width:2"
       points="434.858,681.365 434.858,673.99 452.358,688.74 434.858,703.49 434.858,696.115 417.358,696.115 417.358,681.365 "
       id="polygon15879" />
  </g>
  <text
     style="font-size:6.72028923px;font-style:normal;font-variant:normal;font-weight:normal;font-stretch:normal;text-anchor:start;fill:#000000;font-family:Arial;-inkscape-font-specification:Arial"
     x="227.81689"
     y="323.78528"
     id="text15881"
     transform="scale(0.94288992,1.0605692)">
    <tspan
       x="227.81689"
       y="323.78528"
       id="tspan15883"
       style="font-size:6.72028923px;font-style:normal;font-variant:normal;font-weight:normal;font-stretch:normal;font-family:Arial;-inkscape-font-specification:Arial">Использование централизированного</tspan>
    <tspan
       x="227.81689"
       y="330.91809"
       id="tspan15885"
       style="font-size:6.72028923px;font-style:normal;font-variant:normal;font-weight:normal;font-stretch:normal;font-family:Arial;-inkscape-font-specification:Arial">хранилища (СУБД)</tspan>
  </text>
  <g
     transform="matrix(0.31070075,0,0,0.34947835,69.908486,104.18177)"
     id="g15887">
    <polygon
       style="fill:#ffffff"
       points="434.858,732.815 434.858,725.44 452.358,740.19 434.858,754.94 434.858,747.565 417.358,747.565 417.358,732.815 "
       id="polygon15889" />
    <polygon
       style="fill:none;stroke:#000000;stroke-width:2"
       points="434.858,732.815 434.858,725.44 452.358,740.19 434.858,754.94 434.858,747.565 417.358,747.565 417.358,732.815 "
       id="polygon15891" />
    <polygon
       style="fill:none;stroke:#000000;stroke-width:2"
       points="434.858,732.815 434.858,725.44 452.358,740.19 434.858,754.94 434.858,747.565 417.358,747.565 417.358,732.815 "
       id="polygon15893" />
  </g>
  <text
     style="font-size:6.72028923px;font-style:normal;font-variant:normal;font-weight:normal;font-stretch:normal;text-anchor:start;fill:#000000;font-family:Arial;-inkscape-font-specification:Arial"
     x="226.82834"
     y="341.72766"
     id="text15895"
     transform="scale(0.94288992,1.0605692)">
    <tspan
       x="226.82834"
       y="341.72766"
       id="tspan15897"
       style="font-size:6.72028923px;font-style:normal;font-variant:normal;font-weight:normal;font-stretch:normal;font-family:Arial;-inkscape-font-specification:Arial">Ведение учета по всем основным</tspan>
    <tspan
       x="226.82834"
       y="348.86047"
       id="tspan15899"
       style="font-size:6.72028923px;font-style:normal;font-variant:normal;font-weight:normal;font-stretch:normal;font-family:Arial;-inkscape-font-specification:Arial">участкам</tspan>
  </text>
  <g
     transform="matrix(0.31070075,0,0,0.34947835,69.908486,104.18177)"
     id="g15901">
    <polygon
       style="fill:#ffffff"
       points="926.068,627.365 926.068,619.99 943.568,634.74 926.068,649.49 926.068,642.115 908.568,642.115 908.568,627.365 "
       id="polygon15903" />
    <polygon
       style="fill:none;stroke:#000000;stroke-width:2"
       points="926.068,627.365 926.068,619.99 943.568,634.74 926.068,649.49 926.068,642.115 908.568,642.115 908.568,627.365 "
       id="polygon15905" />
    <polygon
       style="fill:none;stroke:#000000;stroke-width:2"
       points="926.068,627.365 926.068,619.99 943.568,634.74 926.068,649.49 926.068,642.115 908.568,642.115 908.568,627.365 "
       id="polygon15907" />
  </g>
  <text
     style="font-size:6.72028923px;font-style:normal;font-variant:normal;font-weight:normal;font-stretch:normal;text-anchor:start;fill:#000000;font-family:Arial;-inkscape-font-specification:Arial"
     x="390.00974"
     y="305.00208"
     id="text15909"
     transform="scale(0.94288992,1.0605692)">
    <tspan
       x="390.00974"
       y="305.00208"
       id="tspan15911"
       style="font-size:6.72028923px;font-style:normal;font-variant:normal;font-weight:normal;font-stretch:normal;font-family:Arial;-inkscape-font-specification:Arial">Наличие встроенного</tspan>
    <tspan
       x="390.00974"
       y="312.13489"
       id="tspan15913"
       style="font-size:6.72028923px;font-style:normal;font-variant:normal;font-weight:normal;font-stretch:normal;font-family:Arial;-inkscape-font-specification:Arial">языка программирования</tspan>
  </text>
  <g
     transform="matrix(0.31070075,0,0,0.34947835,69.908486,104.18177)"
     id="g15915">
    <polygon
       style="fill:#ffffff"
       points="924.17,684.365 924.17,676.99 941.67,691.74 924.17,706.49 924.17,699.115 906.67,699.115 906.67,684.365 "
       id="polygon15917" />
    <polygon
       style="fill:none;stroke:#000000;stroke-width:2"
       points="924.17,684.365 924.17,676.99 941.67,691.74 924.17,706.49 924.17,699.115 906.67,699.115 906.67,684.365 "
       id="polygon15919" />
    <polygon
       style="fill:none;stroke:#000000;stroke-width:2"
       points="924.17,684.365 924.17,676.99 941.67,691.74 924.17,706.49 924.17,699.115 906.67,699.115 906.67,684.365 "
       id="polygon15921" />
  </g>
  <text
     style="font-size:5.706357px;font-style:normal;font-weight:normal;text-anchor:start;fill:#000000;font-family:Bitstream Vera Sans"
     x="389.38434"
     y="324.77356"
     id="text15923"
     transform="scale(0.94288992,1.0605692)">
    <tspan
       x="389.38434"
       y="324.77356"
       id="tspan15925" />
  </text>
  <text
     style="font-size:6.72028923px;font-style:normal;font-variant:normal;font-weight:normal;font-stretch:normal;text-anchor:start;fill:#000000;font-family:Arial;-inkscape-font-specification:Arial"
     x="390.80719"
     y="325.58118"
     id="text15927"
     transform="scale(0.94288992,1.0605692)">
    <tspan
       x="390.80719"
       y="325.58118"
       id="tspan15929"
       style="font-size:6.72028923px;font-style:normal;font-variant:normal;font-weight:normal;font-stretch:normal;font-family:Arial;-inkscape-font-specification:Arial">Позволяют изменять методику</tspan>
    <tspan
       x="390.80719"
       y="332.71399"
       id="tspan15931"
       style="font-size:6.72028923px;font-style:normal;font-variant:normal;font-weight:normal;font-stretch:normal;font-family:Arial;-inkscape-font-specification:Arial">учета</tspan>
  </text>
  <g
     transform="matrix(0.31070075,0,0,0.34947835,69.908486,104.18177)"
     id="g15933">
    <polygon
       style="fill:#ffffff"
       points="165.606,814.64 155.606,814.64 175.606,834.64 195.606,814.64 185.606,814.64 185.606,794.64 165.606,794.64 "
       id="polygon15935" />
    <polygon
       style="fill:none;stroke:#000000;stroke-width:2"
       points="165.606,814.64 155.606,814.64 175.606,834.64 195.606,814.64 185.606,814.64 185.606,794.64 165.606,794.64 "
       id="polygon15937" />
    <polygon
       style="fill:none;stroke:#000000;stroke-width:2"
       points="165.606,814.64 155.606,814.64 175.606,834.64 195.606,814.64 185.606,814.64 185.606,794.64 165.606,794.64 "
       id="polygon15939" />
  </g>
  <text
     style="font-size:6.72028923px;font-style:normal;font-variant:normal;font-weight:normal;font-stretch:normal;text-anchor:start;fill:#000000;font-family:Arial;-inkscape-font-specification:Arial"
     x="108.96085"
     y="384.46594"
     id="text15941"
     transform="scale(0.94288992,1.0605692)">
    <tspan
       x="108.96085"
       y="384.46594"
       id="tspan15943"
       style="font-size:6.72028923px;font-style:normal;font-variant:normal;font-weight:normal;font-stretch:normal;font-family:Arial;-inkscape-font-specification:Arial">1С</tspan>
  </text>
  <text
     style="font-size:6.72028923px;font-style:normal;font-variant:normal;font-weight:normal;font-stretch:normal;text-anchor:start;fill:#000000;font-family:Arial;-inkscape-font-specification:Arial"
     x="109.29037"
     y="393.60266"
     id="text15945"
     transform="scale(0.94288992,1.0605692)">
    <tspan
       x="109.29037"
       y="393.60266"
       id="tspan15947"
       style="font-size:6.72028923px;font-style:normal;font-variant:normal;font-weight:normal;font-stretch:normal;font-family:Arial;-inkscape-font-specification:Arial">ИнфоСофт</tspan>
  </text>
  <text
     style="font-size:6.72028923px;font-style:normal;font-variant:normal;font-weight:normal;font-stretch:normal;text-anchor:start;fill:#000000;font-family:Arial;-inkscape-font-specification:Arial"
     x="109.27158"
     y="404.20422"
     id="text15949"
     transform="scale(0.94288992,1.0605692)">
    <tspan
       x="109.27158"
       y="404.20422"
       id="tspan15951"
       style="font-size:6.72028923px;font-style:normal;font-variant:normal;font-weight:normal;font-stretch:normal;font-family:Arial;-inkscape-font-specification:Arial">Инфофин</tspan>
  </text>
  <text
     style="font-size:6.72028923px;font-style:normal;font-variant:normal;font-weight:normal;font-stretch:normal;text-anchor:start;fill:#000000;font-family:Arial;-inkscape-font-specification:Arial"
     x="247.01077"
     y="385.09192"
     id="text15953"
     transform="scale(0.94288992,1.0605692)">
    <tspan
       x="247.01077"
       y="385.09192"
       id="tspan15955"
       style="font-size:6.72028923px;font-style:normal;font-variant:normal;font-weight:normal;font-stretch:normal;font-family:Arial;-inkscape-font-specification:Arial">1С</tspan>
  </text>
  <g
     transform="matrix(0.31070075,0,0,0.34947835,69.908486,104.18177)"
     id="g15957">
    <polygon
       style="fill:#ffffff"
       points="567.02,811.84 557.02,811.84 577.02,831.84 597.02,811.84 587.02,811.84 587.02,791.84 567.02,791.84 "
       id="polygon15959" />
    <polygon
       style="fill:none;stroke:#000000;stroke-width:2"
       points="567.02,811.84 557.02,811.84 577.02,831.84 597.02,811.84 587.02,811.84 587.02,791.84 567.02,791.84 "
       id="polygon15961" />
    <polygon
       style="fill:none;stroke:#000000;stroke-width:2"
       points="567.02,811.84 557.02,811.84 577.02,831.84 597.02,811.84 587.02,811.84 587.02,791.84 567.02,791.84 "
       id="polygon15963" />
  </g>
  <text
     style="font-size:6.72028923px;font-style:normal;font-variant:normal;font-weight:normal;font-stretch:normal;text-anchor:start;fill:#000000;font-family:Arial;-inkscape-font-specification:Arial"
     x="247.34027"
     y="394.27649"
     id="text15965"
     transform="scale(0.94288992,1.0605692)">
    <tspan
       x="247.34027"
       y="394.27649"
       id="tspan15967"
       style="font-size:6.72028923px;font-style:normal;font-variant:normal;font-weight:normal;font-stretch:normal;font-family:Arial;-inkscape-font-specification:Arial">Галлактика</tspan>
  </text>
  <text
     style="font-size:6.72028923px;font-style:normal;font-variant:normal;font-weight:normal;font-stretch:normal;text-anchor:start;fill:#000000;font-family:Arial;-inkscape-font-specification:Arial"
     x="247.01077"
     y="403.18762"
     id="text15969"
     transform="scale(0.94288992,1.0605692)">
    <tspan
       x="247.01077"
       y="403.18762"
       id="tspan15971"
       style="font-size:6.72028923px;font-style:normal;font-variant:normal;font-weight:normal;font-stretch:normal;font-family:Arial;-inkscape-font-specification:Arial">Парус</tspan>
  </text>
  <g
     transform="matrix(0.31070075,0,0,0.34947835,69.908486,104.18177)"
     id="g15973">
    <polygon
       style="fill:#ffffff"
       points="1033.02,807.84 1023.02,807.84 1043.02,827.84 1063.02,807.84 1053.02,807.84 1053.02,787.84 1033.02,787.84 "
       id="polygon15975" />
    <polygon
       style="fill:none;stroke:#000000;stroke-width:2"
       points="1033.02,807.84 1023.02,807.84 1043.02,827.84 1063.02,807.84 1053.02,807.84 1053.02,787.84 1033.02,787.84 "
       id="polygon15977" />
    <polygon
       style="fill:none;stroke:#000000;stroke-width:2"
       points="1033.02,807.84 1023.02,807.84 1043.02,827.84 1063.02,807.84 1053.02,807.84 1053.02,787.84 1033.02,787.84 "
       id="polygon15979" />
  </g>
  <text
     style="font-size:6.72028923px;font-style:normal;font-variant:normal;font-weight:normal;font-stretch:normal;text-anchor:start;fill:#000000;font-family:Arial;-inkscape-font-specification:Arial"
     x="405.84052"
     y="383.90637"
     id="text15981"
     transform="scale(0.94288992,1.0605692)">
    <tspan
       x="405.84052"
       y="383.90637"
       id="tspan15983"
       style="font-size:6.72028923px;font-style:normal;font-variant:normal;font-weight:normal;font-stretch:normal;font-family:Arial;-inkscape-font-specification:Arial">1С</tspan>
  </text>
  <g
     transform="matrix(0.31070075,0,0,0.34947835,69.908486,104.18177)"
     id="g15985">
    <ellipse
       sodipodi:ry="62.9603"
       sodipodi:rx="188.881"
       sodipodi:cy="466.79999"
       sodipodi:cx="1484.49"
       d="m 1673.371,466.79999 c 0,34.77201 -84.5649,62.9603 -188.881,62.9603 -104.3161,0 -188.881,-28.18829 -188.881,-62.9603 0,-34.77202 84.5649,-62.9603 188.881,-62.9603 104.3161,0 188.881,28.18828 188.881,62.9603 z"
       style="fill:#ffffff"
       cx="1484.49"
       cy="466.79999"
       rx="188.881"
       ry="62.9603"
       id="ellipse15987" />
    <ellipse
       sodipodi:ry="62.9603"
       sodipodi:rx="188.881"
       sodipodi:cy="466.79999"
       sodipodi:cx="1484.49"
       d="m 1673.371,466.79999 c 0,34.77201 -84.5649,62.9603 -188.881,62.9603 -104.3161,0 -188.881,-28.18829 -188.881,-62.9603 0,-34.77202 84.5649,-62.9603 188.881,-62.9603 104.3161,0 188.881,28.18828 188.881,62.9603 z"
       style="fill:none;stroke:#000000;stroke-width:2"
       cx="1484.49"
       cy="466.79999"
       rx="188.881"
       ry="62.9603"
       id="ellipse15989" />
    <text
       style="font-size:22.96159935px;font-style:normal;font-weight:normal;text-anchor:middle;fill:#000000;font-family:Bitstream Vera Sans"
       x="1484.49"
       y="459.448"
       id="text15991">
      <tspan
         x="1484.49"
         y="459.448"
         id="tspan15993">Управленческие</tspan>
      <tspan
         x="1484.49"
         y="488.14999"
         id="tspan15995">системы</tspan>
    </text>
  </g>
  <g
     transform="matrix(0.31070075,0,0,0.34947835,69.908486,104.18177)"
     id="g15997">
    <polygon
       style="fill:#ffffff"
       points="1345.01,624.815 1345.01,617.44 1362.51,632.19 1345.01,646.94 1345.01,639.565 1327.51,639.565 1327.51,624.815 "
       id="polygon15999" />
    <polygon
       style="fill:none;stroke:#000000;stroke-width:2"
       points="1345.01,624.815 1345.01,617.44 1362.51,632.19 1345.01,646.94 1345.01,639.565 1327.51,639.565 1327.51,624.815 "
       id="polygon16001" />
    <polygon
       style="fill:none;stroke:#000000;stroke-width:2"
       points="1345.01,624.815 1345.01,617.44 1362.51,632.19 1345.01,646.94 1345.01,639.565 1327.51,639.565 1327.51,624.815 "
       id="polygon16003" />
  </g>
  <text
     style="font-size:6.72028923px;font-style:normal;font-variant:normal;font-weight:normal;font-stretch:normal;text-anchor:start;fill:#000000;font-family:Arial;-inkscape-font-specification:Arial"
     x="528.05939"
     y="304.16223"
     id="text16005"
     transform="scale(0.94288992,1.0605692)">
    <tspan
       x="528.05939"
       y="304.16223"
       id="tspan16007"
       style="font-size:6.72028923px;font-style:normal;font-variant:normal;font-weight:normal;font-stretch:normal;font-family:Arial;-inkscape-font-specification:Arial">Управленческий учет</tspan>
  </text>
  <g
     transform="matrix(0.31070075,0,0,0.34947835,69.908486,104.18177)"
     id="g16009">
    <polygon
       style="fill:#ffffff"
       points="1343.11,681.815 1343.11,674.44 1360.61,689.19 1343.11,703.94 1343.11,696.565 1325.61,696.565 1325.61,681.815 "
       id="polygon16011" />
    <polygon
       style="fill:none;stroke:#000000;stroke-width:2"
       points="1343.11,681.815 1343.11,674.44 1360.61,689.19 1343.11,703.94 1343.11,696.565 1325.61,696.565 1325.61,681.815 "
       id="polygon16013" />
    <polygon
       style="fill:none;stroke:#000000;stroke-width:2"
       points="1343.11,681.815 1343.11,674.44 1360.61,689.19 1343.11,703.94 1343.11,696.565 1325.61,696.565 1325.61,681.815 "
       id="polygon16015" />
  </g>
  <text
     style="font-size:5.706357px;font-style:normal;font-weight:normal;text-anchor:start;fill:#000000;font-family:Bitstream Vera Sans"
     x="527.43329"
     y="323.93372"
     id="text16017"
     transform="scale(0.94288992,1.0605692)">
    <tspan
       x="527.43329"
       y="323.93372"
       id="tspan16019" />
  </text>
  <text
     style="font-size:6.72028923px;font-style:normal;font-variant:normal;font-weight:normal;font-stretch:normal;text-anchor:start;fill:#000000;font-family:Arial;-inkscape-font-specification:Arial"
     x="528.85681"
     y="324.74036"
     id="text16021"
     transform="scale(0.94288992,1.0605692)">
    <tspan
       x="528.85681"
       y="324.74036"
       id="tspan16023"
       style="font-size:6.72028923px;font-style:normal;font-variant:normal;font-weight:normal;font-stretch:normal;font-family:Arial;-inkscape-font-specification:Arial">Планирование и</tspan>
    <tspan
       x="528.85681"
       y="331.87317"
       id="tspan16025"
       style="font-size:6.72028923px;font-style:normal;font-variant:normal;font-weight:normal;font-stretch:normal;font-family:Arial;-inkscape-font-specification:Arial">управление</tspan>
  </text>
  <g
     transform="matrix(0.31070075,0,0,0.34947835,69.908486,104.18177)"
     id="g16027">
    <polygon
       style="fill:#ffffff"
       points="1343.11,745.365 1343.11,737.99 1360.61,752.74 1343.11,767.49 1343.11,760.115 1325.61,760.115 1325.61,745.365 "
       id="polygon16029" />
    <polygon
       style="fill:none;stroke:#000000;stroke-width:2"
       points="1343.11,745.365 1343.11,737.99 1360.61,752.74 1343.11,767.49 1343.11,760.115 1325.61,760.115 1325.61,745.365 "
       id="polygon16031" />
    <polygon
       style="fill:none;stroke:#000000;stroke-width:2"
       points="1343.11,745.365 1343.11,737.99 1360.61,752.74 1343.11,767.49 1343.11,760.115 1325.61,760.115 1325.61,745.365 "
       id="polygon16033" />
  </g>
  <text
     style="font-size:6.72028923px;font-style:normal;font-variant:normal;font-weight:normal;font-stretch:normal;text-anchor:start;fill:#000000;font-family:Arial;-inkscape-font-specification:Arial"
     x="528.85681"
     y="348.3175"
     id="text16035"
     transform="scale(0.94288992,1.0605692)">
    <tspan
       x="528.85681"
       y="348.3175"
       id="tspan16037"
       style="font-size:6.72028923px;font-style:normal;font-variant:normal;font-weight:normal;font-stretch:normal;font-family:Arial;-inkscape-font-specification:Arial">Открытость архитектуры</tspan>
  </text>
  <g
     transform="matrix(0.31070075,0,0,0.34947835,69.908486,104.18177)"
     id="g16039">
    <polygon
       style="fill:#ffffff"
       points="1405.02,805.84 1395.02,805.84 1415.02,825.84 1435.02,805.84 1425.02,805.84 1425.02,785.84 1405.02,785.84 "
       id="polygon16041" />
    <polygon
       style="fill:none;stroke:#000000;stroke-width:2"
       points="1405.02,805.84 1395.02,805.84 1415.02,825.84 1435.02,805.84 1425.02,805.84 1425.02,785.84 1405.02,785.84 "
       id="polygon16043" />
    <polygon
       style="fill:none;stroke:#000000;stroke-width:2"
       points="1405.02,805.84 1395.02,805.84 1415.02,825.84 1435.02,805.84 1425.02,805.84 1425.02,785.84 1405.02,785.84 "
       id="polygon16045" />
  </g>
  <text
     style="font-size:6.72028923px;font-style:normal;font-variant:normal;font-weight:normal;font-stretch:normal;text-anchor:start;fill:#000000;font-family:Arial;-inkscape-font-specification:Arial"
     x="528.42188"
     y="383.24719"
     id="text16047"
     transform="scale(0.94288992,1.0605692)">
    <tspan
       x="528.42188"
       y="383.24719"
       id="tspan16049"
       style="font-size:6.72028923px;font-style:normal;font-variant:normal;font-weight:normal;font-stretch:normal;font-family:Arial;-inkscape-font-specification:Arial">Новый Атлант</tspan>
  </text>
  <text
     style="font-size:6.72028923px;font-style:normal;font-variant:normal;font-weight:normal;font-stretch:normal;text-anchor:start;fill:#000000;font-family:Arial;-inkscape-font-specification:Arial"
     x="528.36542"
     y="394.45032"
     id="text16051"
     transform="scale(0.94288992,1.0605692)">
    <tspan
       x="528.36542"
       y="394.45032"
       id="tspan16053"
       style="font-size:6.72028923px;font-style:normal;font-variant:normal;font-weight:normal;font-stretch:normal;font-family:Arial;-inkscape-font-specification:Arial">SAP</tspan>
  </text>
  <text
     style="font-size:6.72028923px;font-style:normal;font-variant:normal;font-weight:normal;font-stretch:normal;text-anchor:start;fill:#000000;font-family:Arial;-inkscape-font-specification:Arial"
     x="528.06415"
     y="404.63782"
     id="text16055"
     transform="scale(0.94288992,1.0605692)">
    <tspan
       x="528.06415"
       y="404.63782"
       id="tspan16057"
       style="font-size:6.72028923px;font-style:normal;font-variant:normal;font-weight:normal;font-stretch:normal;font-family:Arial;-inkscape-font-specification:Arial">Oracle</tspan>
  </text>
  <g
     transform="matrix(0.31070075,0,0,0.34947835,69.908486,104.18177)"
     id="g16059">
    <rect
       style="fill:#ffffff"
       x="45.608002"
       y="90.639603"
       width="1566"
       height="148"
       id="rect16061" />
    <rect
       style="fill:none;stroke:#000000;stroke-width:2"
       x="45.608002"
       y="90.639603"
       width="1566"
       height="148"
       id="rect16063" />
  </g>
  <text
     style="font-size:16.86606598px;font-style:normal;font-weight:normal;text-anchor:start;fill:#000000;font-family:Bitstream Vera Sans"
     x="251.62469"
     y="158.41614"
     id="text16065"
     transform="scale(0.94288992,1.0605692)">
    <tspan
       x="251.62469"
       y="158.41614"
       id="tspan16067">Бухгалтерские системы</tspan>
  </text>
  <g
     transform="matrix(0.31070075,0,0,0.34947835,69.908486,104.18177)"
     id="g16069">
    <polygon
       style="fill:#ffffff"
       points="163.608,326.64 133.608,326.64 193.608,386.64 253.608,326.64 223.608,326.64 223.608,266.64 163.608,266.64 "
       id="polygon16071" />
    <polygon
       style="fill:none;stroke:#000000;stroke-width:2"
       points="163.608,326.64 133.608,326.64 193.608,386.64 253.608,326.64 223.608,326.64 223.608,266.64 163.608,266.64 "
       id="polygon16073" />
    <polygon
       style="fill:none;stroke:#000000;stroke-width:2"
       points="163.608,326.64 133.608,326.64 193.608,386.64 253.608,326.64 223.608,326.64 223.608,266.64 163.608,266.64 "
       id="polygon16075" />
  </g>
  <g
     transform="matrix(0.31070075,0,0,0.34947835,69.908486,104.18177)"
     id="g16077">
    <polygon
       style="fill:#ffffff"
       points="585.022,327.84 555.022,327.84 615.022,387.84 675.022,327.84 645.022,327.84 645.022,267.84 585.022,267.84 "
       id="polygon16079" />
    <polygon
       style="fill:none;stroke:#000000;stroke-width:2"
       points="585.022,327.84 555.022,327.84 615.022,387.84 675.022,327.84 645.022,327.84 645.022,267.84 585.022,267.84 "
       id="polygon16081" />
    <polygon
       style="fill:none;stroke:#000000;stroke-width:2"
       points="585.022,327.84 555.022,327.84 615.022,387.84 675.022,327.84 645.022,327.84 645.022,267.84 585.022,267.84 "
       id="polygon16083" />
  </g>
  <g
     transform="matrix(0.31070075,0,0,0.34947835,69.908486,104.18177)"
     id="g16085">
    <polygon
       style="fill:#ffffff"
       points="1027.02,327.84 997.022,327.84 1057.02,387.84 1117.02,327.84 1087.02,327.84 1087.02,267.84 1027.02,267.84 "
       id="polygon16087" />
    <polygon
       style="fill:none;stroke:#000000;stroke-width:2"
       points="1027.02,327.84 997.022,327.84 1057.02,387.84 1117.02,327.84 1087.02,327.84 1087.02,267.84 1027.02,267.84 "
       id="polygon16089" />
    <polygon
       style="fill:none;stroke:#000000;stroke-width:2"
       points="1027.02,327.84 997.022,327.84 1057.02,387.84 1117.02,327.84 1087.02,327.84 1087.02,267.84 1027.02,267.84 "
       id="polygon16091" />
  </g>
  <g
     transform="matrix(0.31070075,0,0,0.34947835,69.908486,104.18177)"
     id="g16093">
    <polygon
       style="fill:#ffffff"
       points="1441.02,327.84 1411.02,327.84 1471.02,387.84 1531.02,327.84 1501.02,327.84 1501.02,267.84 1441.02,267.84 "
       id="polygon16095" />
    <polygon
       style="fill:none;stroke:#000000;stroke-width:2"
       points="1441.02,327.84 1411.02,327.84 1471.02,387.84 1531.02,327.84 1501.02,327.84 1501.02,267.84 1441.02,267.84 "
       id="polygon16097" />
    <polygon
       style="fill:none;stroke:#000000;stroke-width:2"
       points="1441.02,327.84 1411.02,327.84 1471.02,387.84 1531.02,327.84 1501.02,327.84 1501.02,267.84 1441.02,267.84 "
       id="polygon16099" />
  </g>
  <text
     xml:space="preserve"
     style="font-size:6.72028923px;font-style:normal;font-variant:normal;font-weight:normal;font-stretch:normal;fill:#000000;fill-opacity:1;stroke:none;font-family:Arial;-inkscape-font-specification:Arial"
     x="532.94824"
     y="475.32959"
     id="text16605"><tspan
       sodipodi:role="line"
       id="tspan16607"
       x="532.94824"
       y="475.32959" /></text>
  <text
     xml:space="preserve"
     style="font-size:6.72028923px;font-style:normal;font-variant:normal;font-weight:normal;font-stretch:normal;fill:#000000;fill-opacity:1;stroke:none;font-family:Arial;-inkscape-font-specification:Arial"
     x="85.161865"
     y="323.00244"
     id="text16635"><tspan
       sodipodi:role="line"
       id="tspan16637"
       x="85.161865"
       y="323.00244">Отсутствие организации учета</tspan><tspan
       sodipodi:role="line"
       x="85.161865"
       y="331.40283"
       id="tspan16639">по различным классам</tspan></text>
  <text
     xml:space="preserve"
     style="font-size:3.30414224px;font-style:normal;font-variant:normal;font-weight:normal;font-stretch:normal;fill:#000000;fill-opacity:1;stroke:none;font-family:Arial;-inkscape-font-specification:Arial"
     x="315.25278"
     y="453.38721"
     id="text16641"><tspan
       sodipodi:role="line"
       id="tspan16643"
       x="315.25278"
       y="453.38721" /></text>
</svg>
