<?xml version="1.0" encoding="UTF-8" standalone="no"?>
<!DOCTYPE svg PUBLIC "-//W3C//DTD SVG 1.0//EN" "http://www.w3.org/TR/2001/PR-SVG-20010719/DTD/svg10.dtd">
<svg width="57cm" height="26cm" viewBox="36 78 1124 503" xmlns="http://www.w3.org/2000/svg" xmlns:xlink="http://www.w3.org/1999/xlink">
  <g>
    <rect style="fill: #ffffff" x="37" y="79" width="114.4" height="36"/>
    <rect style="fill: none; fill-opacity:0; stroke-width: 2; stroke: #000000" x="37" y="79" width="114.4" height="36"/>
    <text style="fill: #000000;text-anchor:middle;font-size:12.8;font-family:sanserif;font-style:normal;font-weight:normal" x="94.2" y="100.9">
      <tspan x="94.2" y="100.9">Пользователь</tspan>
    </text>
    <line style="fill: none; fill-opacity:0; stroke-width: 1; stroke: #000000" x1="47" y1="103.95" x2="141.4" y2="103.95"/>
  </g>
  <g>
    <rect style="fill: #ffffff" x="260" y="80" width="77.15" height="36"/>
    <rect style="fill: none; fill-opacity:0; stroke-width: 2; stroke: #000000" x="260" y="80" width="77.15" height="36"/>
    <text style="fill: #000000;text-anchor:middle;font-size:12.8;font-family:sanserif;font-style:normal;font-weight:normal" x="298.575" y="101.9">
      <tspan x="298.575" y="101.9">Система</tspan>
    </text>
    <line style="fill: none; fill-opacity:0; stroke-width: 1; stroke: #000000" x1="270" y1="104.95" x2="327.15" y2="104.95"/>
  </g>
  <g>
    <rect style="fill: #ffffff" x="480" y="80" width="102.4" height="36"/>
    <rect style="fill: none; fill-opacity:0; stroke-width: 2; stroke: #000000" x="480" y="80" width="102.4" height="36"/>
    <text style="fill: #000000;text-anchor:middle;font-size:12.8;font-family:sanserif;font-style:normal;font-weight:normal" x="531.2" y="101.9">
      <tspan x="531.2" y="101.9">Декларация</tspan>
    </text>
    <line style="fill: none; fill-opacity:0; stroke-width: 1; stroke: #000000" x1="490" y1="104.95" x2="572.4" y2="104.95"/>
  </g>
  <g>
    <rect style="fill: #ffffff" x="827" y="79" width="142.95" height="36"/>
    <rect style="fill: none; fill-opacity:0; stroke-width: 2; stroke: #000000" x="827" y="79" width="142.95" height="36"/>
    <text style="fill: #000000;text-anchor:middle;font-size:12.8;font-family:sanserif;font-style:normal;font-weight:normal" x="898.475" y="100.9">
      <tspan x="898.475" y="100.9">Состояние ячейки</tspan>
    </text>
    <line style="fill: none; fill-opacity:0; stroke-width: 1; stroke: #000000" x1="837" y1="103.95" x2="959.95" y2="103.95"/>
  </g>
  <g>
    <rect style="fill: #ffffff" x="680" y="80" width="68.25" height="36"/>
    <rect style="fill: none; fill-opacity:0; stroke-width: 2; stroke: #000000" x="680" y="80" width="68.25" height="36"/>
    <text style="fill: #000000;text-anchor:middle;font-size:12.8;font-family:sanserif;font-style:normal;font-weight:normal" x="714.125" y="101.9">
      <tspan x="714.125" y="101.9">Ячейка</tspan>
    </text>
    <line style="fill: none; fill-opacity:0; stroke-width: 1; stroke: #000000" x1="690" y1="104.95" x2="738.25" y2="104.95"/>
  </g>
  <g>
    <line style="fill: none; fill-opacity:0; stroke-width: 1; stroke-dasharray: 8; stroke: #000000" x1="94.2" y1="115" x2="94.2" y2="139"/>
    <line style="fill: none; fill-opacity:0; stroke-width: 1; stroke-dasharray: 8; stroke: #000000" x1="94.2" y1="199" x2="94.2" y2="399"/>
    <rect style="fill: #ffffff" x="87.2" y="139" width="14" height="60"/>
    <rect style="fill: none; fill-opacity:0; stroke-width: 2; stroke: #000000" x="87.2" y="139" width="14" height="60"/>
  </g>
  <g>
    <line style="fill: none; fill-opacity:0; stroke-width: 1; stroke-dasharray: 8; stroke: #000000" x1="298.576" y1="116" x2="298.576" y2="140"/>
    <line style="fill: none; fill-opacity:0; stroke-width: 1; stroke-dasharray: 8; stroke: #000000" x1="298.576" y1="350" x2="298.576" y2="560"/>
    <rect style="fill: #ffffff" x="291.576" y="140" width="14" height="210"/>
    <rect style="fill: none; fill-opacity:0; stroke-width: 2; stroke: #000000" x="291.576" y="140" width="14" height="210"/>
  </g>
  <g>
    <line style="fill: none; fill-opacity:0; stroke-width: 2; stroke: #000000" x1="274.576" y1="154.911" x2="101.2" y2="154"/>
    <polygon style="fill: #000000" points="274.55,159.911 290.576,154.995 274.602,149.911 "/>
    <polygon style="fill: none; fill-opacity:0; stroke-width: 2; stroke: #000000" points="274.55,159.911 290.576,154.995 274.602,149.911 "/>
    <text style="fill: #000000;text-anchor:middle;font-size:12.7998;font-family:sanserif;font-style:normal;font-weight:normal" x="196.388" y="164.5">изменить тип ячейки</text>
  </g>
  <g>
    <line style="fill: none; fill-opacity:0; stroke-width: 1; stroke-dasharray: 8; stroke: #000000" x1="531.2" y1="116" x2="531.2" y2="140"/>
    <line style="fill: none; fill-opacity:0; stroke-width: 1; stroke-dasharray: 8; stroke: #000000" x1="531.2" y1="560" x2="531.2" y2="580"/>
    <rect style="fill: #ffffff" x="524.2" y="140" width="14" height="420"/>
    <rect style="fill: none; fill-opacity:0; stroke-width: 2; stroke: #000000" x="524.2" y="140" width="14" height="420"/>
  </g>
  <g>
    <line style="fill: none; fill-opacity:0; stroke-width: 2; stroke: #000000" x1="507.2" y1="170" x2="305.576" y2="170"/>
    <polygon style="fill: #000000" points="507.2,175 523.2,170 507.2,165 "/>
    <polygon style="fill: none; fill-opacity:0; stroke-width: 2; stroke: #000000" points="507.2,175 523.2,170 507.2,165 "/>
    <text style="fill: #000000;text-anchor:middle;font-size:12.7998;font-family:sanserif;font-style:normal;font-weight:normal" x="414.888" y="180">изменить тип ячейки</text>
  </g>
  <g>
    <line style="fill: none; fill-opacity:0; stroke-width: 1; stroke-dasharray: 8; stroke: #000000" x1="714.124" y1="116" x2="714.124" y2="140"/>
    <line style="fill: none; fill-opacity:0; stroke-width: 1; stroke-dasharray: 8; stroke: #000000" x1="714.124" y1="260" x2="714.124" y2="580"/>
    <rect style="fill: #ffffff" x="707.124" y="140" width="14" height="120"/>
    <rect style="fill: none; fill-opacity:0; stroke-width: 2; stroke: #000000" x="707.124" y="140" width="14" height="120"/>
  </g>
  <g>
    <line style="fill: none; fill-opacity:0; stroke-width: 2; stroke: #000000" x1="690.124" y1="185" x2="538.2" y2="185"/>
    <polygon style="fill: #000000" points="690.124,190 706.124,185 690.124,180 "/>
    <polygon style="fill: none; fill-opacity:0; stroke-width: 2; stroke: #000000" points="690.124,190 706.124,185 690.124,180 "/>
    <text style="fill: #000000;text-anchor:middle;font-size:12.7998;font-family:sanserif;font-style:normal;font-weight:normal" x="622.662" y="195">изменить тип</text>
  </g>
  <g>
    <line style="fill: none; fill-opacity:0; stroke-width: 1; stroke-dasharray: 8; stroke: #000000" x1="898.474" y1="115" x2="898.474" y2="139"/>
    <line style="fill: none; fill-opacity:0; stroke-width: 1; stroke-dasharray: 8; stroke: #000000" x1="898.474" y1="259" x2="898.474" y2="399"/>
    <rect style="fill: #ffffff" x="891.474" y="139" width="14" height="120"/>
    <rect style="fill: none; fill-opacity:0; stroke-width: 2; stroke: #000000" x="891.474" y="139" width="14" height="120"/>
  </g>
  <g>
    <line style="fill: none; fill-opacity:0; stroke-width: 2; stroke: #000000" x1="874.474" y1="199.1" x2="721.124" y2="200"/>
    <polygon style="fill: #000000" points="874.504,204.1 890.474,199.006 874.445,194.1 "/>
    <polygon style="fill: none; fill-opacity:0; stroke-width: 2; stroke: #000000" points="874.504,204.1 890.474,199.006 874.445,194.1 "/>
    <text style="fill: #000000;text-anchor:middle;font-size:12.7998;font-family:sanserif;font-style:normal;font-weight:normal" x="806.3" y="209.5">установить тип</text>
  </g>
  <g>
    <rect style="fill: #ffffff" x="1000" y="80" width="158.95" height="36"/>
    <rect style="fill: none; fill-opacity:0; stroke-width: 2; stroke: #000000" x="1000" y="80" width="158.95" height="36"/>
    <text style="fill: #000000;text-anchor:middle;font-size:12.8;font-family:sanserif;font-style:normal;font-weight:normal" x="1079.48" y="101.9">
      <tspan x="1079.48" y="101.9">Калькулятор ячейки</tspan>
    </text>
    <line style="fill: none; fill-opacity:0; stroke-width: 1; stroke: #000000" x1="1010" y1="104.95" x2="1148.95" y2="104.95"/>
  </g>
  <g>
    <line style="fill: none; fill-opacity:0; stroke-width: 1; stroke-dasharray: 8; stroke: #000000" x1="1079.48" y1="116" x2="1079.48" y2="260"/>
    <line style="fill: none; fill-opacity:0; stroke-width: 1; stroke-dasharray: 8; stroke: #000000" x1="1079.48" y1="350" x2="1079.48" y2="400"/>
    <rect style="fill: #ffffff" x="1072.48" y="260" width="14" height="90"/>
    <rect style="fill: none; fill-opacity:0; stroke-width: 2; stroke: #000000" x="1072.48" y="260" width="14" height="90"/>
  </g>
  <g>
    <line style="fill: none; fill-opacity:0; stroke-width: 2; stroke-dasharray: 8; stroke: #000000" x1="738.124" y1="229.9" x2="891.474" y2="229"/>
    <polygon style="fill: #000000" points="738.094,224.9 722.124,229.994 738.153,234.9 "/>
    <polygon style="fill: none; fill-opacity:0; stroke-width: 2; stroke: #000000" points="738.094,224.9 722.124,229.994 738.153,234.9 "/>
  </g>
  <g>
    <line style="fill: none; fill-opacity:0; stroke-width: 2; stroke-dasharray: 8; stroke: #000000" x1="555.2" y1="245" x2="707.124" y2="245"/>
    <polygon style="fill: #000000" points="555.2,240 539.2,245 555.2,250 "/>
    <polygon style="fill: none; fill-opacity:0; stroke-width: 2; stroke: #000000" points="555.2,240 539.2,245 555.2,250 "/>
  </g>
  <g>
    <line style="fill: none; fill-opacity:0; stroke-width: 2; stroke-dasharray: 8; stroke: #000000" x1="322.576" y1="260" x2="524.2" y2="260"/>
    <polygon style="fill: #000000" points="322.576,255 306.576,260 322.576,265 "/>
    <polygon style="fill: none; fill-opacity:0; stroke-width: 2; stroke: #000000" points="322.576,255 306.576,260 322.576,265 "/>
  </g>
  <g>
    <line style="fill: none; fill-opacity:0; stroke-width: 2; stroke: #000000" x1="1055.48" y1="290" x2="305.576" y2="290"/>
    <polygon style="fill: #000000" points="1055.48,295 1071.48,290 1055.48,285 "/>
    <polygon style="fill: none; fill-opacity:0; stroke-width: 2; stroke: #000000" points="1055.48,295 1071.48,290 1055.48,285 "/>
    <text style="fill: #000000;text-anchor:middle;font-size:12.7998;font-family:sanserif;font-style:normal;font-weight:normal" x="689.026" y="300">пересчитать ячейку</text>
  </g>
  <g>
    <line style="fill: none; fill-opacity:0; stroke-width: 2; stroke-dasharray: 8; stroke: #000000" x1="322.576" y1="320" x2="1072.48" y2="320"/>
    <polygon style="fill: #000000" points="322.576,315 306.576,320 322.576,325 "/>
    <polygon style="fill: none; fill-opacity:0; stroke-width: 2; stroke: #000000" points="322.576,315 306.576,320 322.576,325 "/>
  </g>
  <g>
    <line style="fill: none; fill-opacity:0; stroke-width: 1; stroke-dasharray: 8; stroke: #000000" x1="94.2" y1="199" x2="94.2" y2="379"/>
    <line style="fill: none; fill-opacity:0; stroke-width: 1; stroke-dasharray: 8; stroke: #000000" x1="94.2" y1="439" x2="94.2" y2="579"/>
    <rect style="fill: #ffffff" x="87.2" y="379" width="14" height="60"/>
    <rect style="fill: none; fill-opacity:0; stroke-width: 2; stroke: #000000" x="87.2" y="379" width="14" height="60"/>
  </g>
  <g>
    <line style="fill: none; fill-opacity:0; stroke-width: 1; stroke-dasharray: 8; stroke: #000000" x1="298.576" y1="350" x2="298.576" y2="380"/>
    <line style="fill: none; fill-opacity:0; stroke-width: 1; stroke-dasharray: 8; stroke: #000000" x1="298.576" y1="560" x2="298.576" y2="580"/>
    <rect style="fill: #ffffff" x="291.576" y="380" width="14" height="180"/>
    <rect style="fill: none; fill-opacity:0; stroke-width: 2; stroke: #000000" x="291.576" y="380" width="14" height="180"/>
  </g>
  <g>
    <line style="fill: none; fill-opacity:0; stroke-width: 2; stroke: #000000" x1="274.576" y1="394.911" x2="101.2" y2="394"/>
    <polygon style="fill: #000000" points="274.55,399.911 290.576,394.995 274.602,389.911 "/>
    <polygon style="fill: none; fill-opacity:0; stroke-width: 2; stroke: #000000" points="274.55,399.911 290.576,394.995 274.602,389.911 "/>
    <text style="fill: #000000;text-anchor:middle;font-size:12.7998;font-family:sanserif;font-style:normal;font-weight:normal" x="196.388" y="404.5">изменить параметры ячейки</text>
  </g>
  <g>
    <line style="fill: none; fill-opacity:0; stroke-width: 2; stroke: #000000" x1="507.2" y1="410" x2="305.576" y2="410"/>
    <polygon style="fill: #000000" points="507.2,415 523.2,410 507.2,405 "/>
    <polygon style="fill: none; fill-opacity:0; stroke-width: 2; stroke: #000000" points="507.2,415 523.2,410 507.2,405 "/>
    <text style="fill: #000000;text-anchor:middle;font-size:12.7998;font-family:sanserif;font-style:normal;font-weight:normal" x="414.888" y="420">изменить параметры ячейки</text>
  </g>
  <g>
    <line style="fill: none; fill-opacity:0; stroke-width: 1; stroke-dasharray: 8; stroke: #000000" x1="714.124" y1="260" x2="714.124" y2="380"/>
    <line style="fill: none; fill-opacity:0; stroke-width: 1; stroke-dasharray: 8; stroke: #000000" x1="714.124" y1="500" x2="714.124" y2="580"/>
    <rect style="fill: #ffffff" x="707.124" y="380" width="14" height="120"/>
    <rect style="fill: none; fill-opacity:0; stroke-width: 2; stroke: #000000" x="707.124" y="380" width="14" height="120"/>
  </g>
  <g>
    <line style="fill: none; fill-opacity:0; stroke-width: 1; stroke-dasharray: 8; stroke: #000000" x1="898.474" y1="259" x2="898.474" y2="379"/>
    <line style="fill: none; fill-opacity:0; stroke-width: 1; stroke-dasharray: 8; stroke: #000000" x1="898.474" y1="499" x2="898.474" y2="579"/>
    <rect style="fill: #ffffff" x="891.474" y="379" width="14" height="120"/>
    <rect style="fill: none; fill-opacity:0; stroke-width: 2; stroke: #000000" x="891.474" y="379" width="14" height="120"/>
  </g>
  <g>
    <line style="fill: none; fill-opacity:0; stroke-width: 1; stroke-dasharray: 8; stroke: #000000" x1="1079.48" y1="350" x2="1079.48" y2="440"/>
    <line style="fill: none; fill-opacity:0; stroke-width: 1; stroke-dasharray: 8; stroke: #000000" x1="1079.48" y1="560" x2="1079.48" y2="580"/>
    <rect style="fill: #ffffff" x="1072.48" y="440" width="14" height="120"/>
    <rect style="fill: none; fill-opacity:0; stroke-width: 2; stroke: #000000" x="1072.48" y="440" width="14" height="120"/>
  </g>
  <g>
    <line style="fill: none; fill-opacity:0; stroke-width: 2; stroke: #000000" x1="690.124" y1="425" x2="538.2" y2="425"/>
    <polygon style="fill: #000000" points="690.124,430 706.124,425 690.124,420 "/>
    <polygon style="fill: none; fill-opacity:0; stroke-width: 2; stroke: #000000" points="690.124,430 706.124,425 690.124,420 "/>
    <text style="fill: #000000;text-anchor:middle;font-size:12.7998;font-family:sanserif;font-style:normal;font-weight:normal" x="622.662" y="435">изменить параметры</text>
  </g>
  <g>
    <line style="fill: none; fill-opacity:0; stroke-width: 2; stroke: #000000" x1="874.474" y1="439.1" x2="721.124" y2="440"/>
    <polygon style="fill: #000000" points="874.504,444.1 890.474,439.006 874.445,434.1 "/>
    <polygon style="fill: none; fill-opacity:0; stroke-width: 2; stroke: #000000" points="874.504,444.1 890.474,439.006 874.445,434.1 "/>
    <text style="fill: #000000;text-anchor:middle;font-size:12.7998;font-family:sanserif;font-style:normal;font-weight:normal" x="806.3" y="449.5">установить параметры</text>
  </g>
  <g>
    <line style="fill: none; fill-opacity:0; stroke-width: 2; stroke-dasharray: 8; stroke: #000000" x1="738.124" y1="469.9" x2="891.474" y2="469"/>
    <polygon style="fill: #000000" points="738.094,464.9 722.124,469.994 738.153,474.9 "/>
    <polygon style="fill: none; fill-opacity:0; stroke-width: 2; stroke: #000000" points="738.094,464.9 722.124,469.994 738.153,474.9 "/>
  </g>
  <g>
    <line style="fill: none; fill-opacity:0; stroke-width: 2; stroke-dasharray: 8; stroke: #000000" x1="555.2" y1="485" x2="707.124" y2="485"/>
    <polygon style="fill: #000000" points="555.2,480 539.2,485 555.2,490 "/>
    <polygon style="fill: none; fill-opacity:0; stroke-width: 2; stroke: #000000" points="555.2,480 539.2,485 555.2,490 "/>
  </g>
  <g>
    <line style="fill: none; fill-opacity:0; stroke-width: 2; stroke-dasharray: 8; stroke: #000000" x1="322.576" y1="500" x2="524.2" y2="500"/>
    <polygon style="fill: #000000" points="322.576,495 306.576,500 322.576,505 "/>
    <polygon style="fill: none; fill-opacity:0; stroke-width: 2; stroke: #000000" points="322.576,495 306.576,500 322.576,505 "/>
  </g>
  <g>
    <line style="fill: none; fill-opacity:0; stroke-width: 2; stroke: #000000" x1="1055.48" y1="515" x2="305.576" y2="515"/>
    <polygon style="fill: #000000" points="1055.48,520 1071.48,515 1055.48,510 "/>
    <polygon style="fill: none; fill-opacity:0; stroke-width: 2; stroke: #000000" points="1055.48,520 1071.48,515 1055.48,510 "/>
    <text style="fill: #000000;text-anchor:middle;font-size:12.7998;font-family:sanserif;font-style:normal;font-weight:normal" x="689.026" y="525">пересчитать ячейку</text>
  </g>
  <g>
    <line style="fill: none; fill-opacity:0; stroke-width: 2; stroke-dasharray: 8; stroke: #000000" x1="322.576" y1="545" x2="1072.48" y2="545"/>
    <polygon style="fill: #000000" points="322.576,540 306.576,545 322.576,550 "/>
    <polygon style="fill: none; fill-opacity:0; stroke-width: 2; stroke: #000000" points="322.576,540 306.576,545 322.576,550 "/>
  </g>
</svg>
