<?xml version="1.0" encoding="UTF-8" standalone="no"?>
<svg
   xmlns:dc="http://purl.org/dc/elements/1.1/"
   xmlns:cc="http://creativecommons.org/ns#"
   xmlns:rdf="http://www.w3.org/1999/02/22-rdf-syntax-ns#"
   xmlns:svg="http://www.w3.org/2000/svg"
   xmlns="http://www.w3.org/2000/svg"
   xmlns:sodipodi="http://sodipodi.sourceforge.net/DTD/sodipodi-0.dtd"
   xmlns:inkscape="http://www.inkscape.org/namespaces/inkscape"
   width="1052.3622"
   height="744.09448"
   viewBox="36 78 585.66314 406.26926"
   id="svg20465"
   version="1.1"
   inkscape:version="0.47 r22583"
   sodipodi:docname="_sequence_2.svg">
  <metadata
     id="metadata20817">
    <rdf:RDF>
      <cc:Work
         rdf:about="">
        <dc:format>image/svg+xml</dc:format>
        <dc:type
           rdf:resource="http://purl.org/dc/dcmitype/StillImage" />
      </cc:Work>
    </rdf:RDF>
  </metadata>
  <defs
     id="defs20815">
    <inkscape:perspective
       sodipodi:type="inkscape:persp3d"
       inkscape:vp_x="0 : 460.62991 : 1"
       inkscape:vp_y="0 : 1000 : 0"
       inkscape:vp_z="2019.6851 : 460.62991 : 1"
       inkscape:persp3d-origin="1009.8425 : 307.08661 : 1"
       id="perspective20819" />
  </defs>
  <sodipodi:namedview
     pagecolor="#ffffff"
     bordercolor="#666666"
     borderopacity="1"
     objecttolerance="10"
     gridtolerance="10"
     guidetolerance="10"
     inkscape:pageopacity="0"
     inkscape:pageshadow="2"
     inkscape:window-width="1106"
     inkscape:window-height="835"
     id="namedview20813"
     showgrid="false"
     borderlayer="false"
     showborder="true"
     inkscape:zoom="0.25617094"
     inkscape:cx="1009.8425"
     inkscape:cy="462.21251"
     inkscape:window-x="47"
     inkscape:window-y="47"
     inkscape:window-maximized="0"
     inkscape:current-layer="svg20465" />
  <g
     id="g20467"
     transform="matrix(0.44099493,0,0,0.44099493,58.367999,125.8522)">
    <rect
       style="fill:#ffffff"
       x="37"
       y="79"
       width="114.4"
       height="36"
       id="rect20469" />
    <rect
       style="fill:none;stroke:#000000;stroke-width:2"
       x="37"
       y="79"
       width="114.4"
       height="36"
       id="rect20471" />
    <text
       style="font-size:12.80000019px;font-style:normal;font-weight:normal;text-anchor:middle;fill:#000000;font-family:sanserif"
       x="94.199997"
       y="100.9"
       id="text20473">
      <tspan
         x="94.199997"
         y="100.9"
         id="tspan20475">Пользователь</tspan>
    </text>
    <line
       style="fill:none;stroke:#000000;stroke-width:1"
       x1="47"
       y1="103.95"
       x2="141.39999"
       y2="103.95"
       id="line20477" />
  </g>
  <g
     id="g20479"
     transform="matrix(0.44099493,0,0,0.44099493,58.367999,125.8522)">
    <rect
       style="fill:#ffffff"
       x="260"
       y="80"
       width="77.150002"
       height="36"
       id="rect20481" />
    <rect
       style="fill:none;stroke:#000000;stroke-width:2"
       x="260"
       y="80"
       width="77.150002"
       height="36"
       id="rect20483" />
    <text
       style="font-size:12.80000019px;font-style:normal;font-weight:normal;text-anchor:middle;fill:#000000;font-family:sanserif"
       x="298.57501"
       y="101.9"
       id="text20485">
      <tspan
         x="298.57501"
         y="101.9"
         id="tspan20487">Система</tspan>
    </text>
    <line
       style="fill:none;stroke:#000000;stroke-width:1"
       x1="270"
       y1="104.95"
       x2="327.14999"
       y2="104.95"
       id="line20489" />
  </g>
  <g
     id="g20491"
     transform="matrix(0.44099493,0,0,0.44099493,58.367999,125.8522)">
    <rect
       style="fill:#ffffff"
       x="480"
       y="80"
       width="102.4"
       height="36"
       id="rect20493" />
    <rect
       style="fill:none;stroke:#000000;stroke-width:2"
       x="480"
       y="80"
       width="102.4"
       height="36"
       id="rect20495" />
    <text
       style="font-size:12.80000019px;font-style:normal;font-weight:normal;text-anchor:middle;fill:#000000;font-family:sanserif"
       x="531.20001"
       y="101.9"
       id="text20497">
      <tspan
         x="531.20001"
         y="101.9"
         id="tspan20499">Декларация</tspan>
    </text>
    <line
       style="fill:none;stroke:#000000;stroke-width:1"
       x1="490"
       y1="104.95"
       x2="572.40002"
       y2="104.95"
       id="line20501" />
  </g>
  <g
     id="g20503"
     transform="matrix(0.44099493,0,0,0.44099493,58.367999,125.8522)">
    <rect
       style="fill:#ffffff"
       x="827"
       y="79"
       width="142.95"
       height="36"
       id="rect20505" />
    <rect
       style="fill:none;stroke:#000000;stroke-width:2"
       x="827"
       y="79"
       width="142.95"
       height="36"
       id="rect20507" />
    <text
       style="font-size:12.80000019px;font-style:normal;font-weight:normal;text-anchor:middle;fill:#000000;font-family:sanserif"
       x="898.47498"
       y="100.9"
       id="text20509">
      <tspan
         x="898.47498"
         y="100.9"
         id="tspan20511">Состояние ячейки</tspan>
    </text>
    <line
       style="fill:none;stroke:#000000;stroke-width:1"
       x1="837"
       y1="103.95"
       x2="959.95001"
       y2="103.95"
       id="line20513" />
  </g>
  <g
     id="g20515"
     transform="matrix(0.44099493,0,0,0.44099493,58.367999,125.8522)">
    <rect
       style="fill:#ffffff"
       x="680"
       y="80"
       width="68.25"
       height="36"
       id="rect20517" />
    <rect
       style="fill:none;stroke:#000000;stroke-width:2"
       x="680"
       y="80"
       width="68.25"
       height="36"
       id="rect20519" />
    <text
       style="font-size:12.80000019px;font-style:normal;font-weight:normal;text-anchor:middle;fill:#000000;font-family:sanserif"
       x="714.125"
       y="101.9"
       id="text20521">
      <tspan
         x="714.125"
         y="101.9"
         id="tspan20523">Ячейка</tspan>
    </text>
    <line
       style="fill:none;stroke:#000000;stroke-width:1"
       x1="690"
       y1="104.95"
       x2="738.25"
       y2="104.95"
       id="line20525" />
  </g>
  <g
     id="g20527"
     transform="matrix(0.44099493,0,0,0.44099493,58.367999,125.8522)">
    <line
       style="fill:none;stroke:#000000;stroke-width:1;stroke-dasharray:8"
       x1="94.199997"
       y1="115"
       x2="94.199997"
       y2="139"
       id="line20529" />
    <line
       style="fill:none;stroke:#000000;stroke-width:1;stroke-dasharray:8"
       x1="94.199997"
       y1="199"
       x2="94.199997"
       y2="399"
       id="line20531" />
    <rect
       style="fill:#ffffff"
       x="87.199997"
       y="139"
       width="14"
       height="60"
       id="rect20533" />
    <rect
       style="fill:none;stroke:#000000;stroke-width:2"
       x="87.199997"
       y="139"
       width="14"
       height="60"
       id="rect20535" />
  </g>
  <g
     id="g20537"
     transform="matrix(0.44099493,0,0,0.44099493,58.367999,125.8522)">
    <line
       style="fill:none;stroke:#000000;stroke-width:1;stroke-dasharray:8"
       x1="298.57599"
       y1="116"
       x2="298.57599"
       y2="140"
       id="line20539" />
    <line
       style="fill:none;stroke:#000000;stroke-width:1;stroke-dasharray:8"
       x1="298.57599"
       y1="350"
       x2="298.57599"
       y2="560"
       id="line20541" />
    <rect
       style="fill:#ffffff"
       x="291.57599"
       y="140"
       width="14"
       height="210"
       id="rect20543" />
    <rect
       style="fill:none;stroke:#000000;stroke-width:2"
       x="291.57599"
       y="140"
       width="14"
       height="210"
       id="rect20545" />
  </g>
  <g
     id="g20547"
     transform="matrix(0.44099493,0,0,0.44099493,58.367999,125.8522)">
    <line
       style="fill:none;stroke:#000000;stroke-width:2"
       x1="274.57599"
       y1="154.911"
       x2="101.2"
       y2="154"
       id="line20549" />
    <polygon
       style="fill:#000000"
       points="274.602,149.911 274.55,159.911 290.576,154.995 "
       id="polygon20551" />
    <polygon
       style="fill:none;stroke:#000000;stroke-width:2"
       points="274.602,149.911 274.55,159.911 290.576,154.995 "
       id="polygon20553" />
    <text
       style="font-size:12.79979992px;font-style:normal;font-weight:normal;text-anchor:middle;fill:#000000;font-family:sanserif"
       x="196.388"
       y="164.5"
       id="text20555">изменить тип ячейки</text>
  </g>
  <g
     id="g20557"
     transform="matrix(0.44099493,0,0,0.44099493,58.367999,125.8522)">
    <line
       style="fill:none;stroke:#000000;stroke-width:1;stroke-dasharray:8"
       x1="531.20001"
       y1="116"
       x2="531.20001"
       y2="140"
       id="line20559" />
    <line
       style="fill:none;stroke:#000000;stroke-width:1;stroke-dasharray:8"
       x1="531.20001"
       y1="560"
       x2="531.20001"
       y2="580"
       id="line20561" />
    <rect
       style="fill:#ffffff"
       x="524.20001"
       y="140"
       width="14"
       height="420"
       id="rect20563" />
    <rect
       style="fill:none;stroke:#000000;stroke-width:2"
       x="524.20001"
       y="140"
       width="14"
       height="420"
       id="rect20565" />
  </g>
  <g
     id="g20567"
     transform="matrix(0.44099493,0,0,0.44099493,58.367999,125.8522)">
    <line
       style="fill:none;stroke:#000000;stroke-width:2"
       x1="507.20001"
       y1="170"
       x2="305.57599"
       y2="170"
       id="line20569" />
    <polygon
       style="fill:#000000"
       points="507.2,165 507.2,175 523.2,170 "
       id="polygon20571" />
    <polygon
       style="fill:none;stroke:#000000;stroke-width:2"
       points="507.2,165 507.2,175 523.2,170 "
       id="polygon20573" />
    <text
       style="font-size:12.79979992px;font-style:normal;font-weight:normal;text-anchor:middle;fill:#000000;font-family:sanserif"
       x="414.888"
       y="180"
       id="text20575">изменить тип ячейки</text>
  </g>
  <g
     id="g20577"
     transform="matrix(0.44099493,0,0,0.44099493,58.367999,125.8522)">
    <line
       style="fill:none;stroke:#000000;stroke-width:1;stroke-dasharray:8"
       x1="714.12402"
       y1="116"
       x2="714.12402"
       y2="140"
       id="line20579" />
    <line
       style="fill:none;stroke:#000000;stroke-width:1;stroke-dasharray:8"
       x1="714.12402"
       y1="260"
       x2="714.12402"
       y2="580"
       id="line20581" />
    <rect
       style="fill:#ffffff"
       x="707.12402"
       y="140"
       width="14"
       height="120"
       id="rect20583" />
    <rect
       style="fill:none;stroke:#000000;stroke-width:2"
       x="707.12402"
       y="140"
       width="14"
       height="120"
       id="rect20585" />
  </g>
  <g
     id="g20587"
     transform="matrix(0.44099493,0,0,0.44099493,58.367999,125.8522)">
    <line
       style="fill:none;stroke:#000000;stroke-width:2"
       x1="690.12402"
       y1="185"
       x2="538.20001"
       y2="185"
       id="line20589" />
    <polygon
       style="fill:#000000"
       points="690.124,180 690.124,190 706.124,185 "
       id="polygon20591" />
    <polygon
       style="fill:none;stroke:#000000;stroke-width:2"
       points="690.124,180 690.124,190 706.124,185 "
       id="polygon20593" />
    <text
       style="font-size:12.79979992px;font-style:normal;font-weight:normal;text-anchor:middle;fill:#000000;font-family:sanserif"
       x="622.66199"
       y="195"
       id="text20595">изменить тип</text>
  </g>
  <g
     id="g20597"
     transform="matrix(0.44099493,0,0,0.44099493,58.367999,125.8522)">
    <line
       style="fill:none;stroke:#000000;stroke-width:1;stroke-dasharray:8"
       x1="898.474"
       y1="115"
       x2="898.474"
       y2="139"
       id="line20599" />
    <line
       style="fill:none;stroke:#000000;stroke-width:1;stroke-dasharray:8"
       x1="898.474"
       y1="259"
       x2="898.474"
       y2="399"
       id="line20601" />
    <rect
       style="fill:#ffffff"
       x="891.474"
       y="139"
       width="14"
       height="120"
       id="rect20603" />
    <rect
       style="fill:none;stroke:#000000;stroke-width:2"
       x="891.474"
       y="139"
       width="14"
       height="120"
       id="rect20605" />
  </g>
  <g
     id="g20607"
     transform="matrix(0.44099493,0,0,0.44099493,58.367999,125.8522)">
    <line
       style="fill:none;stroke:#000000;stroke-width:2"
       x1="874.474"
       y1="199.10001"
       x2="721.12402"
       y2="200"
       id="line20609" />
    <polygon
       style="fill:#000000"
       points="874.445,194.1 874.504,204.1 890.474,199.006 "
       id="polygon20611" />
    <polygon
       style="fill:none;stroke:#000000;stroke-width:2"
       points="874.445,194.1 874.504,204.1 890.474,199.006 "
       id="polygon20613" />
    <text
       style="font-size:12.79979992px;font-style:normal;font-weight:normal;text-anchor:middle;fill:#000000;font-family:sanserif"
       x="806.29999"
       y="209.5"
       id="text20615">установить тип</text>
  </g>
  <g
     id="g20617"
     transform="matrix(0.44099493,0,0,0.44099493,58.367999,125.8522)">
    <rect
       style="fill:#ffffff"
       x="1000"
       y="80"
       width="158.95"
       height="36"
       id="rect20619" />
    <rect
       style="fill:none;stroke:#000000;stroke-width:2"
       x="1000"
       y="80"
       width="158.95"
       height="36"
       id="rect20621" />
    <text
       style="font-size:12.80000019px;font-style:normal;font-weight:normal;text-anchor:middle;fill:#000000;font-family:sanserif"
       x="1079.48"
       y="101.9"
       id="text20623">
      <tspan
         x="1079.48"
         y="101.9"
         id="tspan20625">Калькулятор ячейки</tspan>
    </text>
    <line
       style="fill:none;stroke:#000000;stroke-width:1"
       x1="1010"
       y1="104.95"
       x2="1148.95"
       y2="104.95"
       id="line20627" />
  </g>
  <g
     id="g20629"
     transform="matrix(0.44099493,0,0,0.44099493,58.367999,125.8522)">
    <line
       style="fill:none;stroke:#000000;stroke-width:1;stroke-dasharray:8"
       x1="1079.48"
       y1="116"
       x2="1079.48"
       y2="260"
       id="line20631" />
    <line
       style="fill:none;stroke:#000000;stroke-width:1;stroke-dasharray:8"
       x1="1079.48"
       y1="350"
       x2="1079.48"
       y2="400"
       id="line20633" />
    <rect
       style="fill:#ffffff"
       x="1072.48"
       y="260"
       width="14"
       height="90"
       id="rect20635" />
    <rect
       style="fill:none;stroke:#000000;stroke-width:2"
       x="1072.48"
       y="260"
       width="14"
       height="90"
       id="rect20637" />
  </g>
  <g
     id="g20639"
     transform="matrix(0.44099493,0,0,0.44099493,58.367999,125.8522)">
    <line
       style="fill:none;stroke:#000000;stroke-width:2;stroke-dasharray:8"
       x1="738.12402"
       y1="229.89999"
       x2="891.474"
       y2="229"
       id="line20641" />
    <polygon
       style="fill:#000000"
       points="738.153,234.9 738.094,224.9 722.124,229.994 "
       id="polygon20643" />
    <polygon
       style="fill:none;stroke:#000000;stroke-width:2"
       points="738.153,234.9 738.094,224.9 722.124,229.994 "
       id="polygon20645" />
  </g>
  <g
     id="g20647"
     transform="matrix(0.44099493,0,0,0.44099493,58.367999,125.8522)">
    <line
       style="fill:none;stroke:#000000;stroke-width:2;stroke-dasharray:8"
       x1="555.20001"
       y1="245"
       x2="707.12402"
       y2="245"
       id="line20649" />
    <polygon
       style="fill:#000000"
       points="555.2,250 555.2,240 539.2,245 "
       id="polygon20651" />
    <polygon
       style="fill:none;stroke:#000000;stroke-width:2"
       points="555.2,250 555.2,240 539.2,245 "
       id="polygon20653" />
  </g>
  <g
     id="g20655"
     transform="matrix(0.44099493,0,0,0.44099493,58.367999,125.8522)">
    <line
       style="fill:none;stroke:#000000;stroke-width:2;stroke-dasharray:8"
       x1="322.57599"
       y1="260"
       x2="524.20001"
       y2="260"
       id="line20657" />
    <polygon
       style="fill:#000000"
       points="322.576,265 322.576,255 306.576,260 "
       id="polygon20659" />
    <polygon
       style="fill:none;stroke:#000000;stroke-width:2"
       points="322.576,265 322.576,255 306.576,260 "
       id="polygon20661" />
  </g>
  <g
     id="g20663"
     transform="matrix(0.44099493,0,0,0.44099493,58.367999,125.8522)">
    <line
       style="fill:none;stroke:#000000;stroke-width:2"
       x1="1055.48"
       y1="290"
       x2="305.57599"
       y2="290"
       id="line20665" />
    <polygon
       style="fill:#000000"
       points="1055.48,285 1055.48,295 1071.48,290 "
       id="polygon20667" />
    <polygon
       style="fill:none;stroke:#000000;stroke-width:2"
       points="1055.48,285 1055.48,295 1071.48,290 "
       id="polygon20669" />
    <text
       style="font-size:12.79979992px;font-style:normal;font-weight:normal;text-anchor:middle;fill:#000000;font-family:sanserif"
       x="689.026"
       y="300"
       id="text20671">пересчитать ячейку</text>
  </g>
  <g
     id="g20673"
     transform="matrix(0.44099493,0,0,0.44099493,58.367999,125.8522)">
    <line
       style="fill:none;stroke:#000000;stroke-width:2;stroke-dasharray:8"
       x1="322.57599"
       y1="320"
       x2="1072.48"
       y2="320"
       id="line20675" />
    <polygon
       style="fill:#000000"
       points="322.576,325 322.576,315 306.576,320 "
       id="polygon20677" />
    <polygon
       style="fill:none;stroke:#000000;stroke-width:2"
       points="322.576,325 322.576,315 306.576,320 "
       id="polygon20679" />
  </g>
  <g
     id="g20681"
     transform="matrix(0.44099493,0,0,0.44099493,58.367999,125.8522)">
    <line
       style="fill:none;stroke:#000000;stroke-width:1;stroke-dasharray:8"
       x1="94.199997"
       y1="199"
       x2="94.199997"
       y2="379"
       id="line20683" />
    <line
       style="fill:none;stroke:#000000;stroke-width:1;stroke-dasharray:8"
       x1="94.199997"
       y1="439"
       x2="94.199997"
       y2="579"
       id="line20685" />
    <rect
       style="fill:#ffffff"
       x="87.199997"
       y="379"
       width="14"
       height="60"
       id="rect20687" />
    <rect
       style="fill:none;stroke:#000000;stroke-width:2"
       x="87.199997"
       y="379"
       width="14"
       height="60"
       id="rect20689" />
  </g>
  <g
     id="g20691"
     transform="matrix(0.44099493,0,0,0.44099493,58.367999,125.8522)">
    <line
       style="fill:none;stroke:#000000;stroke-width:1;stroke-dasharray:8"
       x1="298.57599"
       y1="350"
       x2="298.57599"
       y2="380"
       id="line20693" />
    <line
       style="fill:none;stroke:#000000;stroke-width:1;stroke-dasharray:8"
       x1="298.57599"
       y1="560"
       x2="298.57599"
       y2="580"
       id="line20695" />
    <rect
       style="fill:#ffffff"
       x="291.57599"
       y="380"
       width="14"
       height="180"
       id="rect20697" />
    <rect
       style="fill:none;stroke:#000000;stroke-width:2"
       x="291.57599"
       y="380"
       width="14"
       height="180"
       id="rect20699" />
  </g>
  <g
     id="g20701"
     transform="matrix(0.44099493,0,0,0.44099493,58.367999,125.8522)">
    <line
       style="fill:none;stroke:#000000;stroke-width:2"
       x1="274.57599"
       y1="394.91101"
       x2="101.2"
       y2="394"
       id="line20703" />
    <polygon
       style="fill:#000000"
       points="274.602,389.911 274.55,399.911 290.576,394.995 "
       id="polygon20705" />
    <polygon
       style="fill:none;stroke:#000000;stroke-width:2"
       points="274.602,389.911 274.55,399.911 290.576,394.995 "
       id="polygon20707" />
    <text
       style="font-size:12.79979992px;font-style:normal;font-weight:normal;text-anchor:middle;fill:#000000;font-family:sanserif"
       x="196.388"
       y="404.5"
       id="text20709">изменить параметры ячейки</text>
  </g>
  <g
     id="g20711"
     transform="matrix(0.44099493,0,0,0.44099493,58.367999,125.8522)">
    <line
       style="fill:none;stroke:#000000;stroke-width:2"
       x1="507.20001"
       y1="410"
       x2="305.57599"
       y2="410"
       id="line20713" />
    <polygon
       style="fill:#000000"
       points="507.2,405 507.2,415 523.2,410 "
       id="polygon20715" />
    <polygon
       style="fill:none;stroke:#000000;stroke-width:2"
       points="507.2,405 507.2,415 523.2,410 "
       id="polygon20717" />
    <text
       style="font-size:12.79979992px;font-style:normal;font-weight:normal;text-anchor:middle;fill:#000000;font-family:sanserif"
       x="414.888"
       y="420"
       id="text20719">изменить параметры ячейки</text>
  </g>
  <g
     id="g20721"
     transform="matrix(0.44099493,0,0,0.44099493,58.367999,125.8522)">
    <line
       style="fill:none;stroke:#000000;stroke-width:1;stroke-dasharray:8"
       x1="714.12402"
       y1="260"
       x2="714.12402"
       y2="380"
       id="line20723" />
    <line
       style="fill:none;stroke:#000000;stroke-width:1;stroke-dasharray:8"
       x1="714.12402"
       y1="500"
       x2="714.12402"
       y2="580"
       id="line20725" />
    <rect
       style="fill:#ffffff"
       x="707.12402"
       y="380"
       width="14"
       height="120"
       id="rect20727" />
    <rect
       style="fill:none;stroke:#000000;stroke-width:2"
       x="707.12402"
       y="380"
       width="14"
       height="120"
       id="rect20729" />
  </g>
  <g
     id="g20731"
     transform="matrix(0.44099493,0,0,0.44099493,58.367999,125.8522)">
    <line
       style="fill:none;stroke:#000000;stroke-width:1;stroke-dasharray:8"
       x1="898.474"
       y1="259"
       x2="898.474"
       y2="379"
       id="line20733" />
    <line
       style="fill:none;stroke:#000000;stroke-width:1;stroke-dasharray:8"
       x1="898.474"
       y1="499"
       x2="898.474"
       y2="579"
       id="line20735" />
    <rect
       style="fill:#ffffff"
       x="891.474"
       y="379"
       width="14"
       height="120"
       id="rect20737" />
    <rect
       style="fill:none;stroke:#000000;stroke-width:2"
       x="891.474"
       y="379"
       width="14"
       height="120"
       id="rect20739" />
  </g>
  <g
     id="g20741"
     transform="matrix(0.44099493,0,0,0.44099493,58.367999,125.8522)">
    <line
       style="fill:none;stroke:#000000;stroke-width:1;stroke-dasharray:8"
       x1="1079.48"
       y1="350"
       x2="1079.48"
       y2="440"
       id="line20743" />
    <line
       style="fill:none;stroke:#000000;stroke-width:1;stroke-dasharray:8"
       x1="1079.48"
       y1="560"
       x2="1079.48"
       y2="580"
       id="line20745" />
    <rect
       style="fill:#ffffff"
       x="1072.48"
       y="440"
       width="14"
       height="120"
       id="rect20747" />
    <rect
       style="fill:none;stroke:#000000;stroke-width:2"
       x="1072.48"
       y="440"
       width="14"
       height="120"
       id="rect20749" />
  </g>
  <g
     id="g20751"
     transform="matrix(0.44099493,0,0,0.44099493,58.367999,125.8522)">
    <line
       style="fill:none;stroke:#000000;stroke-width:2"
       x1="690.12402"
       y1="425"
       x2="538.20001"
       y2="425"
       id="line20753" />
    <polygon
       style="fill:#000000"
       points="690.124,420 690.124,430 706.124,425 "
       id="polygon20755" />
    <polygon
       style="fill:none;stroke:#000000;stroke-width:2"
       points="690.124,420 690.124,430 706.124,425 "
       id="polygon20757" />
    <text
       style="font-size:12.79979992px;font-style:normal;font-weight:normal;text-anchor:middle;fill:#000000;font-family:sanserif"
       x="622.66199"
       y="435"
       id="text20759">изменить параметры</text>
  </g>
  <g
     id="g20761"
     transform="matrix(0.44099493,0,0,0.44099493,58.367999,125.8522)">
    <line
       style="fill:none;stroke:#000000;stroke-width:2"
       x1="874.474"
       y1="439.10001"
       x2="721.12402"
       y2="440"
       id="line20763" />
    <polygon
       style="fill:#000000"
       points="874.445,434.1 874.504,444.1 890.474,439.006 "
       id="polygon20765" />
    <polygon
       style="fill:none;stroke:#000000;stroke-width:2"
       points="874.445,434.1 874.504,444.1 890.474,439.006 "
       id="polygon20767" />
    <text
       style="font-size:12.79979992px;font-style:normal;font-weight:normal;text-anchor:middle;fill:#000000;font-family:sanserif"
       x="806.29999"
       y="449.5"
       id="text20769">установить параметры</text>
  </g>
  <g
     id="g20771"
     transform="matrix(0.44099493,0,0,0.44099493,58.367999,125.8522)">
    <line
       style="fill:none;stroke:#000000;stroke-width:2;stroke-dasharray:8"
       x1="738.12402"
       y1="469.89999"
       x2="891.474"
       y2="469"
       id="line20773" />
    <polygon
       style="fill:#000000"
       points="738.153,474.9 738.094,464.9 722.124,469.994 "
       id="polygon20775" />
    <polygon
       style="fill:none;stroke:#000000;stroke-width:2"
       points="738.153,474.9 738.094,464.9 722.124,469.994 "
       id="polygon20777" />
  </g>
  <g
     id="g20779"
     transform="matrix(0.44099493,0,0,0.44099493,58.367999,125.8522)">
    <line
       style="fill:none;stroke:#000000;stroke-width:2;stroke-dasharray:8"
       x1="555.20001"
       y1="485"
       x2="707.12402"
       y2="485"
       id="line20781" />
    <polygon
       style="fill:#000000"
       points="555.2,490 555.2,480 539.2,485 "
       id="polygon20783" />
    <polygon
       style="fill:none;stroke:#000000;stroke-width:2"
       points="555.2,490 555.2,480 539.2,485 "
       id="polygon20785" />
  </g>
  <g
     id="g20787"
     transform="matrix(0.44099493,0,0,0.44099493,58.367999,125.8522)">
    <line
       style="fill:none;stroke:#000000;stroke-width:2;stroke-dasharray:8"
       x1="322.57599"
       y1="500"
       x2="524.20001"
       y2="500"
       id="line20789" />
    <polygon
       style="fill:#000000"
       points="322.576,505 322.576,495 306.576,500 "
       id="polygon20791" />
    <polygon
       style="fill:none;stroke:#000000;stroke-width:2"
       points="322.576,505 322.576,495 306.576,500 "
       id="polygon20793" />
  </g>
  <g
     id="g20795"
     transform="matrix(0.44099493,0,0,0.44099493,58.367999,125.8522)">
    <line
       style="fill:none;stroke:#000000;stroke-width:2"
       x1="1055.48"
       y1="515"
       x2="305.57599"
       y2="515"
       id="line20797" />
    <polygon
       style="fill:#000000"
       points="1055.48,510 1055.48,520 1071.48,515 "
       id="polygon20799" />
    <polygon
       style="fill:none;stroke:#000000;stroke-width:2"
       points="1055.48,510 1055.48,520 1071.48,515 "
       id="polygon20801" />
    <text
       style="font-size:12.79979992px;font-style:normal;font-weight:normal;text-anchor:middle;fill:#000000;font-family:sanserif"
       x="689.026"
       y="525"
       id="text20803">пересчитать ячейку</text>
  </g>
  <g
     id="g20805"
     transform="matrix(0.44099493,0,0,0.44099493,58.367999,125.8522)">
    <line
       style="fill:none;stroke:#000000;stroke-width:2;stroke-dasharray:8"
       x1="322.57599"
       y1="545"
       x2="1072.48"
       y2="545"
       id="line20807" />
    <polygon
       style="fill:#000000"
       points="322.576,550 322.576,540 306.576,545 "
       id="polygon20809" />
    <polygon
       style="fill:none;stroke:#000000;stroke-width:2"
       points="322.576,550 322.576,540 306.576,545 "
       id="polygon20811" />
  </g>
</svg>
