<?xml version="1.0" encoding="UTF-8" standalone="no"?>
<!DOCTYPE svg PUBLIC "-//W3C//DTD SVG 1.0//EN" "http://www.w3.org/TR/2001/PR-SVG-20010719/DTD/svg10.dtd">
<svg width="60cm" height="27cm" viewBox="-4 -171 1193 521" xmlns="http://www.w3.org/2000/svg" xmlns:xlink="http://www.w3.org/1999/xlink">
  <g>
    <ellipse style="fill: #ffffff" cx="32" cy="153" rx="6" ry="6"/>
    <ellipse style="fill: none; fill-opacity:0; stroke-width: 2; stroke: #000000" cx="32" cy="153" rx="6" ry="6"/>
    <line style="fill: none; fill-opacity:0; stroke-width: 2; stroke: #000000" x1="8" y1="165" x2="56" y2="165"/>
    <line style="fill: none; fill-opacity:0; stroke-width: 2; stroke: #000000" x1="32" y1="159" x2="32" y2="189"/>
    <line style="fill: none; fill-opacity:0; stroke-width: 2; stroke: #000000" x1="32" y1="189" x2="8" y2="215"/>
    <line style="fill: none; fill-opacity:0; stroke-width: 2; stroke: #000000" x1="32" y1="189" x2="56" y2="215"/>
    <text style="fill: #000000;text-anchor:middle;font-size:12.8;font-family:sanserif;font-style:normal;font-weight:normal" x="32" y="238.9">
      <tspan x="32" y="238.9">Бухгалтер</tspan>
    </text>
  </g>
  <line style="fill: none; fill-opacity:0; stroke-width: 2; stroke: #000000" x1="67.137" y1="188.365" x2="114.1" y2="187.517"/>
  <g>
    <line style="fill: none; fill-opacity:0; stroke-width: 2; stroke-dasharray: 20; stroke: #000000" x1="358.1" y1="100.217" x2="218.837" y2="152.43"/>
    <polyline style="fill: none; fill-opacity:0; stroke-width: 2; stroke: #000000" points="224.352,145.023 216.744,153.215 227.863,154.386 "/>
  </g>
  <g>
    <ellipse style="fill: #ffffff" cx="214.65" cy="187.517" rx="100.55" ry="33.5167"/>
    <ellipse style="fill: none; fill-opacity:0; stroke-width: 2; stroke: #000000" cx="214.65" cy="187.517" rx="100.55" ry="33.5167"/>
    <text style="fill: #000000;text-anchor:middle;font-size:12.8;font-family:sanserif;font-style:normal;font-weight:normal" x="214.65" y="191.417">
      <tspan x="214.65" y="191.417">Открытие декларации</tspan>
    </text>
  </g>
  <g>
    <ellipse style="fill: #ffffff" cx="463.75" cy="100.217" rx="105.65" ry="35.2167"/>
    <ellipse style="fill: none; fill-opacity:0; stroke-width: 2; stroke: #000000" cx="463.75" cy="100.217" rx="105.65" ry="35.2167"/>
    <text style="fill: #000000;text-anchor:middle;font-size:12.8;font-family:sanserif;font-style:normal;font-weight:normal" x="463.75" y="104.117">
      <tspan x="463.75" y="104.117">Редактирование ячейки</tspan>
    </text>
  </g>
  <g>
    <ellipse style="fill: #ffffff" cx="742.75" cy="3.21667" rx="96.65" ry="32.2167"/>
    <ellipse style="fill: none; fill-opacity:0; stroke-width: 2; stroke: #000000" cx="742.75" cy="3.21667" rx="96.65" ry="32.2167"/>
    <text style="fill: #000000;text-anchor:middle;font-size:12.8;font-family:sanserif;font-style:normal;font-weight:normal" x="742.75" y="7.11667">
      <tspan x="742.75" y="7.11667">Изменить тип ячейки</tspan>
    </text>
  </g>
  <g>
    <ellipse style="fill: #ffffff" cx="351.65" cy="293.85" rx="107.55" ry="35.85"/>
    <ellipse style="fill: none; fill-opacity:0; stroke-width: 2; stroke: #000000" cx="351.65" cy="293.85" rx="107.55" ry="35.85"/>
    <text style="fill: #000000;text-anchor:middle;font-size:12.8;font-family:sanserif;font-style:normal;font-weight:normal" x="351.65" y="297.75">
      <tspan x="351.65" y="297.75">Сохранение декларации</tspan>
    </text>
  </g>
  <text style="fill: #000000;text-anchor:start;font-size:12.8;font-family:sanserif;font-style:normal;font-weight:normal" x="232.1" y="105">
    <tspan x="232.1" y="105">&lt;&lt;расширяет&gt;&gt;</tspan>
  </text>
  <g>
    <line style="fill: none; fill-opacity:0; stroke-width: 2; stroke-dasharray: 20; stroke: #000000" x1="646.1" y1="3.21666" x2="542.172" y2="72.8261"/>
    <polyline style="fill: none; fill-opacity:0; stroke-width: 2; stroke: #000000" points="545.84,64.3513 540.314,74.0704 551.405,72.6598 "/>
  </g>
  <g>
    <line style="fill: none; fill-opacity:0; stroke-width: 2; stroke-dasharray: 20; stroke: #000000" x1="351.65" y1="258" x2="285.688" y2="224.064"/>
    <polyline style="fill: none; fill-opacity:0; stroke-width: 2; stroke: #000000" points="294.88,223.17 283.7,223.041 290.305,232.062 "/>
  </g>
  <text style="fill: #000000;text-anchor:start;font-size:12.8;font-family:sanserif;font-style:normal;font-weight:normal" x="330.2" y="239.9">
    <tspan x="330.2" y="239.9">&lt;&lt;расширяет&gt;&gt;</tspan>
  </text>
  <text style="fill: #000000;text-anchor:start;font-size:12.8;font-family:sanserif;font-style:normal;font-weight:normal" x="569.3" y="127.9">
    <tspan x="569.3" y="127.9">&lt;&lt;расширяет&gt;&gt;</tspan>
  </text>
  <g>
    <ellipse style="fill: #ffffff" cx="342.05" cy="-84.6833" rx="102.95" ry="34.3167"/>
    <ellipse style="fill: none; fill-opacity:0; stroke-width: 2; stroke: #000000" cx="342.05" cy="-84.6833" rx="102.95" ry="34.3167"/>
    <text style="fill: #000000;text-anchor:middle;font-size:12.8;font-family:sanserif;font-style:normal;font-weight:normal" x="342.05" y="-80.7833">
      <tspan x="342.05" y="-80.7833">Пересчитать значение </tspan>
    </text>
  </g>
  <g>
    <line style="fill: none; fill-opacity:0; stroke-width: 2; stroke-dasharray: 20; stroke: #000000" x1="342.05" y1="-50.3666" x2="460.504" y2="61.9233"/>
    <polyline style="fill: none; fill-opacity:0; stroke-width: 2; stroke: #000000" points="451.43,60.2106 462.127,63.4617 458.31,52.9533 "/>
  </g>
  <text style="fill: #000000;text-anchor:start;font-size:12.8;font-family:sanserif;font-style:normal;font-weight:normal" x="389.9" y="-12.5">
    <tspan x="389.9" y="-12.5">&lt;&lt;расширяет&gt;&gt;</tspan>
  </text>
  <text style="fill: #000000;text-anchor:start;font-size:12.8;font-family:sanserif;font-style:normal;font-weight:normal" x="342.05" y="-84.6834">
    <tspan x="342.05" y="-84.6834"></tspan>
  </text>
  <g>
    <ellipse style="fill: #ffffff" cx="835.125" cy="116.025" rx="140.325" ry="46.775"/>
    <ellipse style="fill: none; fill-opacity:0; stroke-width: 2; stroke: #000000" cx="835.125" cy="116.025" rx="140.325" ry="46.775"/>
    <text style="fill: #000000;text-anchor:middle;font-size:12.8;font-family:sanserif;font-style:normal;font-weight:normal" x="835.125" y="119.925">
      <tspan x="835.125" y="119.925">Изменить параметры типа ячейки</tspan>
    </text>
  </g>
  <g>
    <line style="fill: none; fill-opacity:0; stroke-width: 2; stroke-dasharray: 20; stroke: #000000" x1="694.8" y1="116.025" x2="573.837" y2="100.776"/>
    <polyline style="fill: none; fill-opacity:0; stroke-width: 2; stroke: #000000" points="582.165,96.7863 571.619,100.496 580.915,106.708 "/>
  </g>
  <text style="fill: #000000;text-anchor:start;font-size:12.8;font-family:sanserif;font-style:normal;font-weight:normal" x="580.7" y="52.85">
    <tspan x="580.7" y="52.85">&lt;&lt;расширяет&gt;&gt;</tspan>
  </text>
  <g>
    <ellipse style="fill: #ffffff" cx="1102.8" cy="196.25" rx="6" ry="6"/>
    <ellipse style="fill: none; fill-opacity:0; stroke-width: 2; stroke: #000000" cx="1102.8" cy="196.25" rx="6" ry="6"/>
    <line style="fill: none; fill-opacity:0; stroke-width: 2; stroke: #000000" x1="1078.8" y1="208.25" x2="1126.8" y2="208.25"/>
    <line style="fill: none; fill-opacity:0; stroke-width: 2; stroke: #000000" x1="1102.8" y1="202.25" x2="1102.8" y2="232.25"/>
    <line style="fill: none; fill-opacity:0; stroke-width: 2; stroke: #000000" x1="1102.8" y1="232.25" x2="1078.8" y2="258.25"/>
    <line style="fill: none; fill-opacity:0; stroke-width: 2; stroke: #000000" x1="1102.8" y1="232.25" x2="1126.8" y2="258.25"/>
    <text style="fill: #000000;text-anchor:middle;font-size:12.8;font-family:sanserif;font-style:normal;font-weight:normal" x="1102.8" y="282.15">
      <tspan x="1102.8" y="282.15">&lt;&lt;system&gt;&gt;</tspan>
      <tspan x="1102.8" y="298.15">Калькулятор декларации</tspan>
    </text>
  </g>
  <g>
    <ellipse style="fill: #ffffff" cx="803.35" cy="229.767" rx="103.55" ry="34.5167"/>
    <ellipse style="fill: none; fill-opacity:0; stroke-width: 2; stroke: #000000" cx="803.35" cy="229.767" rx="103.55" ry="34.5167"/>
    <text style="fill: #000000;text-anchor:middle;font-size:12.8;font-family:sanserif;font-style:normal;font-weight:normal" x="803.35" y="233.667">
      <tspan x="803.35" y="233.667">Посчитать декларацию</tspan>
    </text>
  </g>
  <line style="fill: none; fill-opacity:0; stroke-width: 2; stroke: #000000" x1="906.9" y1="229.766" x2="1016.23" y2="231.152"/>
  <g>
    <ellipse style="fill: #ffffff" cx="1084.8" cy="-151.75" rx="6" ry="6"/>
    <ellipse style="fill: none; fill-opacity:0; stroke-width: 2; stroke: #000000" cx="1084.8" cy="-151.75" rx="6" ry="6"/>
    <line style="fill: none; fill-opacity:0; stroke-width: 2; stroke: #000000" x1="1060.8" y1="-139.75" x2="1108.8" y2="-139.75"/>
    <line style="fill: none; fill-opacity:0; stroke-width: 2; stroke: #000000" x1="1084.8" y1="-145.75" x2="1084.8" y2="-115.75"/>
    <line style="fill: none; fill-opacity:0; stroke-width: 2; stroke: #000000" x1="1084.8" y1="-115.75" x2="1060.8" y2="-89.75"/>
    <line style="fill: none; fill-opacity:0; stroke-width: 2; stroke: #000000" x1="1084.8" y1="-115.75" x2="1108.8" y2="-89.75"/>
    <text style="fill: #000000;text-anchor:middle;font-size:12.8;font-family:sanserif;font-style:normal;font-weight:normal" x="1084.8" y="-65.85">
      <tspan x="1084.8" y="-65.85">&lt;&lt;system&gt;&gt;</tspan>
      <tspan x="1084.8" y="-49.85">Калькулятор ячейки</tspan>
    </text>
  </g>
  <g>
    <ellipse style="fill: #ffffff" cx="828.625" cy="-114.808" rx="92.825" ry="30.9417"/>
    <ellipse style="fill: none; fill-opacity:0; stroke-width: 2; stroke: #000000" cx="828.625" cy="-114.808" rx="92.825" ry="30.9417"/>
    <text style="fill: #000000;text-anchor:middle;font-size:12.8;font-family:sanserif;font-style:normal;font-weight:normal" x="828.625" y="-110.908">
      <tspan x="828.625" y="-110.908">Пересчитать ячейку</tspan>
    </text>
  </g>
  <line style="fill: none; fill-opacity:0; stroke-width: 2; stroke: #000000" x1="1015.32" y1="-115.349" x2="921.45" y2="-114.808"/>
  <rect style="fill: none; fill-opacity:0; stroke-width: 2; stroke: #000000" x="107.8" y="-149.75" width="879" height="498"/>
  <g>
    <line style="fill: none; fill-opacity:0; stroke-width: 2; stroke-dasharray: 20; stroke: #000000" x1="315.2" y1="187.517" x2="695.355" y2="229.278"/>
    <polyline style="fill: none; fill-opacity:0; stroke-width: 2; stroke: #000000" points="687.091,233.4 697.577,229.522 688.183,223.46 "/>
  </g>
  <text style="fill: #000000;text-anchor:start;font-size:12.8;font-family:sanserif;font-style:normal;font-weight:normal" x="439.7" y="195.95">
    <tspan x="439.7" y="195.95">&lt;&lt;включает&gt;&gt;</tspan>
  </text>
  <g>
    <line style="fill: none; fill-opacity:0; stroke-width: 2; stroke-dasharray: 20; stroke: #000000" x1="445" y1="-84.6834" x2="731.352" y2="-114.348"/>
    <polyline style="fill: none; fill-opacity:0; stroke-width: 2; stroke: #000000" points="724.144,-108.574 733.576,-114.578 723.114,-118.521 "/>
  </g>
  <g>
    <line style="fill: none; fill-opacity:0; stroke-width: 2; stroke-dasharray: 20; stroke: #000000" x1="742.75" y1="-29" x2="761.638" y2="-88.6656"/>
    <polyline style="fill: none; fill-opacity:0; stroke-width: 2; stroke: #000000" points="764.062,-79.7547 762.313,-90.7974 754.528,-82.7727 "/>
  </g>
  <g>
    <line style="fill: none; fill-opacity:0; stroke-width: 2; stroke-dasharray: 20; stroke: #000000" x1="934.35" y1="82.95" x2="895.256" y2="-88.5689"/>
    <polyline style="fill: none; fill-opacity:0; stroke-width: 2; stroke: #000000" points="901.856,-82.1103 894.759,-90.749 892.106,-79.888 "/>
  </g>
  <text style="fill: #000000;text-anchor:start;font-size:12.8;font-family:sanserif;font-style:normal;font-weight:normal" x="515.7" y="-72.05">
    <tspan x="515.7" y="-72.05">&lt;&lt;включает&gt;&gt;</tspan>
  </text>
  <text style="fill: #000000;text-anchor:start;font-size:12.8;font-family:sanserif;font-style:normal;font-weight:normal" x="759.6" y="-49.75">
    <tspan x="759.6" y="-49.75">&lt;&lt;включает&gt;&gt;</tspan>
  </text>
  <text style="fill: #000000;text-anchor:start;font-size:12.8;font-family:sanserif;font-style:normal;font-weight:normal" x="809.5" y="47.55">
    <tspan x="809.5" y="47.55">&lt;&lt;включает&gt;&gt;</tspan>
  </text>
</svg>
